{"glyphs":{"0":{"ha":822,"x_min":64,"x_max":754,"o":"m 319 -14 q 213 10 260 -14 q 132 76 165 33 q 81 178 99 119 q 64 307 64 238 q 100 510 64 415 q 196 676 136 606 q 334 788 256 747 q 499 829 413 829 q 604 805 557 829 q 685 738 651 781 q 736 637 718 696 q 754 507 754 578 q 718 303 754 399 q 622 138 682 208 q 483 27 561 68 q 319 -14 404 -14 m 338 75 q 460 108 401 75 q 562 197 518 140 q 631 331 606 254 q 657 497 657 408 q 610 673 657 606 q 481 740 564 740 q 357 707 415 740 q 255 617 299 674 q 185 482 211 560 q 160 317 160 404 q 206 142 160 208 q 338 75 253 75 z "},"1":{"ha":569,"x_min":4,"x_max":474,"o":"m 22 86 l 210 86 l 336 681 q 292 644 321 664 q 228 608 263 625 q 158 581 193 592 q 96 569 122 569 l 115 661 q 186 679 146 661 q 263 721 226 697 q 328 765 300 744 q 360 793 356 786 l 456 793 l 306 86 l 474 86 l 456 0 l 4 0 l 22 86 z "},"2":{"ha":699,"x_min":-24,"x_max":663,"o":"m -24 0 q 3 97 -14 47 q 51 193 19 146 q 135 284 83 240 q 269 364 188 328 q 405 429 350 399 q 494 490 460 460 q 544 551 529 519 q 560 619 560 582 q 530 691 560 660 q 425 722 500 722 q 344 708 383 722 q 271 676 304 694 q 213 637 238 657 q 174 604 188 617 l 132 675 q 169 706 142 683 q 238 750 197 728 q 332 790 279 772 q 446 807 385 807 q 540 792 499 807 q 608 753 581 778 q 649 695 635 728 q 663 625 663 663 q 638 521 663 565 q 572 442 613 476 q 479 382 531 408 q 376 332 428 356 q 265 275 311 303 q 188 218 219 247 q 138 157 157 189 q 108 86 119 125 l 564 86 l 546 0 l -24 0 l -24 0 z "},"3":{"ha":708,"x_min":-47,"x_max":664,"o":"m 208 -204 q 42 -162 108 -204 q -47 -44 -25 -119 l 29 15 q 93 -82 44 -46 q 226 -118 142 -118 q 413 -54 343 -118 q 483 121 483 10 q 435 240 483 196 q 293 285 388 285 l 260 285 l 276 365 l 313 365 q 417 381 371 365 q 496 426 464 397 q 545 493 528 454 q 563 578 563 532 q 519 679 563 644 q 406 714 476 714 q 267 678 331 714 q 160 581 204 643 l 113 639 q 172 705 136 675 q 249 756 207 735 q 338 788 290 776 q 433 800 385 800 q 602 744 540 800 q 664 596 664 688 q 647 502 664 547 q 599 421 629 457 q 528 360 569 385 q 438 328 486 335 q 544 263 507 315 q 582 132 582 210 q 553 -3 582 58 q 474 -110 525 -65 q 356 -179 424 -154 q 208 -204 288 -204 z "},"4":{"ha":732,"x_min":-39,"x_max":647,"o":"m 399 71 l -39 71 l -21 154 l 572 793 l 647 793 l 511 157 l 628 157 l 610 71 l 493 71 l 440 -176 l 346 -176 l 399 71 m 426 157 l 531 644 l 81 157 l 426 157 z "},"5":{"ha":731,"x_min":-43,"x_max":708,"o":"m 218 -207 q 49 -156 118 -207 q -43 -18 -21 -104 l 29 29 q 106 -81 51 -39 q 236 -122 161 -122 q 344 -101 292 -122 q 435 -40 396 -79 q 499 50 475 -1 q 522 163 522 101 q 474 297 522 246 q 346 349 425 349 q 224 320 285 349 q 119 238 164 292 l 32 238 q 56 296 38 250 q 99 403 74 342 q 151 534 124 465 q 201 660 178 603 q 239 756 224 718 q 256 793 254 793 l 708 793 l 689 706 l 307 706 l 168 351 q 263 412 210 390 q 374 433 315 433 q 474 415 429 433 q 552 363 519 396 q 603 283 585 329 q 621 181 621 236 q 587 25 621 96 q 497 -97 553 -46 q 367 -178 440 -149 q 218 -207 294 -207 z "},"6":{"ha":817,"x_min":67,"x_max":794,"o":"m 331 -14 q 137 69 207 -14 q 67 294 67 151 q 102 558 67 432 q 201 781 138 685 q 356 935 265 878 q 554 993 446 993 q 710 944 646 993 q 794 810 774 896 l 722 754 q 658 867 708 825 q 535 910 608 910 q 418 878 475 910 q 314 791 361 847 q 232 656 267 735 q 182 479 197 576 q 310 610 229 563 q 483 658 392 658 q 590 638 542 658 q 671 580 638 617 q 723 493 704 543 q 742 385 742 443 q 707 232 742 304 q 615 105 672 160 q 484 18 558 50 q 331 -14 410 -14 m 349 69 q 458 94 404 69 q 555 160 513 118 q 623 256 597 201 q 649 369 649 310 q 635 452 649 414 q 596 519 621 490 q 535 564 571 547 q 457 581 500 581 q 347 556 400 581 q 251 490 293 532 q 183 394 208 449 q 157 281 157 340 q 171 198 157 236 q 210 131 185 160 q 272 86 236 103 q 349 69 307 69 z "},"7":{"ha":714,"x_min":-15,"x_max":775,"o":"m 606 722 l 106 722 l 124 810 l 775 810 l 92 -176 l -15 -176 l 606 722 z "},"8":{"ha":792,"x_min":33,"x_max":764,"o":"m 301 -11 q 190 8 240 -11 q 106 59 140 26 q 52 136 71 92 q 33 232 33 181 q 56 338 33 290 q 115 424 79 386 q 193 487 150 461 q 278 528 236 513 q 197 596 229 551 q 165 700 165 640 q 199 821 165 768 q 283 910 232 874 q 396 967 333 947 q 517 986 458 986 q 608 972 564 986 q 688 932 653 958 q 743 866 722 906 q 764 776 764 826 q 747 692 764 731 q 700 623 729 654 q 634 567 671 592 q 558 528 597 543 q 658 449 618 504 q 697 318 697 393 q 663 184 697 244 q 574 81 629 124 q 447 13 518 38 q 301 -11 376 -11 m 324 74 q 420 91 371 74 q 510 140 469 108 q 576 217 550 172 q 601 315 601 261 q 585 388 601 356 q 541 442 568 419 q 479 476 514 464 q 408 488 444 488 q 312 470 361 488 q 223 421 263 453 q 158 344 183 389 q 132 246 132 300 q 148 174 132 206 q 191 119 164 142 q 253 85 218 97 q 324 74 288 74 m 426 563 q 506 576 464 563 q 584 615 549 589 q 642 677 619 640 q 665 761 665 714 q 652 820 665 794 q 616 863 639 846 q 563 890 593 881 q 497 900 532 900 q 412 886 454 900 q 335 847 369 872 q 281 785 301 821 q 260 704 260 749 q 274 644 260 671 q 313 600 289 618 q 366 572 336 582 q 426 563 396 563 z "},"9":{"ha":793,"x_min":0,"x_max":728,"o":"m 240 -215 q 85 -167 149 -215 q 0 -31 21 -118 l 72 24 q 135 -89 85 -47 q 260 -131 185 -131 q 377 -99 319 -131 q 483 -12 435 -68 q 565 124 531 44 q 611 300 599 203 q 483 168 564 217 q 310 119 401 119 q 204 140 251 119 q 123 198 157 161 q 70 285 89 235 q 51 393 51 335 q 86 546 51 474 q 178 673 121 618 q 310 760 235 728 q 464 792 385 792 q 657 710 586 792 q 728 485 728 628 q 692 220 728 347 q 592 -3 657 93 q 438 -158 528 -100 q 240 -215 349 -215 m 336 197 q 447 222 393 197 q 544 288 501 246 q 612 384 586 329 q 638 499 638 439 q 624 581 638 542 q 584 648 610 619 q 523 693 558 676 q 444 710 488 710 q 335 685 389 710 q 238 619 281 661 q 169 523 196 578 q 143 408 143 468 q 158 326 143 364 q 198 259 172 288 q 259 214 224 231 q 336 197 294 197 z "},"A":{"ha":904,"x_min":-62,"x_max":797,"o":"m 536 986 l 619 986 l 797 0 l 694 0 l 640 308 l 225 308 l 42 0 l -62 0 l 536 986 m 635 385 l 554 872 l 261 385 l 635 385 z "},"Æ":{"ha":1282,"x_min":-112,"x_max":1336,"o":"m 699 986 l 1336 986 l 1317 900 l 801 900 l 728 546 l 1171 546 l 1151 460 l 708 460 l 629 86 l 1156 86 l 1138 0 l 515 0 l 581 308 l 242 308 l -7 0 l -112 0 l 699 986 m 593 394 l 694 869 l 304 394 l 593 394 z "},"Ǽ":{"ha":1282,"x_min":-112,"x_max":1336,"o":"m 796 1121 l 738 1144 l 843 1274 l 942 1274 l 796 1121 m 699 986 l 1336 986 l 1317 900 l 801 900 l 728 546 l 1171 546 l 1151 460 l 708 460 l 629 86 l 1156 86 l 1138 0 l 515 0 l 581 308 l 242 308 l -7 0 l -112 0 l 699 986 m 593 394 l 694 869 l 304 394 l 593 394 z "},"´":{"ha":294,"x_min":44,"x_max":249,"o":"m 103 861 l 44 885 l 150 1014 l 249 1014 l 103 861 z "},"Á":{"ha":904,"x_min":-62,"x_max":797,"o":"m 536 986 l 619 986 l 797 0 l 694 0 l 640 308 l 225 308 l 42 0 l -62 0 l 536 986 m 635 385 l 554 872 l 261 385 l 635 385 m 599 1121 l 540 1144 l 646 1274 l 744 1274 l 599 1121 z "},"Ă":{"ha":904,"x_min":-62,"x_max":797,"o":"m 536 986 l 619 986 l 797 0 l 694 0 l 640 308 l 225 308 l 42 0 l -62 0 l 536 986 m 635 385 l 554 872 l 261 385 l 635 385 m 608 1182 q 664 1208 636 1182 q 704 1274 692 1235 l 760 1274 q 738 1219 753 1244 q 701 1174 722 1193 q 653 1144 679 1156 q 599 1133 626 1133 q 521 1164 550 1133 q 492 1242 492 1194 q 496 1274 492 1257 l 554 1274 q 551 1253 551 1260 q 567 1203 551 1224 q 608 1182 583 1182 z "},"˘":{"ha":375,"x_min":82,"x_max":350,"o":"m 199 922 q 254 949 226 922 q 294 1014 282 975 l 350 1014 q 328 959 343 985 q 291 915 313 933 q 243 885 269 896 q 189 874 217 874 q 111 904 140 874 q 82 982 82 935 q 86 1014 82 997 l 144 1014 q 142 993 142 1000 q 158 943 142 964 q 199 922 174 922 z "},"Â":{"ha":904,"x_min":-62,"x_max":797,"o":"m 536 986 l 619 986 l 797 0 l 694 0 l 640 308 l 225 308 l 42 0 l -62 0 l 536 986 m 635 385 l 554 872 l 261 385 l 635 385 m 447 1156 l 604 1274 l 674 1274 l 778 1156 l 719 1126 l 625 1214 l 494 1126 l 447 1156 z "},"ˆ":{"ha":439,"x_min":79,"x_max":410,"o":"m 79 896 l 236 1014 l 306 1014 l 410 896 l 351 867 l 257 954 l 126 867 l 79 896 z "},"Ä":{"ha":904,"x_min":-62,"x_max":797,"o":"m 536 986 l 619 986 l 797 0 l 694 0 l 640 308 l 225 308 l 42 0 l -62 0 l 536 986 m 635 385 l 554 872 l 261 385 l 635 385 m 456 1139 l 485 1269 l 565 1269 l 536 1139 l 456 1139 m 656 1139 l 683 1269 l 763 1269 l 736 1139 l 656 1139 z "},"¨":{"ha":443,"x_min":88,"x_max":394,"o":"m 88 879 l 117 1010 l 197 1010 l 168 879 l 88 879 m 288 879 l 315 1010 l 394 1010 l 368 879 l 288 879 z "},"À":{"ha":904,"x_min":-62,"x_max":797,"o":"m 536 986 l 619 986 l 797 0 l 694 0 l 640 308 l 225 308 l 42 0 l -62 0 l 536 986 m 635 385 l 554 872 l 261 385 l 635 385 m 492 1274 l 589 1274 l 642 1144 l 574 1121 l 492 1274 z "},"`":{"ha":296,"x_min":93,"x_max":243,"o":"m 93 1014 l 190 1014 l 243 885 l 175 861 l 93 1014 z "},"Ā":{"ha":904,"x_min":-62,"x_max":818,"o":"m 536 986 l 619 986 l 797 0 l 694 0 l 640 308 l 225 308 l 42 0 l -62 0 l 536 986 m 635 385 l 554 872 l 261 385 l 635 385 m 422 1179 l 436 1244 l 818 1244 l 804 1179 l 422 1179 z "},"¯":{"ha":525,"x_min":100,"x_max":496,"o":"m 100 919 l 114 985 l 496 985 l 482 919 l 100 919 z "},"Ą":{"ha":904,"x_min":-62,"x_max":797,"o":"m 682 -243 q 619 -211 640 -233 q 599 -158 599 -189 q 630 -82 599 -119 q 731 0 661 -44 l 694 0 l 640 308 l 225 308 l 42 0 l -62 0 l 536 986 l 619 986 l 797 0 q 690 -76 721 -44 q 660 -140 660 -108 q 718 -190 660 -182 l 682 -243 m 635 385 l 554 872 l 261 385 l 635 385 z "},"˛":{"ha":319,"x_min":40,"x_max":239,"o":"m 124 -243 q 61 -211 82 -233 q 40 -158 40 -189 q 81 -72 40 -114 q 213 24 121 -29 l 239 0 q 132 -76 163 -44 q 101 -140 101 -108 q 160 -190 101 -182 l 124 -243 l 124 -243 z "},"Å":{"ha":904,"x_min":-62,"x_max":797,"o":"m 536 986 l 619 986 l 797 0 l 694 0 l 640 308 l 225 308 l 42 0 l -62 0 l 536 986 m 635 385 l 554 872 l 261 385 l 635 385 m 517 1165 q 553 1244 517 1214 q 638 1274 589 1274 q 697 1253 675 1274 q 718 1200 718 1233 q 683 1122 718 1153 q 597 1092 649 1092 q 538 1112 560 1092 q 517 1165 517 1132 m 629 1236 q 583 1218 604 1236 q 563 1172 563 1200 q 574 1142 563 1154 q 606 1129 586 1129 q 651 1147 629 1129 q 674 1193 674 1165 q 661 1224 674 1213 q 629 1236 649 1236 z "},"˚":{"ha":328,"x_min":92,"x_max":293,"o":"m 92 906 q 128 984 92 954 q 213 1014 164 1014 q 272 994 250 1014 q 293 940 293 974 q 258 863 293 893 q 172 832 224 832 q 113 852 135 832 q 92 906 92 872 m 204 976 q 158 958 179 976 q 138 913 138 940 q 149 882 138 894 q 181 869 161 869 q 226 888 204 869 q 249 933 249 906 q 236 965 249 953 q 204 976 224 976 z "},"Ǻ":{"ha":904,"x_min":-62,"x_max":797,"o":"m 632 1128 q 675 1103 660 1122 q 690 1057 690 1085 q 672 998 690 1024 q 624 960 654 972 l 797 0 l 694 0 l 640 308 l 225 308 l 42 0 l -62 0 l 521 961 q 489 1022 489 981 q 525 1101 489 1071 q 610 1131 561 1131 q 619 1130 615 1131 q 629 1129 624 1129 l 574 1150 l 679 1275 l 778 1275 l 632 1128 m 635 385 l 554 872 l 261 385 l 635 385 m 601 1093 q 556 1075 576 1093 q 535 1029 535 1057 q 547 999 535 1011 q 578 986 558 986 q 624 1004 601 986 q 646 1050 646 1022 q 633 1081 646 1069 q 601 1093 621 1093 z "},"Ã":{"ha":904,"x_min":-62,"x_max":847,"o":"m 536 986 l 619 986 l 797 0 l 694 0 l 640 308 l 225 308 l 42 0 l -62 0 l 536 986 m 635 385 l 554 872 l 261 385 l 635 385 m 688 1146 q 638 1154 658 1146 q 601 1173 618 1163 q 568 1192 585 1183 q 531 1201 551 1201 q 494 1192 510 1201 q 470 1170 479 1182 q 456 1148 461 1158 q 451 1135 451 1138 l 393 1135 q 404 1163 394 1142 q 432 1207 414 1185 q 478 1247 450 1229 q 543 1264 506 1264 q 590 1255 571 1264 q 625 1235 608 1246 q 658 1215 642 1224 q 700 1206 675 1206 q 742 1215 725 1206 q 769 1238 760 1225 q 784 1260 779 1250 q 789 1274 789 1271 l 847 1274 q 836 1246 846 1267 q 807 1203 826 1225 q 758 1163 788 1181 q 688 1146 729 1146 z "},"˜":{"ha":538,"x_min":61,"x_max":515,"o":"m 356 886 q 306 894 326 886 q 269 913 286 903 q 236 933 253 924 q 199 942 219 942 q 163 932 178 942 q 138 910 147 922 q 124 888 129 899 q 119 875 119 878 l 61 875 q 72 903 63 882 q 100 947 82 925 q 146 987 118 969 q 211 1004 174 1004 q 258 995 239 1004 q 293 975 276 986 q 326 955 310 964 q 368 946 343 946 q 410 956 393 946 q 438 978 428 965 q 452 1001 447 990 q 457 1014 457 1011 l 515 1014 q 504 986 514 1007 q 475 943 494 965 q 426 903 456 921 q 356 886 397 886 z "},"B":{"ha":890,"x_min":33,"x_max":863,"o":"m 243 986 l 696 986 q 769 969 738 986 q 821 924 800 951 q 852 860 842 896 q 863 785 863 824 q 849 698 863 740 q 810 619 835 656 q 749 553 785 582 q 672 506 714 524 q 767 431 735 485 q 800 306 800 376 q 772 183 800 239 q 699 87 744 128 q 596 23 654 46 q 475 0 538 0 l 33 0 l 243 986 m 493 85 q 572 103 533 85 q 639 153 610 122 q 686 224 668 185 q 704 307 704 264 q 696 365 704 338 q 672 414 688 393 q 633 447 656 435 q 582 458 611 458 l 226 458 l 147 85 l 493 85 m 563 538 q 638 556 601 538 q 701 606 674 575 q 746 676 729 636 q 763 758 763 715 q 732 860 763 818 q 647 901 701 901 l 321 901 l 243 538 l 563 538 z "},"C":{"ha":911,"x_min":65,"x_max":929,"o":"m 408 -8 q 263 27 326 -8 q 155 121 199 63 q 88 254 111 179 q 65 408 65 329 q 108 613 65 510 q 225 801 150 717 q 403 938 300 885 q 628 992 506 992 q 830 932 754 992 q 929 776 906 872 l 842 729 q 805 811 829 778 q 749 865 781 844 q 679 895 717 886 q 604 904 642 904 q 426 859 507 904 q 286 742 344 814 q 195 583 228 671 q 163 413 163 496 q 181 284 163 344 q 235 178 200 224 q 319 106 269 132 q 432 79 369 79 q 515 90 471 79 q 601 123 558 100 q 685 180 644 146 q 757 263 725 214 l 829 221 q 745 123 794 165 q 639 51 696 81 q 522 7 582 22 q 408 -8 463 -8 z "},"\r":{"ha":0,"x_min":0,"x_max":0,"o":""},"Ć":{"ha":911,"x_min":65,"x_max":929,"o":"m 656 1121 l 597 1144 l 703 1274 l 801 1274 l 656 1121 m 408 -8 q 263 27 326 -8 q 155 121 199 63 q 88 254 111 179 q 65 408 65 329 q 108 613 65 510 q 225 801 150 717 q 403 938 300 885 q 628 992 506 992 q 830 932 754 992 q 929 776 906 872 l 842 729 q 805 811 829 778 q 749 865 781 844 q 679 895 717 886 q 604 904 642 904 q 426 859 507 904 q 286 742 344 814 q 195 583 228 671 q 163 413 163 496 q 181 284 163 344 q 235 178 200 224 q 319 106 269 132 q 432 79 369 79 q 515 90 471 79 q 601 123 558 100 q 685 180 644 146 q 757 263 725 214 l 829 221 q 745 123 794 165 q 639 51 696 81 q 522 7 582 22 q 408 -8 463 -8 z "},"Č":{"ha":911,"x_min":65,"x_max":929,"o":"m 522 1246 l 582 1274 l 675 1186 l 806 1274 l 853 1246 l 697 1126 l 628 1126 l 522 1246 m 408 -8 q 263 27 326 -8 q 155 121 199 63 q 88 254 111 179 q 65 408 65 329 q 108 613 65 510 q 225 801 150 717 q 403 938 300 885 q 628 992 506 992 q 830 932 754 992 q 929 776 906 872 l 842 729 q 805 811 829 778 q 749 865 781 844 q 679 895 717 886 q 604 904 642 904 q 426 859 507 904 q 286 742 344 814 q 195 583 228 671 q 163 413 163 496 q 181 284 163 344 q 235 178 200 224 q 319 106 269 132 q 432 79 369 79 q 515 90 471 79 q 601 123 558 100 q 685 180 644 146 q 757 263 725 214 l 829 221 q 745 123 794 165 q 639 51 696 81 q 522 7 582 22 q 408 -8 463 -8 z "},"ˇ":{"ha":439,"x_min":93,"x_max":424,"o":"m 93 986 l 153 1014 l 246 926 l 376 1014 l 424 986 l 268 867 l 199 867 l 93 986 z "},"Ç":{"ha":906,"x_min":60,"x_max":924,"o":"m 254 -175 q 299 -192 269 -185 q 364 -200 329 -200 q 453 -140 453 -200 q 437 -110 453 -118 q 396 -101 421 -101 q 336 -108 368 -101 q 285 -121 304 -114 l 367 -6 q 236 39 293 1 q 140 133 179 76 q 80 262 100 190 q 60 408 60 333 q 102 613 60 510 q 219 801 144 717 q 397 938 294 885 q 622 992 500 992 q 824 932 749 992 q 924 776 900 872 l 836 729 q 799 811 824 778 q 743 865 775 844 q 674 895 711 886 q 599 904 636 904 q 420 859 501 904 q 281 742 339 814 q 190 583 222 671 q 157 413 157 496 q 176 284 157 344 q 229 178 194 224 q 314 106 264 132 q 426 79 364 79 q 509 90 465 79 q 596 123 553 100 q 679 180 639 146 q 751 263 719 214 l 824 221 q 743 126 790 168 q 642 56 696 85 q 530 10 588 26 q 419 -7 472 -6 l 369 -71 q 396 -64 382 -65 q 421 -62 410 -62 q 483 -80 461 -62 q 506 -131 506 -97 q 465 -214 506 -183 q 346 -244 424 -244 q 276 -237 308 -244 q 221 -218 244 -229 l 254 -175 z "},"¸":{"ha":375,"x_min":-18,"x_max":267,"o":"m 15 -175 q 60 -192 31 -185 q 125 -200 90 -200 q 214 -140 214 -200 q 198 -110 214 -118 q 157 -101 182 -101 q 97 -108 129 -101 q 46 -121 65 -114 l 151 25 l 193 7 l 131 -71 q 157 -64 143 -65 q 182 -62 171 -62 q 244 -80 222 -62 q 267 -131 267 -97 q 226 -214 267 -183 q 107 -244 185 -244 q 38 -237 69 -244 q -18 -218 6 -229 l 15 -175 z "},"Ĉ":{"ha":911,"x_min":65,"x_max":929,"o":"m 510 1156 l 667 1274 l 736 1274 l 840 1156 l 782 1126 l 688 1214 l 557 1126 l 510 1156 m 408 -8 q 263 27 326 -8 q 155 121 199 63 q 88 254 111 179 q 65 408 65 329 q 108 613 65 510 q 225 801 150 717 q 403 938 300 885 q 628 992 506 992 q 830 932 754 992 q 929 776 906 872 l 842 729 q 805 811 829 778 q 749 865 781 844 q 679 895 717 886 q 604 904 642 904 q 426 859 507 904 q 286 742 344 814 q 195 583 228 671 q 163 413 163 496 q 181 284 163 344 q 235 178 200 224 q 319 106 269 132 q 432 79 369 79 q 515 90 471 79 q 601 123 558 100 q 685 180 644 146 q 757 263 725 214 l 829 221 q 745 123 794 165 q 639 51 696 81 q 522 7 582 22 q 408 -8 463 -8 z "},"Ċ":{"ha":911,"x_min":65,"x_max":929,"o":"m 408 -8 q 263 27 326 -8 q 155 121 199 63 q 88 254 111 179 q 65 408 65 329 q 108 613 65 510 q 225 801 150 717 q 403 938 300 885 q 628 992 506 992 q 830 932 754 992 q 929 776 906 872 l 842 729 q 805 811 829 778 q 749 865 781 844 q 679 895 717 886 q 604 904 642 904 q 426 859 507 904 q 286 742 344 814 q 195 583 228 671 q 163 413 163 496 q 181 284 163 344 q 235 178 200 224 q 319 106 269 132 q 432 79 369 79 q 515 90 471 79 q 601 123 558 100 q 685 180 644 146 q 757 263 725 214 l 829 221 q 745 123 794 165 q 639 51 696 81 q 522 7 582 22 q 408 -8 463 -8 m 628 1139 l 657 1274 l 743 1274 l 714 1139 l 628 1139 z "},"˙":{"ha":217,"x_min":71,"x_max":186,"o":"m 71 879 l 100 1014 l 186 1014 l 157 879 l 71 879 z "},"D":{"ha":958,"x_min":33,"x_max":922,"o":"m 243 986 l 563 986 q 722 957 654 986 q 835 876 790 928 q 901 756 879 825 q 922 608 922 688 q 879 366 922 478 q 760 173 836 254 q 579 46 683 92 q 353 0 475 0 l 33 0 l 243 986 m 371 86 q 559 128 475 86 q 701 240 643 169 q 791 401 760 310 q 822 593 822 493 q 805 717 822 660 q 752 814 788 774 q 665 877 717 854 q 543 900 613 900 l 321 900 l 147 86 l 371 86 z "},"Ď":{"ha":958,"x_min":33,"x_max":922,"o":"m 453 1246 l 513 1274 l 606 1186 l 736 1274 l 783 1246 l 628 1126 l 558 1126 l 453 1246 m 243 986 l 563 986 q 722 957 654 986 q 835 876 790 928 q 901 756 879 825 q 922 608 922 688 q 879 366 922 478 q 760 173 836 254 q 579 46 683 92 q 353 0 475 0 l 33 0 l 243 986 m 371 86 q 559 128 475 86 q 701 240 643 169 q 791 401 760 310 q 822 593 822 493 q 805 717 822 660 q 752 814 788 774 q 665 877 717 854 q 543 900 613 900 l 321 900 l 147 86 l 371 86 z "},"Đ":{"ha":968,"x_min":43,"x_max":932,"o":"m 76 533 l 156 533 l 253 986 l 572 986 q 732 957 664 986 q 844 876 800 928 q 910 756 889 825 q 932 608 932 688 q 889 366 932 478 q 769 173 846 254 q 589 46 693 92 q 363 0 485 0 l 43 0 l 140 458 l 60 458 l 76 533 m 381 86 q 569 128 485 86 q 711 240 653 169 q 801 401 769 310 q 832 593 832 493 q 815 717 832 660 q 762 814 797 774 q 674 877 726 854 q 553 900 622 900 l 331 900 l 251 533 l 475 533 l 460 458 l 236 458 l 157 86 l 381 86 z "},"E":{"ha":808,"x_min":33,"x_max":861,"o":"m 243 986 l 861 986 l 843 900 l 321 900 l 244 544 l 700 544 l 683 463 l 228 463 l 147 86 l 682 86 l 664 0 l 33 0 l 243 986 z "},"É":{"ha":808,"x_min":33,"x_max":861,"o":"m 586 1121 l 528 1144 l 633 1274 l 732 1274 l 586 1121 m 243 986 l 861 986 l 843 900 l 321 900 l 244 544 l 700 544 l 683 463 l 228 463 l 147 86 l 682 86 l 664 0 l 33 0 l 243 986 z "},"Ĕ":{"ha":808,"x_min":33,"x_max":861,"o":"m 243 986 l 861 986 l 843 900 l 321 900 l 244 544 l 700 544 l 683 463 l 228 463 l 147 86 l 682 86 l 664 0 l 33 0 l 243 986 m 583 1182 q 639 1208 611 1182 q 679 1274 667 1235 l 735 1274 q 713 1219 728 1244 q 676 1174 697 1193 q 628 1144 654 1156 q 574 1133 601 1133 q 496 1164 525 1133 q 467 1242 467 1194 q 471 1274 467 1257 l 529 1274 q 526 1253 526 1260 q 542 1203 526 1224 q 583 1182 558 1182 z "},"Ě":{"ha":808,"x_min":33,"x_max":861,"o":"m 435 1246 l 494 1274 l 588 1186 l 718 1274 l 765 1246 l 610 1126 l 540 1126 l 435 1246 m 243 986 l 861 986 l 843 900 l 321 900 l 244 544 l 700 544 l 683 463 l 228 463 l 147 86 l 682 86 l 664 0 l 33 0 l 243 986 z "},"Ê":{"ha":808,"x_min":33,"x_max":861,"o":"m 435 1156 l 592 1274 l 661 1274 l 765 1156 l 707 1126 l 613 1214 l 482 1126 l 435 1156 m 243 986 l 861 986 l 843 900 l 321 900 l 244 544 l 700 544 l 683 463 l 228 463 l 147 86 l 682 86 l 664 0 l 33 0 l 243 986 z "},"Ë":{"ha":808,"x_min":33,"x_max":861,"o":"m 444 1139 l 474 1269 l 554 1269 l 525 1139 l 444 1139 m 644 1139 l 672 1269 l 751 1269 l 725 1139 l 644 1139 m 243 986 l 861 986 l 843 900 l 321 900 l 244 544 l 700 544 l 683 463 l 228 463 l 147 86 l 682 86 l 664 0 l 33 0 l 243 986 z "},"Ė":{"ha":808,"x_min":33,"x_max":861,"o":"m 243 986 l 861 986 l 843 900 l 321 900 l 244 544 l 700 544 l 683 463 l 228 463 l 147 86 l 682 86 l 664 0 l 33 0 l 243 986 m 544 1139 l 574 1274 l 660 1274 l 631 1139 l 544 1139 z "},"È":{"ha":808,"x_min":33,"x_max":861,"o":"m 243 986 l 861 986 l 843 900 l 321 900 l 244 544 l 700 544 l 683 463 l 228 463 l 147 86 l 682 86 l 664 0 l 33 0 l 243 986 m 494 1274 l 592 1274 l 644 1144 l 576 1121 l 494 1274 z "},"Ē":{"ha":808,"x_min":33,"x_max":861,"o":"m 243 986 l 861 986 l 843 900 l 321 900 l 244 544 l 700 544 l 683 463 l 228 463 l 147 86 l 682 86 l 664 0 l 33 0 l 243 986 m 401 1179 l 415 1244 l 797 1244 l 783 1179 l 401 1179 z "},"Ŋ":{"ha":1022,"x_min":33,"x_max":1019,"o":"m 550 -251 q 471 -239 507 -251 q 411 -197 435 -226 l 471 -133 q 510 -160 486 -153 q 558 -167 533 -167 q 605 -157 581 -167 q 650 -130 629 -147 q 686 -89 671 -112 q 707 -37 701 -65 l 718 13 l 300 804 l 129 0 l 33 0 l 243 986 l 317 986 l 749 169 l 922 985 l 1019 985 l 803 -35 q 766 -123 792 -83 q 705 -191 740 -162 q 629 -235 669 -219 q 550 -251 589 -251 z "},"Ę":{"ha":808,"x_min":33,"x_max":861,"o":"m 243 986 l 861 986 l 843 900 l 321 900 l 244 544 l 700 544 l 683 463 l 228 463 l 147 86 l 682 86 l 664 0 l 392 0 q 285 -76 315 -44 q 254 -140 254 -108 q 313 -190 254 -182 l 276 -243 q 214 -211 235 -233 q 193 -158 193 -189 q 224 -82 193 -119 q 325 0 256 -44 l 33 0 l 243 986 z "},"Ð":{"ha":968,"x_min":43,"x_max":932,"o":"m 76 533 l 156 533 l 253 986 l 572 986 q 732 957 664 986 q 844 876 800 928 q 910 756 889 825 q 932 608 932 688 q 889 366 932 478 q 769 173 846 254 q 589 46 693 92 q 363 0 485 0 l 43 0 l 140 458 l 60 458 l 76 533 m 381 86 q 569 128 485 86 q 711 240 653 169 q 801 401 769 310 q 832 593 832 493 q 815 717 832 660 q 762 814 797 774 q 674 877 726 854 q 553 900 622 900 l 331 900 l 251 533 l 475 533 l 460 458 l 236 458 l 157 86 l 381 86 z "},"Ẽ":{"ha":808,"x_min":33,"x_max":861,"o":"m 243 986 l 861 986 l 843 900 l 321 900 l 244 544 l 700 544 l 683 463 l 228 463 l 147 86 l 682 86 l 664 0 l 33 0 l 243 986 m 658 1146 q 609 1154 629 1146 q 572 1173 589 1163 q 539 1192 556 1183 q 501 1201 522 1201 q 465 1192 481 1201 q 441 1170 450 1182 q 427 1148 432 1158 q 422 1135 422 1138 l 364 1135 q 375 1163 365 1142 q 403 1207 385 1185 q 449 1247 421 1229 q 514 1264 476 1264 q 560 1255 542 1264 q 596 1235 579 1246 q 629 1215 613 1224 q 671 1206 646 1206 q 713 1215 696 1206 q 740 1238 731 1225 q 755 1260 750 1250 q 760 1274 760 1271 l 818 1274 q 807 1246 817 1267 q 778 1203 797 1225 q 729 1163 758 1181 q 658 1146 700 1146 z "},"€":{"ha":1060,"x_min":36,"x_max":1050,"o":"m 215 578 q 292 733 242 658 q 412 865 343 808 q 566 957 481 922 q 749 992 651 992 q 951 932 875 992 q 1050 776 1026 872 l 963 729 q 926 811 950 778 q 869 865 901 844 q 800 895 838 886 q 725 904 763 904 q 587 877 651 904 q 469 806 522 850 q 377 701 417 761 q 314 578 338 642 l 760 578 l 722 518 l 296 518 q 283 432 286 475 l 681 432 l 643 372 l 285 372 q 311 258 290 311 q 366 165 332 204 q 447 102 400 125 q 553 79 494 79 q 635 90 592 79 q 722 123 679 100 q 806 180 765 146 q 879 263 846 214 l 950 221 q 866 123 915 165 q 760 51 817 81 q 643 7 703 22 q 529 -8 583 -8 q 390 23 451 -8 q 285 107 329 54 q 217 228 242 160 q 188 372 192 297 l 36 372 l 75 432 l 186 432 q 199 518 189 475 l 104 518 l 142 578 l 215 578 z "},"F":{"ha":794,"x_min":33,"x_max":857,"o":"m 243 986 l 857 986 l 839 900 l 321 900 l 244 538 l 682 538 l 664 457 l 226 457 l 129 0 l 33 0 l 243 986 z "},"G":{"ha":954,"x_min":65,"x_max":931,"o":"m 739 143 q 410 -7 579 -7 q 265 27 329 -7 q 157 119 201 61 q 89 251 113 176 q 65 406 65 325 q 111 622 65 517 q 234 810 157 728 q 410 943 311 893 q 618 993 510 993 q 739 977 686 993 q 831 933 792 961 q 894 865 869 904 q 931 778 918 825 l 844 728 q 755 863 819 819 q 597 906 690 906 q 429 862 508 906 q 291 747 350 818 q 197 588 232 676 q 163 411 163 500 q 182 283 163 343 q 237 178 201 224 q 322 107 272 133 q 435 81 372 81 q 594 120 514 81 q 760 244 675 160 l 796 410 l 590 410 l 606 485 l 894 485 l 792 0 l 708 0 l 739 143 z "},"Ğ":{"ha":954,"x_min":65,"x_max":931,"o":"m 739 143 q 410 -7 579 -7 q 265 27 329 -7 q 157 119 201 61 q 89 251 113 176 q 65 406 65 325 q 111 622 65 517 q 234 810 157 728 q 410 943 311 893 q 618 993 510 993 q 739 977 686 993 q 831 933 792 961 q 894 865 869 904 q 931 778 918 825 l 844 728 q 755 863 819 819 q 597 906 690 906 q 429 862 508 906 q 291 747 350 818 q 197 588 232 676 q 163 411 163 500 q 182 283 163 343 q 237 178 201 224 q 322 107 272 133 q 435 81 372 81 q 594 120 514 81 q 760 244 675 160 l 796 410 l 590 410 l 606 485 l 894 485 l 792 0 l 708 0 l 739 143 m 649 1182 q 704 1208 676 1182 q 744 1274 732 1235 l 800 1274 q 778 1219 793 1244 q 741 1174 763 1193 q 693 1144 719 1156 q 639 1133 667 1133 q 561 1164 590 1133 q 532 1242 532 1194 q 536 1274 532 1257 l 594 1274 q 592 1253 592 1260 q 608 1203 592 1224 q 649 1182 624 1182 z "},"Ĝ":{"ha":954,"x_min":65,"x_max":931,"o":"m 488 1156 l 644 1274 l 714 1274 l 818 1156 l 760 1126 l 665 1214 l 535 1126 l 488 1156 m 739 143 q 410 -7 579 -7 q 265 27 329 -7 q 157 119 201 61 q 89 251 113 176 q 65 406 65 325 q 111 622 65 517 q 234 810 157 728 q 410 943 311 893 q 618 993 510 993 q 739 977 686 993 q 831 933 792 961 q 894 865 869 904 q 931 778 918 825 l 844 728 q 755 863 819 819 q 597 906 690 906 q 429 862 508 906 q 291 747 350 818 q 197 588 232 676 q 163 411 163 500 q 182 283 163 343 q 237 178 201 224 q 322 107 272 133 q 435 81 372 81 q 594 120 514 81 q 760 244 675 160 l 796 410 l 590 410 l 606 485 l 894 485 l 792 0 l 708 0 l 739 143 z "},"Ģ":{"ha":954,"x_min":65,"x_max":931,"o":"m 313 -276 l 357 -174 l 329 -174 l 353 -68 l 438 -68 l 415 -174 l 360 -276 l 313 -276 m 739 143 q 410 -7 579 -7 q 265 27 329 -7 q 157 119 201 61 q 89 251 113 176 q 65 406 65 325 q 111 622 65 517 q 234 810 157 728 q 410 943 311 893 q 618 993 510 993 q 739 977 686 993 q 831 933 792 961 q 894 865 869 904 q 931 778 918 825 l 844 728 q 755 863 819 819 q 597 906 690 906 q 429 862 508 906 q 291 747 350 818 q 197 588 232 676 q 163 411 163 500 q 182 283 163 343 q 237 178 201 224 q 322 107 272 133 q 435 81 372 81 q 594 120 514 81 q 760 244 675 160 l 796 410 l 590 410 l 606 485 l 894 485 l 792 0 l 708 0 l 739 143 z "},"":{"ha":207,"x_min":22,"x_max":147,"o":"m 22 -276 l 67 -174 l 39 -174 l 63 -68 l 147 -68 l 125 -174 l 69 -276 l 22 -276 z "},"Ġ":{"ha":954,"x_min":65,"x_max":931,"o":"m 739 143 q 410 -7 579 -7 q 265 27 329 -7 q 157 119 201 61 q 89 251 113 176 q 65 406 65 325 q 111 622 65 517 q 234 810 157 728 q 410 943 311 893 q 618 993 510 993 q 739 977 686 993 q 831 933 792 961 q 894 865 869 904 q 931 778 918 825 l 844 728 q 755 863 819 819 q 597 906 690 906 q 429 862 508 906 q 291 747 350 818 q 197 588 232 676 q 163 411 163 500 q 182 283 163 343 q 237 178 201 224 q 322 107 272 133 q 435 81 372 81 q 594 120 514 81 q 760 244 675 160 l 796 410 l 590 410 l 606 485 l 894 485 l 792 0 l 708 0 l 739 143 m 611 1139 l 640 1274 l 726 1274 l 697 1139 l 611 1139 z "},"H":{"ha":985,"x_min":33,"x_max":985,"o":"m 243 986 l 339 986 l 246 547 l 794 547 l 888 986 l 985 986 l 775 0 l 678 0 l 776 461 l 228 461 l 129 0 l 33 0 l 243 986 z "},"Ħ":{"ha":999,"x_min":40,"x_max":1022,"o":"m 149 818 l 214 818 l 250 986 l 347 986 l 311 818 l 860 818 l 896 986 l 992 986 l 956 818 l 1022 818 l 1010 764 l 944 764 l 782 0 l 686 0 l 783 461 l 235 461 l 138 0 l 40 0 l 203 764 l 138 764 l 149 818 m 803 547 l 849 764 l 300 764 l 254 547 l 803 547 z "},"Ĥ":{"ha":985,"x_min":33,"x_max":985,"o":"m 481 1156 l 638 1274 l 707 1274 l 811 1156 l 753 1126 l 658 1214 l 528 1126 l 481 1156 m 243 986 l 339 986 l 246 547 l 794 547 l 888 986 l 985 986 l 775 0 l 678 0 l 776 461 l 228 461 l 129 0 l 33 0 l 243 986 z "},"I":{"ha":340,"x_min":33,"x_max":339,"o":"m 243 985 l 339 985 l 129 0 l 33 0 l 243 985 z "},"Ĳ":{"ha":990,"x_min":33,"x_max":1001,"o":"m 243 985 l 339 985 l 129 0 l 33 0 l 243 985 m 479 -15 q 289 46 361 -15 l 332 124 q 398 88 356 103 q 497 72 440 72 q 616 99 568 72 q 697 179 664 126 q 753 309 731 232 q 797 485 776 386 l 904 985 l 1001 985 l 894 485 q 842 280 871 372 q 766 122 813 188 q 651 21 719 57 q 479 -15 582 -15 z "},"J":{"ha":650,"x_min":-51,"x_max":661,"o":"m 139 -15 q -51 46 21 -15 l -8 124 q 58 88 15 103 q 157 72 100 72 q 276 99 228 72 q 357 179 324 126 q 413 309 390 232 q 457 485 436 386 l 564 985 l 661 985 l 554 485 q 501 280 531 372 q 426 122 472 188 q 310 21 379 57 q 139 -15 242 -15 z "},"Í":{"ha":340,"x_min":33,"x_max":456,"o":"m 243 985 l 339 985 l 129 0 l 33 0 l 243 985 m 310 1121 l 251 1144 l 357 1274 l 456 1274 l 310 1121 z "},"Ĭ":{"ha":340,"x_min":33,"x_max":467,"o":"m 243 985 l 339 985 l 129 0 l 33 0 l 243 985 m 315 1182 q 371 1208 343 1182 q 411 1274 399 1235 l 467 1274 q 444 1219 460 1244 q 408 1174 429 1193 q 360 1144 386 1156 q 306 1133 333 1133 q 228 1164 257 1133 q 199 1242 199 1194 q 203 1274 199 1257 l 261 1274 q 258 1253 258 1260 q 274 1203 258 1224 q 315 1182 290 1182 z "},"Î":{"ha":340,"x_min":33,"x_max":490,"o":"m 243 985 l 339 985 l 129 0 l 33 0 l 243 985 m 160 1156 l 317 1274 l 386 1274 l 490 1156 l 432 1126 l 338 1214 l 207 1126 l 160 1156 z "},"Ï":{"ha":340,"x_min":33,"x_max":488,"o":"m 243 985 l 339 985 l 129 0 l 33 0 l 243 985 m 181 1139 l 210 1269 l 290 1269 l 261 1139 l 181 1139 m 381 1139 l 408 1269 l 488 1269 l 461 1139 l 381 1139 z "},"İ":{"ha":340,"x_min":33,"x_max":393,"o":"m 243 985 l 339 985 l 129 0 l 33 0 l 243 985 m 278 1139 l 307 1274 l 393 1274 l 364 1139 l 278 1139 z "},"Ì":{"ha":340,"x_min":33,"x_max":376,"o":"m 243 985 l 339 985 l 129 0 l 33 0 l 243 985 m 226 1274 l 324 1274 l 376 1144 l 308 1121 l 226 1274 z "},"Ī":{"ha":340,"x_min":33,"x_max":536,"o":"m 243 985 l 339 985 l 129 0 l 33 0 l 243 985 m 140 1179 l 154 1244 l 536 1244 l 522 1179 l 140 1179 z "},"Į":{"ha":340,"x_min":-69,"x_max":339,"o":"m 243 985 l 339 985 l 129 0 q 22 -76 53 -44 q -8 -140 -8 -108 q 50 -190 -8 -182 l 14 -243 q -49 -211 -28 -233 q -69 -158 -69 -189 q -38 -82 -69 -119 q 63 0 -7 -44 l 33 0 l 243 985 z "},"Ĩ":{"ha":340,"x_min":33,"x_max":564,"o":"m 243 985 l 339 985 l 129 0 l 33 0 l 243 985 m 404 1146 q 355 1154 375 1146 q 318 1173 335 1163 q 285 1192 301 1183 q 247 1201 268 1201 q 211 1192 226 1201 q 187 1170 196 1182 q 173 1148 178 1158 q 168 1135 168 1138 l 110 1135 q 121 1163 111 1142 q 149 1207 131 1185 q 194 1247 167 1229 q 260 1264 222 1264 q 306 1255 288 1264 q 342 1235 325 1246 q 375 1215 358 1224 q 417 1206 392 1206 q 459 1215 442 1206 q 486 1238 476 1225 q 501 1260 496 1250 q 506 1274 506 1271 l 564 1274 q 553 1246 563 1267 q 524 1203 543 1225 q 475 1163 504 1181 q 404 1146 446 1146 z "},"Ĵ":{"ha":650,"x_min":-51,"x_max":810,"o":"m 479 1156 l 636 1274 l 706 1274 l 810 1156 l 751 1126 l 657 1214 l 526 1126 l 479 1156 m 139 -15 q -51 46 21 -15 l -8 124 q 58 88 15 103 q 157 72 100 72 q 276 99 228 72 q 357 179 324 126 q 413 309 390 232 q 457 485 436 386 l 564 985 l 661 985 l 554 485 q 501 280 531 372 q 426 122 472 188 q 310 21 379 57 q 139 -15 242 -15 z "},"K":{"ha":854,"x_min":33,"x_max":957,"o":"m 243 985 l 339 985 l 217 413 l 849 986 l 957 986 l 482 553 l 767 0 l 658 0 l 410 496 l 194 303 l 129 0 l 33 0 l 243 985 z "},"Ķ":{"ha":854,"x_min":33,"x_max":957,"o":"m 271 -276 l 315 -174 l 288 -174 l 311 -68 l 396 -68 l 374 -174 l 318 -276 l 271 -276 m 243 985 l 339 985 l 217 413 l 849 986 l 957 986 l 482 553 l 767 0 l 658 0 l 410 496 l 194 303 l 129 0 l 33 0 l 243 985 z "},"L":{"ha":774,"x_min":33,"x_max":686,"o":"m 243 986 l 339 986 l 147 86 l 686 86 l 668 0 l 33 0 l 243 986 z "},"Ĺ":{"ha":774,"x_min":33,"x_max":686,"o":"m 326 1121 l 268 1144 l 374 1274 l 472 1274 l 326 1121 m 243 986 l 339 986 l 147 86 l 686 86 l 668 0 l 33 0 l 243 986 z "},"Ľ":{"ha":774,"x_min":33,"x_max":686,"o":"m 414 885 l 519 1014 l 619 1014 l 472 861 l 414 885 m 243 986 l 339 986 l 147 86 l 686 86 l 668 0 l 33 0 l 243 986 z "},"Ļ":{"ha":774,"x_min":33,"x_max":686,"o":"m 257 -276 l 301 -174 l 274 -174 l 297 -68 l 382 -68 l 360 -174 l 304 -276 l 257 -276 m 243 986 l 339 986 l 147 86 l 686 86 l 668 0 l 33 0 l 243 986 z "},"Ŀ":{"ha":774,"x_min":33,"x_max":686,"o":"m 243 986 l 339 986 l 147 86 l 686 86 l 668 0 l 33 0 l 243 986 m 457 483 l 489 639 l 569 639 l 538 483 l 457 483 z "},"·":{"ha":258,"x_min":72,"x_max":185,"o":"m 72 342 l 104 497 l 185 497 l 153 342 l 72 342 z "},"Ł":{"ha":783,"x_min":17,"x_max":696,"o":"m 17 374 l 142 465 l 253 986 l 350 986 l 257 550 l 496 725 l 514 671 l 240 469 l 158 86 l 696 86 l 678 0 l 43 0 l 125 385 l 35 318 l 17 374 z "},"M":{"ha":1167,"x_min":33,"x_max":1167,"o":"m 243 986 l 343 986 l 561 311 l 1067 986 l 1167 986 l 957 0 l 860 0 l 1032 810 l 563 183 l 506 183 l 303 810 l 129 0 l 33 0 l 243 986 z "},"N":{"ha":1028,"x_min":33,"x_max":1026,"o":"m 243 986 l 318 986 l 757 165 l 931 985 l 1026 985 l 817 0 l 735 0 l 300 806 l 129 0 l 33 0 l 243 986 z "},"\u0000":{"ha":0,"x_min":0,"x_max":0,"o":""},"Ń":{"ha":1028,"x_min":33,"x_max":1026,"o":"m 667 1121 l 608 1144 l 714 1274 l 813 1274 l 667 1121 m 243 986 l 318 986 l 757 165 l 931 985 l 1026 985 l 817 0 l 735 0 l 300 806 l 129 0 l 33 0 l 243 986 z "},"Ň":{"ha":1028,"x_min":33,"x_max":1026,"o":"m 517 1246 l 576 1274 l 669 1186 l 800 1274 l 847 1246 l 692 1126 l 622 1126 l 517 1246 m 243 986 l 318 986 l 757 165 l 931 985 l 1026 985 l 817 0 l 735 0 l 300 806 l 129 0 l 33 0 l 243 986 z "},"Ņ":{"ha":1028,"x_min":33,"x_max":1026,"o":"m 332 -276 l 376 -174 l 349 -174 l 372 -68 l 457 -68 l 435 -174 l 379 -276 l 332 -276 m 243 986 l 318 986 l 757 165 l 931 985 l 1026 985 l 817 0 l 735 0 l 300 806 l 129 0 l 33 0 l 243 986 z "},"Ṅ":{"ha":1028,"x_min":33,"x_max":1026,"o":"m 625 1139 l 654 1274 l 740 1274 l 711 1139 l 625 1139 m 243 986 l 318 986 l 757 165 l 931 985 l 1026 985 l 817 0 l 735 0 l 300 806 l 129 0 l 33 0 l 243 986 z "},"Ñ":{"ha":1028,"x_min":33,"x_max":1026,"o":"m 243 986 l 318 986 l 757 165 l 931 985 l 1026 985 l 817 0 l 735 0 l 300 806 l 129 0 l 33 0 l 243 986 m 753 1146 q 703 1154 724 1146 q 667 1173 683 1163 q 633 1192 650 1183 q 596 1201 617 1201 q 560 1192 575 1201 q 535 1170 544 1182 q 522 1148 526 1158 q 517 1135 517 1138 l 458 1135 q 469 1163 460 1142 q 497 1207 479 1185 q 543 1247 515 1229 q 608 1264 571 1264 q 655 1255 636 1264 q 690 1235 674 1246 q 724 1215 707 1224 q 765 1206 740 1206 q 808 1215 790 1206 q 835 1238 825 1225 q 849 1260 844 1250 q 854 1274 854 1271 l 913 1274 q 901 1246 911 1267 q 872 1203 892 1225 q 824 1163 853 1181 q 753 1146 794 1146 z "},"O":{"ha":1003,"x_min":64,"x_max":969,"o":"m 411 -7 q 263 27 328 -7 q 154 117 199 61 q 87 247 110 174 q 64 400 64 321 q 111 619 64 513 q 237 810 158 726 q 416 943 315 893 q 625 993 517 993 q 772 958 708 993 q 880 867 836 924 q 947 736 924 810 q 969 583 969 663 q 923 365 969 471 q 799 176 876 258 q 620 43 721 93 q 411 -7 519 -7 m 431 81 q 602 125 522 81 q 742 241 682 169 q 838 401 803 313 q 872 576 872 489 q 854 701 872 642 q 802 806 836 761 q 718 878 768 851 q 606 904 668 904 q 433 860 514 904 q 292 744 353 815 q 197 585 232 674 q 163 408 163 497 q 180 283 163 343 q 232 178 197 224 q 316 107 267 133 q 431 81 365 81 z "},"Œ":{"ha":1525,"x_min":64,"x_max":1579,"o":"m 413 -7 q 264 27 329 -7 q 154 117 199 61 q 87 247 110 174 q 64 400 64 321 q 111 619 64 513 q 237 810 158 726 q 416 943 315 893 q 625 993 517 993 q 733 973 685 993 q 819 918 782 953 q 879 836 856 883 q 914 736 903 789 l 967 986 l 1579 986 l 1560 900 l 1044 900 l 971 546 l 1414 546 l 1394 460 l 951 460 l 872 86 l 1399 86 l 1381 0 l 757 0 l 811 250 q 732 149 776 196 q 635 67 688 101 q 527 13 583 32 q 413 -7 471 -7 m 429 81 q 601 125 521 81 q 741 241 681 169 q 836 401 801 313 q 871 576 871 489 q 853 701 871 642 q 801 806 835 761 q 717 878 767 851 q 606 906 668 906 q 433 861 514 906 q 292 746 353 817 q 197 586 232 675 q 163 408 163 497 q 180 283 163 343 q 231 178 197 224 q 315 107 265 133 q 429 81 365 81 z "},"Ó":{"ha":1003,"x_min":64,"x_max":969,"o":"m 654 1121 l 596 1144 l 701 1274 l 800 1274 l 654 1121 m 411 -7 q 263 27 328 -7 q 154 117 199 61 q 87 247 110 174 q 64 400 64 321 q 111 619 64 513 q 237 810 158 726 q 416 943 315 893 q 625 993 517 993 q 772 958 708 993 q 880 867 836 924 q 947 736 924 810 q 969 583 969 663 q 923 365 969 471 q 799 176 876 258 q 620 43 721 93 q 411 -7 519 -7 m 431 81 q 602 125 522 81 q 742 241 682 169 q 838 401 803 313 q 872 576 872 489 q 854 701 872 642 q 802 806 836 761 q 718 878 768 851 q 606 904 668 904 q 433 860 514 904 q 292 744 353 815 q 197 585 232 674 q 163 408 163 497 q 180 283 163 343 q 232 178 197 224 q 316 107 267 133 q 431 81 365 81 z "},"Ŏ":{"ha":1003,"x_min":64,"x_max":969,"o":"m 411 -7 q 263 27 328 -7 q 154 117 199 61 q 87 247 110 174 q 64 400 64 321 q 111 619 64 513 q 237 810 158 726 q 416 943 315 893 q 625 993 517 993 q 772 958 708 993 q 880 867 836 924 q 947 736 924 810 q 969 583 969 663 q 923 365 969 471 q 799 176 876 258 q 620 43 721 93 q 411 -7 519 -7 m 431 81 q 602 125 522 81 q 742 241 682 169 q 838 401 803 313 q 872 576 872 489 q 854 701 872 642 q 802 806 836 761 q 718 878 768 851 q 606 904 668 904 q 433 860 514 904 q 292 744 353 815 q 197 585 232 674 q 163 408 163 497 q 180 283 163 343 q 232 178 197 224 q 316 107 267 133 q 431 81 365 81 m 656 1182 q 711 1208 683 1182 q 751 1274 739 1235 l 807 1274 q 785 1219 800 1244 q 748 1174 769 1193 q 700 1144 726 1156 q 646 1133 674 1133 q 568 1164 597 1133 q 539 1242 539 1194 q 543 1274 539 1257 l 601 1274 q 599 1253 599 1260 q 615 1203 599 1224 q 656 1182 631 1182 z "},"Ô":{"ha":1003,"x_min":64,"x_max":969,"o":"m 503 1156 l 660 1274 l 729 1274 l 833 1156 l 775 1126 l 681 1214 l 550 1126 l 503 1156 m 411 -7 q 263 27 328 -7 q 154 117 199 61 q 87 247 110 174 q 64 400 64 321 q 111 619 64 513 q 237 810 158 726 q 416 943 315 893 q 625 993 517 993 q 772 958 708 993 q 880 867 836 924 q 947 736 924 810 q 969 583 969 663 q 923 365 969 471 q 799 176 876 258 q 620 43 721 93 q 411 -7 519 -7 m 431 81 q 602 125 522 81 q 742 241 682 169 q 838 401 803 313 q 872 576 872 489 q 854 701 872 642 q 802 806 836 761 q 718 878 768 851 q 606 904 668 904 q 433 860 514 904 q 292 744 353 815 q 197 585 232 674 q 163 408 163 497 q 180 283 163 343 q 232 178 197 224 q 316 107 267 133 q 431 81 365 81 z "},"Ö":{"ha":1003,"x_min":64,"x_max":969,"o":"m 517 1139 l 546 1269 l 626 1269 l 597 1139 l 517 1139 m 717 1139 l 744 1269 l 824 1269 l 797 1139 l 717 1139 m 411 -7 q 263 27 328 -7 q 154 117 199 61 q 87 247 110 174 q 64 400 64 321 q 111 619 64 513 q 237 810 158 726 q 416 943 315 893 q 625 993 517 993 q 772 958 708 993 q 880 867 836 924 q 947 736 924 810 q 969 583 969 663 q 923 365 969 471 q 799 176 876 258 q 620 43 721 93 q 411 -7 519 -7 m 431 81 q 602 125 522 81 q 742 241 682 169 q 838 401 803 313 q 872 576 872 489 q 854 701 872 642 q 802 806 836 761 q 718 878 768 851 q 606 904 668 904 q 433 860 514 904 q 292 744 353 815 q 197 585 232 674 q 163 408 163 497 q 180 283 163 343 q 232 178 197 224 q 316 107 267 133 q 431 81 365 81 z "},"Ò":{"ha":1003,"x_min":64,"x_max":969,"o":"m 411 -7 q 263 27 328 -7 q 154 117 199 61 q 87 247 110 174 q 64 400 64 321 q 111 619 64 513 q 237 810 158 726 q 416 943 315 893 q 625 993 517 993 q 772 958 708 993 q 880 867 836 924 q 947 736 924 810 q 969 583 969 663 q 923 365 969 471 q 799 176 876 258 q 620 43 721 93 q 411 -7 519 -7 m 431 81 q 602 125 522 81 q 742 241 682 169 q 838 401 803 313 q 872 576 872 489 q 854 701 872 642 q 802 806 836 761 q 718 878 768 851 q 606 904 668 904 q 433 860 514 904 q 292 744 353 815 q 197 585 232 674 q 163 408 163 497 q 180 283 163 343 q 232 178 197 224 q 316 107 267 133 q 431 81 365 81 m 586 1274 l 683 1274 l 736 1144 l 668 1121 l 586 1274 z "},"Ő":{"ha":1003,"x_min":64,"x_max":969,"o":"m 563 1121 l 517 1144 l 618 1274 l 706 1274 l 563 1121 m 731 1121 l 686 1144 l 788 1274 l 874 1274 l 731 1121 m 411 -7 q 263 27 328 -7 q 154 117 199 61 q 87 247 110 174 q 64 400 64 321 q 111 619 64 513 q 237 810 158 726 q 416 943 315 893 q 625 993 517 993 q 772 958 708 993 q 880 867 836 924 q 947 736 924 810 q 969 583 969 663 q 923 365 969 471 q 799 176 876 258 q 620 43 721 93 q 411 -7 519 -7 m 431 81 q 602 125 522 81 q 742 241 682 169 q 838 401 803 313 q 872 576 872 489 q 854 701 872 642 q 802 806 836 761 q 718 878 768 851 q 606 904 668 904 q 433 860 514 904 q 292 744 353 815 q 197 585 232 674 q 163 408 163 497 q 180 283 163 343 q 232 178 197 224 q 316 107 267 133 q 431 81 365 81 z "},"˝":{"ha":433,"x_min":58,"x_max":415,"o":"m 104 861 l 58 885 l 160 1014 l 247 1014 l 104 861 m 272 861 l 228 885 l 329 1014 l 415 1014 l 272 861 z "},"Ō":{"ha":1003,"x_min":64,"x_max":969,"o":"m 476 1179 l 490 1244 l 872 1244 l 858 1179 l 476 1179 m 411 -7 q 263 27 328 -7 q 154 117 199 61 q 87 247 110 174 q 64 400 64 321 q 111 619 64 513 q 237 810 158 726 q 416 943 315 893 q 625 993 517 993 q 772 958 708 993 q 880 867 836 924 q 947 736 924 810 q 969 583 969 663 q 923 365 969 471 q 799 176 876 258 q 620 43 721 93 q 411 -7 519 -7 m 431 81 q 602 125 522 81 q 742 241 682 169 q 838 401 803 313 q 872 576 872 489 q 854 701 872 642 q 802 806 836 761 q 718 878 768 851 q 606 904 668 904 q 433 860 514 904 q 292 744 353 815 q 197 585 232 674 q 163 408 163 497 q 180 283 163 343 q 232 178 197 224 q 316 107 267 133 q 431 81 365 81 z "},"Ǫ":{"ha":1003,"x_min":64,"x_max":969,"o":"m 328 -244 q 265 -212 286 -235 q 244 -160 244 -190 q 275 -84 244 -121 q 372 -4 306 -47 q 240 40 297 4 q 144 131 183 75 q 84 256 104 186 q 64 400 64 325 q 111 619 64 513 q 237 810 158 726 q 416 943 315 893 q 625 993 517 993 q 772 958 708 993 q 880 867 836 924 q 947 736 924 810 q 969 583 969 663 q 925 371 969 475 q 806 185 881 267 q 635 51 732 103 q 435 -6 539 0 q 334 -79 363 -49 q 306 -142 306 -110 q 364 -192 306 -183 l 328 -244 m 431 81 q 602 125 522 81 q 742 241 682 169 q 838 401 803 313 q 872 576 872 489 q 854 701 872 642 q 802 806 836 761 q 718 878 768 851 q 606 904 668 904 q 433 860 514 904 q 292 744 353 815 q 197 585 232 674 q 163 408 163 497 q 180 283 163 343 q 232 178 197 224 q 316 107 267 133 q 431 81 365 81 z "},"Ø":{"ha":1003,"x_min":50,"x_max":990,"o":"m 990 986 l 885 861 q 948 731 926 803 q 969 583 969 660 q 923 365 969 471 q 799 176 876 258 q 620 43 721 93 q 411 -7 519 -7 q 299 11 350 -7 q 208 61 249 29 l 157 0 l 50 0 l 151 119 q 86 249 108 176 q 64 400 64 321 q 111 619 64 513 q 237 810 158 726 q 416 943 315 893 q 625 993 517 993 q 738 974 688 993 q 829 921 789 954 l 885 986 l 990 986 m 163 408 q 176 295 163 349 q 218 199 190 242 l 765 844 q 694 888 733 872 q 606 904 654 904 q 433 860 514 904 q 292 744 353 815 q 197 585 232 674 q 163 408 163 497 m 431 81 q 602 125 522 81 q 742 241 682 169 q 838 401 803 313 q 872 576 872 489 q 858 687 872 635 q 818 782 844 739 l 272 136 q 343 95 304 110 q 431 81 382 81 z "},"/":{"ha":832,"x_min":-36,"x_max":904,"o":"m 904 986 l 71 0 l -36 0 l 799 986 l 904 986 z "},"Ǿ":{"ha":1003,"x_min":50,"x_max":990,"o":"m 990 986 l 885 861 q 948 731 926 803 q 969 583 969 660 q 923 365 969 471 q 799 176 876 258 q 620 43 721 93 q 411 -7 519 -7 q 299 11 350 -7 q 208 61 249 29 l 157 0 l 50 0 l 151 119 q 86 249 108 176 q 64 400 64 321 q 111 619 64 513 q 237 810 158 726 q 416 943 315 893 q 625 993 517 993 q 738 974 688 993 q 829 921 789 954 l 885 986 l 990 986 m 163 408 q 176 295 163 349 q 218 199 190 242 l 765 844 q 694 888 733 872 q 606 904 654 904 q 433 860 514 904 q 292 744 353 815 q 197 585 232 674 q 163 408 163 497 m 431 81 q 602 125 522 81 q 742 241 682 169 q 838 401 803 313 q 872 576 872 489 q 858 687 872 635 q 818 782 844 739 l 272 136 q 343 95 304 110 q 431 81 382 81 m 656 1121 l 597 1144 l 703 1274 l 801 1274 l 656 1121 z "},"Õ":{"ha":1003,"x_min":64,"x_max":969,"o":"m 411 -7 q 263 27 328 -7 q 154 117 199 61 q 87 247 110 174 q 64 400 64 321 q 111 619 64 513 q 237 810 158 726 q 416 943 315 893 q 625 993 517 993 q 772 958 708 993 q 880 867 836 924 q 947 736 924 810 q 969 583 969 663 q 923 365 969 471 q 799 176 876 258 q 620 43 721 93 q 411 -7 519 -7 m 431 81 q 602 125 522 81 q 742 241 682 169 q 838 401 803 313 q 872 576 872 489 q 854 701 872 642 q 802 806 836 761 q 718 878 768 851 q 606 904 668 904 q 433 860 514 904 q 292 744 353 815 q 197 585 232 674 q 163 408 163 497 q 180 283 163 343 q 232 178 197 224 q 316 107 267 133 q 431 81 365 81 m 739 1146 q 690 1154 710 1146 q 653 1173 669 1163 q 619 1192 636 1183 q 582 1201 603 1201 q 546 1192 561 1201 q 522 1170 531 1182 q 508 1148 513 1158 q 503 1135 503 1138 l 444 1135 q 456 1163 446 1142 q 483 1207 465 1185 q 529 1247 501 1229 q 594 1264 557 1264 q 641 1255 622 1264 q 676 1235 660 1246 q 710 1215 693 1224 q 751 1206 726 1206 q 794 1215 776 1206 q 821 1238 811 1225 q 835 1260 831 1250 q 840 1274 840 1271 l 899 1274 q 888 1246 897 1267 q 858 1203 878 1225 q 810 1163 839 1181 q 739 1146 781 1146 z "},"P":{"ha":832,"x_min":33,"x_max":851,"o":"m 243 986 l 632 986 q 724 965 683 986 q 793 907 765 943 q 836 824 821 871 q 851 729 851 778 q 824 597 851 663 q 749 480 796 532 q 639 396 701 428 q 507 364 576 364 l 207 364 l 129 0 l 33 0 l 243 986 m 519 450 q 610 474 567 450 q 684 535 653 497 q 734 622 715 574 q 753 721 753 671 q 742 791 753 758 q 713 848 732 824 q 666 886 693 872 q 607 900 639 900 l 321 900 l 225 450 l 519 450 z "},"Q":{"ha":1001,"x_min":64,"x_max":969,"o":"m 688 82 q 554 17 624 40 q 411 -7 485 -7 q 263 27 328 -7 q 154 117 199 61 q 87 247 110 174 q 64 400 64 321 q 111 619 64 513 q 237 810 158 726 q 417 943 315 893 q 626 993 518 993 q 774 958 710 993 q 881 867 838 924 q 947 736 925 810 q 969 583 969 663 q 953 457 969 519 q 909 337 938 394 q 841 227 881 279 q 753 133 801 175 l 835 0 l 738 0 l 688 82 m 431 81 q 543 99 489 81 q 646 151 597 118 l 556 303 l 651 303 l 710 206 q 828 378 785 279 q 872 576 872 476 q 854 701 872 642 q 802 806 836 761 q 718 878 768 851 q 606 906 668 906 q 433 861 514 906 q 292 746 353 817 q 197 586 232 675 q 163 408 163 497 q 180 283 163 343 q 232 178 197 224 q 316 107 267 133 q 431 81 365 81 z "},"R":{"ha":872,"x_min":33,"x_max":860,"o":"m 33 0 l 243 986 l 639 986 q 732 965 690 986 q 801 907 774 943 q 844 824 829 871 q 860 729 860 778 q 838 612 860 669 q 778 507 815 554 q 690 426 740 460 q 582 381 639 392 l 731 0 l 621 0 l 479 364 l 207 364 l 129 0 l 33 0 m 529 450 q 619 474 576 450 q 692 535 661 497 q 742 622 724 574 q 760 718 760 669 q 749 788 760 756 q 720 846 739 821 q 674 885 701 871 q 615 900 647 900 l 321 900 l 225 450 l 529 450 z "},"Ŕ":{"ha":872,"x_min":33,"x_max":860,"o":"m 561 1124 l 503 1147 l 608 1276 l 707 1276 l 561 1124 m 33 0 l 243 986 l 639 986 q 732 965 690 986 q 801 907 774 943 q 844 824 829 871 q 860 729 860 778 q 838 612 860 669 q 778 507 815 554 q 690 426 740 460 q 582 381 639 392 l 731 0 l 621 0 l 479 364 l 207 364 l 129 0 l 33 0 m 529 450 q 619 474 576 450 q 692 535 661 497 q 742 622 724 574 q 760 718 760 669 q 749 788 760 756 q 720 846 739 821 q 674 885 701 871 q 615 900 647 900 l 321 900 l 225 450 l 529 450 z "},"Ř":{"ha":872,"x_min":33,"x_max":860,"o":"m 442 1249 l 501 1276 l 594 1189 l 725 1276 l 772 1249 l 617 1129 l 547 1129 l 442 1249 m 33 0 l 243 986 l 639 986 q 732 965 690 986 q 801 907 774 943 q 844 824 829 871 q 860 729 860 778 q 838 612 860 669 q 778 507 815 554 q 690 426 740 460 q 582 381 639 392 l 731 0 l 621 0 l 479 364 l 207 364 l 129 0 l 33 0 m 529 450 q 619 474 576 450 q 692 535 661 497 q 742 622 724 574 q 760 718 760 669 q 749 788 760 756 q 720 846 739 821 q 674 885 701 871 q 615 900 647 900 l 321 900 l 225 450 l 529 450 z "},"Ŗ":{"ha":872,"x_min":33,"x_max":860,"o":"m 254 -276 l 299 -174 l 271 -174 l 294 -68 l 379 -68 l 357 -174 l 301 -276 l 254 -276 m 33 0 l 243 986 l 639 986 q 732 965 690 986 q 801 907 774 943 q 844 824 829 871 q 860 729 860 778 q 838 612 860 669 q 778 507 815 554 q 690 426 740 460 q 582 381 639 392 l 731 0 l 621 0 l 479 364 l 207 364 l 129 0 l 33 0 m 529 450 q 619 474 576 450 q 692 535 661 497 q 742 622 724 574 q 760 718 760 669 q 749 788 760 756 q 720 846 739 821 q 674 885 701 871 q 615 900 647 900 l 321 900 l 225 450 l 529 450 z "},"S":{"ha":813,"x_min":-12,"x_max":815,"o":"m 335 -8 q -12 135 114 -8 l 53 214 q 169 117 90 157 q 356 78 247 78 q 556 130 482 78 q 629 281 629 182 q 613 342 629 317 q 566 388 597 368 q 490 423 535 408 q 388 453 446 438 q 281 485 328 468 q 203 526 235 503 q 154 583 171 550 q 138 660 138 615 q 169 799 138 738 q 254 904 200 861 q 381 970 308 947 q 539 993 454 993 q 701 963 632 993 q 815 879 769 933 l 753 801 q 664 878 725 849 q 519 907 603 907 q 395 890 447 907 q 309 844 343 874 q 259 776 275 815 q 243 690 243 736 q 257 633 243 657 q 299 592 271 610 q 368 562 326 575 q 465 535 410 549 q 576 502 526 519 q 662 459 626 485 q 717 397 697 433 q 736 310 736 361 q 705 171 736 231 q 619 72 674 111 q 492 12 565 32 q 335 -8 419 -8 z "},"Ś":{"ha":813,"x_min":-12,"x_max":815,"o":"m 565 1143 l 507 1167 l 613 1296 l 711 1296 l 565 1143 m 335 -8 q -12 135 114 -8 l 53 214 q 169 117 90 157 q 356 78 247 78 q 556 130 482 78 q 629 281 629 182 q 613 342 629 317 q 566 388 597 368 q 490 423 535 408 q 388 453 446 438 q 281 485 328 468 q 203 526 235 503 q 154 583 171 550 q 138 660 138 615 q 169 799 138 738 q 254 904 200 861 q 381 970 308 947 q 539 993 454 993 q 701 963 632 993 q 815 879 769 933 l 753 801 q 664 878 725 849 q 519 907 603 907 q 395 890 447 907 q 309 844 343 874 q 259 776 275 815 q 243 690 243 736 q 257 633 243 657 q 299 592 271 610 q 368 562 326 575 q 465 535 410 549 q 576 502 526 519 q 662 459 626 485 q 717 397 697 433 q 736 310 736 361 q 705 171 736 231 q 619 72 674 111 q 492 12 565 32 q 335 -8 419 -8 z "},"Š":{"ha":813,"x_min":-12,"x_max":815,"o":"m 424 1268 l 483 1296 l 576 1208 l 707 1296 l 754 1268 l 599 1149 l 529 1149 l 424 1268 m 335 -8 q -12 135 114 -8 l 53 214 q 169 117 90 157 q 356 78 247 78 q 556 130 482 78 q 629 281 629 182 q 613 342 629 317 q 566 388 597 368 q 490 423 535 408 q 388 453 446 438 q 281 485 328 468 q 203 526 235 503 q 154 583 171 550 q 138 660 138 615 q 169 799 138 738 q 254 904 200 861 q 381 970 308 947 q 539 993 454 993 q 701 963 632 993 q 815 879 769 933 l 753 801 q 664 878 725 849 q 519 907 603 907 q 395 890 447 907 q 309 844 343 874 q 259 776 275 815 q 243 690 243 736 q 257 633 243 657 q 299 592 271 610 q 368 562 326 575 q 465 535 410 549 q 576 502 526 519 q 662 459 626 485 q 717 397 697 433 q 736 310 736 361 q 705 171 736 231 q 619 72 674 111 q 492 12 565 32 q 335 -8 419 -8 z "},"Ŝ":{"ha":813,"x_min":-12,"x_max":815,"o":"m 414 1178 l 571 1296 l 640 1296 l 744 1178 l 686 1149 l 592 1236 l 461 1149 l 414 1178 m 335 -8 q -12 135 114 -8 l 53 214 q 169 117 90 157 q 356 78 247 78 q 556 130 482 78 q 629 281 629 182 q 613 342 629 317 q 566 388 597 368 q 490 423 535 408 q 388 453 446 438 q 281 485 328 468 q 203 526 235 503 q 154 583 171 550 q 138 660 138 615 q 169 799 138 738 q 254 904 200 861 q 381 970 308 947 q 539 993 454 993 q 701 963 632 993 q 815 879 769 933 l 753 801 q 664 878 725 849 q 519 907 603 907 q 395 890 447 907 q 309 844 343 874 q 259 776 275 815 q 243 690 243 736 q 257 633 243 657 q 299 592 271 610 q 368 562 326 575 q 465 535 410 549 q 576 502 526 519 q 662 459 626 485 q 717 397 697 433 q 736 310 736 361 q 705 171 736 231 q 619 72 674 111 q 492 12 565 32 q 335 -8 419 -8 z "},"T":{"ha":808,"x_min":125,"x_max":903,"o":"m 456 900 l 125 900 l 143 986 l 903 986 l 885 900 l 553 900 l 361 0 l 265 0 l 456 900 z "},"Ŧ":{"ha":857,"x_min":108,"x_max":926,"o":"m 119 563 l 408 563 l 481 900 l 149 900 l 167 986 l 926 986 l 908 900 l 576 900 l 504 563 l 793 563 l 782 508 l 492 508 l 385 0 l 289 0 l 397 508 l 108 508 l 119 563 z "},"Ť":{"ha":808,"x_min":125,"x_max":903,"o":"m 404 1246 l 464 1274 l 557 1186 l 688 1274 l 735 1246 l 579 1126 l 510 1126 l 404 1246 m 456 900 l 125 900 l 143 986 l 903 986 l 885 900 l 553 900 l 361 0 l 265 0 l 456 900 z "},"Þ":{"ha":804,"x_min":33,"x_max":785,"o":"m 243 986 l 339 986 l 297 790 l 565 790 q 658 769 617 790 q 727 711 699 747 q 770 629 756 675 q 785 533 785 583 q 757 401 785 467 q 683 284 729 336 q 574 200 636 232 q 440 168 511 168 l 165 168 l 129 0 l 33 0 l 243 986 m 456 256 q 545 279 503 256 q 619 342 588 303 q 669 428 651 381 q 688 524 688 475 q 677 594 688 561 q 647 651 667 626 q 601 690 628 675 q 542 704 575 704 l 279 704 l 183 256 l 456 256 z "},"U":{"ha":1006,"x_min":104,"x_max":1018,"o":"m 414 -7 q 268 19 328 -7 q 172 89 208 44 q 120 192 136 133 q 104 319 104 251 q 124 489 104 399 l 229 986 l 325 986 l 219 489 q 206 410 211 449 q 201 336 201 372 q 213 235 201 282 q 252 155 225 189 q 323 101 279 121 q 431 81 367 81 q 584 116 518 81 q 697 209 650 151 q 772 340 743 267 q 817 489 801 414 l 922 986 l 1018 986 l 914 489 q 853 299 893 389 q 751 141 813 208 q 606 33 689 74 q 414 -7 522 -7 z "},"Ú":{"ha":1006,"x_min":104,"x_max":1018,"o":"m 636 1121 l 578 1144 l 683 1274 l 782 1274 l 636 1121 m 414 -7 q 268 19 328 -7 q 172 89 208 44 q 120 192 136 133 q 104 319 104 251 q 124 489 104 399 l 229 986 l 325 986 l 219 489 q 206 410 211 449 q 201 336 201 372 q 213 235 201 282 q 252 155 225 189 q 323 101 279 121 q 431 81 367 81 q 584 116 518 81 q 697 209 650 151 q 772 340 743 267 q 817 489 801 414 l 922 986 l 1018 986 l 914 489 q 853 299 893 389 q 751 141 813 208 q 606 33 689 74 q 414 -7 522 -7 z "},"Ŭ":{"ha":1006,"x_min":104,"x_max":1018,"o":"m 414 -7 q 268 19 328 -7 q 172 89 208 44 q 120 192 136 133 q 104 319 104 251 q 124 489 104 399 l 229 986 l 325 986 l 219 489 q 206 410 211 449 q 201 336 201 372 q 213 235 201 282 q 252 155 225 189 q 323 101 279 121 q 431 81 367 81 q 584 116 518 81 q 697 209 650 151 q 772 340 743 267 q 817 489 801 414 l 922 986 l 1018 986 l 914 489 q 853 299 893 389 q 751 141 813 208 q 606 33 689 74 q 414 -7 522 -7 m 649 1182 q 704 1208 676 1182 q 744 1274 732 1235 l 800 1274 q 778 1219 793 1244 q 741 1174 763 1193 q 693 1144 719 1156 q 639 1133 667 1133 q 561 1164 590 1133 q 532 1242 532 1194 q 536 1274 532 1257 l 594 1274 q 592 1253 592 1260 q 608 1203 592 1224 q 649 1182 624 1182 z "},"Û":{"ha":1006,"x_min":104,"x_max":1018,"o":"m 489 1156 l 646 1274 l 715 1274 l 819 1156 l 761 1126 l 667 1214 l 536 1126 l 489 1156 m 414 -7 q 268 19 328 -7 q 172 89 208 44 q 120 192 136 133 q 104 319 104 251 q 124 489 104 399 l 229 986 l 325 986 l 219 489 q 206 410 211 449 q 201 336 201 372 q 213 235 201 282 q 252 155 225 189 q 323 101 279 121 q 431 81 367 81 q 584 116 518 81 q 697 209 650 151 q 772 340 743 267 q 817 489 801 414 l 922 986 l 1018 986 l 914 489 q 853 299 893 389 q 751 141 813 208 q 606 33 689 74 q 414 -7 522 -7 z "},"Ü":{"ha":1006,"x_min":104,"x_max":1018,"o":"m 507 1139 l 536 1269 l 617 1269 l 588 1139 l 507 1139 m 707 1139 l 735 1269 l 814 1269 l 788 1139 l 707 1139 m 414 -7 q 268 19 328 -7 q 172 89 208 44 q 120 192 136 133 q 104 319 104 251 q 124 489 104 399 l 229 986 l 325 986 l 219 489 q 206 410 211 449 q 201 336 201 372 q 213 235 201 282 q 252 155 225 189 q 323 101 279 121 q 431 81 367 81 q 584 116 518 81 q 697 209 650 151 q 772 340 743 267 q 817 489 801 414 l 922 986 l 1018 986 l 914 489 q 853 299 893 389 q 751 141 813 208 q 606 33 689 74 q 414 -7 522 -7 z "},"Ù":{"ha":1006,"x_min":104,"x_max":1018,"o":"m 414 -7 q 268 19 328 -7 q 172 89 208 44 q 120 192 136 133 q 104 319 104 251 q 124 489 104 399 l 229 986 l 325 986 l 219 489 q 206 410 211 449 q 201 336 201 372 q 213 235 201 282 q 252 155 225 189 q 323 101 279 121 q 431 81 367 81 q 584 116 518 81 q 697 209 650 151 q 772 340 743 267 q 817 489 801 414 l 922 986 l 1018 986 l 914 489 q 853 299 893 389 q 751 141 813 208 q 606 33 689 74 q 414 -7 522 -7 m 568 1274 l 665 1274 l 718 1144 l 650 1121 l 568 1274 z "},"Ű":{"ha":1006,"x_min":104,"x_max":1018,"o":"m 414 -7 q 268 19 328 -7 q 172 89 208 44 q 120 192 136 133 q 104 319 104 251 q 124 489 104 399 l 229 986 l 325 986 l 219 489 q 206 410 211 449 q 201 336 201 372 q 213 235 201 282 q 252 155 225 189 q 323 101 279 121 q 431 81 367 81 q 584 116 518 81 q 697 209 650 151 q 772 340 743 267 q 817 489 801 414 l 922 986 l 1018 986 l 914 489 q 853 299 893 389 q 751 141 813 208 q 606 33 689 74 q 414 -7 522 -7 m 542 1121 l 496 1144 l 597 1274 l 685 1274 l 542 1121 m 710 1121 l 665 1144 l 767 1274 l 853 1274 l 710 1121 z "},"Ū":{"ha":1006,"x_min":104,"x_max":1018,"o":"m 414 -7 q 268 19 328 -7 q 172 89 208 44 q 120 192 136 133 q 104 319 104 251 q 124 489 104 399 l 229 986 l 325 986 l 219 489 q 206 410 211 449 q 201 336 201 372 q 213 235 201 282 q 252 155 225 189 q 323 101 279 121 q 431 81 367 81 q 584 116 518 81 q 697 209 650 151 q 772 340 743 267 q 817 489 801 414 l 922 986 l 1018 986 l 914 489 q 853 299 893 389 q 751 141 813 208 q 606 33 689 74 q 414 -7 522 -7 m 467 1179 l 481 1244 l 863 1244 l 849 1179 l 467 1179 z "},"Ų":{"ha":1006,"x_min":104,"x_max":1018,"o":"m 331 -244 q 268 -212 289 -235 q 247 -160 247 -190 q 277 -85 247 -121 q 374 -6 307 -49 q 247 28 299 0 q 164 99 196 56 q 118 199 132 143 q 104 319 104 256 q 124 489 104 399 l 229 986 l 325 986 l 219 489 q 206 410 211 449 q 201 336 201 372 q 213 235 201 282 q 252 155 225 189 q 323 101 279 121 q 431 81 367 81 q 584 116 518 81 q 697 209 650 151 q 772 340 743 267 q 817 489 801 414 l 922 986 l 1018 986 l 914 489 q 855 303 893 392 q 758 148 817 215 q 619 40 699 81 q 438 -6 539 -1 q 337 -79 365 -49 q 308 -142 308 -110 q 367 -192 308 -183 l 331 -244 l 331 -244 z "},"Ů":{"ha":1006,"x_min":104,"x_max":1018,"o":"m 560 1165 q 596 1244 560 1214 q 681 1274 632 1274 q 740 1253 718 1274 q 761 1200 761 1233 q 726 1122 761 1153 q 640 1092 692 1092 q 581 1112 603 1092 q 560 1165 560 1132 m 672 1236 q 626 1218 647 1236 q 606 1172 606 1200 q 617 1142 606 1154 q 649 1129 629 1129 q 694 1147 672 1129 q 717 1193 717 1165 q 704 1224 717 1213 q 672 1236 692 1236 m 414 -7 q 268 19 328 -7 q 172 89 208 44 q 120 192 136 133 q 104 319 104 251 q 124 489 104 399 l 229 986 l 325 986 l 219 489 q 206 410 211 449 q 201 336 201 372 q 213 235 201 282 q 252 155 225 189 q 323 101 279 121 q 431 81 367 81 q 584 116 518 81 q 697 209 650 151 q 772 340 743 267 q 817 489 801 414 l 922 986 l 1018 986 l 914 489 q 853 299 893 389 q 751 141 813 208 q 606 33 689 74 q 414 -7 522 -7 z "},"Ũ":{"ha":1006,"x_min":104,"x_max":1018,"o":"m 414 -7 q 268 19 328 -7 q 172 89 208 44 q 120 192 136 133 q 104 319 104 251 q 124 489 104 399 l 229 986 l 325 986 l 219 489 q 206 410 211 449 q 201 336 201 372 q 213 235 201 282 q 252 155 225 189 q 323 101 279 121 q 431 81 367 81 q 584 116 518 81 q 697 209 650 151 q 772 340 743 267 q 817 489 801 414 l 922 986 l 1018 986 l 914 489 q 853 299 893 389 q 751 141 813 208 q 606 33 689 74 q 414 -7 522 -7 m 729 1146 q 680 1154 700 1146 q 643 1173 660 1163 q 610 1192 626 1183 q 572 1201 593 1201 q 536 1192 551 1201 q 512 1170 521 1182 q 498 1148 503 1158 q 493 1135 493 1138 l 435 1135 q 446 1163 436 1142 q 474 1207 456 1185 q 519 1247 492 1229 q 585 1264 547 1264 q 631 1255 613 1264 q 667 1235 650 1246 q 700 1215 683 1224 q 742 1206 717 1206 q 784 1215 767 1206 q 811 1238 801 1225 q 826 1260 821 1250 q 831 1274 831 1271 l 889 1274 q 878 1246 888 1267 q 849 1203 868 1225 q 800 1163 829 1181 q 729 1146 771 1146 z "},"V":{"ha":900,"x_min":135,"x_max":997,"o":"m 135 986 l 236 986 l 383 121 l 896 986 l 997 986 l 400 0 l 314 0 l 135 986 z "},"W":{"ha":1385,"x_min":132,"x_max":1485,"o":"m 132 986 l 236 986 l 386 113 l 657 558 l 583 979 l 675 979 l 731 629 l 938 979 l 1029 979 l 776 558 l 858 113 l 1378 986 l 1485 986 l 878 0 l 794 0 l 703 488 l 403 0 l 318 0 l 132 986 z "},"Ẃ":{"ha":1385,"x_min":132,"x_max":1485,"o":"m 818 1121 l 760 1144 l 865 1274 l 964 1274 l 818 1121 m 132 986 l 236 986 l 386 113 l 657 558 l 583 979 l 675 979 l 731 629 l 938 979 l 1029 979 l 776 558 l 858 113 l 1378 986 l 1485 986 l 878 0 l 794 0 l 703 488 l 403 0 l 318 0 l 132 986 z "},"Ŵ":{"ha":1385,"x_min":132,"x_max":1485,"o":"m 675 1156 l 832 1274 l 901 1274 l 1006 1156 l 947 1126 l 853 1214 l 722 1126 l 675 1156 m 132 986 l 236 986 l 386 113 l 657 558 l 583 979 l 675 979 l 731 629 l 938 979 l 1029 979 l 776 558 l 858 113 l 1378 986 l 1485 986 l 878 0 l 794 0 l 703 488 l 403 0 l 318 0 l 132 986 z "},"Ẅ":{"ha":1385,"x_min":132,"x_max":1485,"o":"m 685 1139 l 714 1269 l 794 1269 l 765 1139 l 685 1139 m 885 1139 l 913 1269 l 992 1269 l 965 1139 l 885 1139 m 132 986 l 236 986 l 386 113 l 657 558 l 583 979 l 675 979 l 731 629 l 938 979 l 1029 979 l 776 558 l 858 113 l 1378 986 l 1485 986 l 878 0 l 794 0 l 703 488 l 403 0 l 318 0 l 132 986 z "},"Ẁ":{"ha":1385,"x_min":132,"x_max":1485,"o":"m 132 986 l 236 986 l 386 113 l 657 558 l 583 979 l 675 979 l 731 629 l 938 979 l 1029 979 l 776 558 l 858 113 l 1378 986 l 1485 986 l 878 0 l 794 0 l 703 488 l 403 0 l 318 0 l 132 986 m 733 1274 l 831 1274 l 883 1144 l 815 1121 l 733 1274 z "},"X":{"ha":839,"x_min":-71,"x_max":951,"o":"m 381 486 l 128 986 l 238 986 l 450 556 l 844 986 l 951 986 l 486 486 l 731 0 l 624 0 l 419 417 l 39 0 l -71 0 l 381 486 z "},"Y":{"ha":843,"x_min":126,"x_max":946,"o":"m 357 369 l 126 986 l 233 986 l 424 456 l 840 986 l 946 986 l 451 367 l 374 0 l 278 0 l 357 369 z "},"Ý":{"ha":843,"x_min":126,"x_max":946,"o":"m 357 369 l 126 986 l 233 986 l 424 456 l 840 986 l 946 986 l 451 367 l 374 0 l 278 0 l 357 369 m 549 1121 l 490 1144 l 596 1274 l 694 1274 l 549 1121 z "},"Ŷ":{"ha":843,"x_min":126,"x_max":946,"o":"m 357 369 l 126 986 l 233 986 l 424 456 l 840 986 l 946 986 l 451 367 l 374 0 l 278 0 l 357 369 m 396 1156 l 553 1274 l 622 1274 l 726 1156 l 668 1126 l 574 1214 l 443 1126 l 396 1156 z "},"Ÿ":{"ha":843,"x_min":126,"x_max":946,"o":"m 357 369 l 126 986 l 233 986 l 424 456 l 840 986 l 946 986 l 451 367 l 374 0 l 278 0 l 357 369 m 424 1139 l 453 1269 l 533 1269 l 504 1139 l 424 1139 m 624 1139 l 651 1269 l 731 1269 l 704 1139 l 624 1139 z "},"Ỳ":{"ha":843,"x_min":126,"x_max":946,"o":"m 357 369 l 126 986 l 233 986 l 424 456 l 840 986 l 946 986 l 451 367 l 374 0 l 278 0 l 357 369 m 471 1274 l 568 1274 l 621 1144 l 553 1121 l 471 1274 z "},"Ỹ":{"ha":843,"x_min":126,"x_max":946,"o":"m 357 369 l 126 986 l 233 986 l 424 456 l 840 986 l 946 986 l 451 367 l 374 0 l 278 0 l 357 369 m 631 1146 q 581 1154 601 1146 q 544 1173 561 1163 q 511 1192 528 1183 q 474 1201 494 1201 q 438 1192 453 1201 q 413 1170 422 1182 q 399 1148 404 1158 q 394 1135 394 1138 l 336 1135 q 347 1163 338 1142 q 375 1207 357 1185 q 421 1247 393 1229 q 486 1264 449 1264 q 533 1255 514 1264 q 568 1235 551 1246 q 601 1215 585 1224 q 643 1206 618 1206 q 685 1215 668 1206 q 713 1238 703 1225 q 727 1260 722 1250 q 732 1274 732 1271 l 790 1274 q 779 1246 789 1267 q 750 1203 769 1225 q 701 1163 731 1181 q 631 1146 672 1146 z "},"Z":{"ha":828,"x_min":-50,"x_max":904,"o":"m -33 76 l 772 900 l 153 900 l 171 986 l 904 986 l 888 910 l 90 86 l 711 86 l 693 0 l -50 0 l -33 76 z "},"Ź":{"ha":828,"x_min":-50,"x_max":904,"o":"m 542 1121 l 483 1144 l 589 1274 l 688 1274 l 542 1121 m -33 76 l 772 900 l 153 900 l 171 986 l 904 986 l 888 910 l 90 86 l 711 86 l 693 0 l -50 0 l -33 76 z "},"Ž":{"ha":828,"x_min":-50,"x_max":904,"o":"m 411 1246 l 471 1274 l 564 1186 l 694 1274 l 742 1246 l 586 1126 l 517 1126 l 411 1246 m -33 76 l 772 900 l 153 900 l 171 986 l 904 986 l 888 910 l 90 86 l 711 86 l 693 0 l -50 0 l -33 76 z "},"Ż":{"ha":828,"x_min":-50,"x_max":904,"o":"m -33 76 l 772 900 l 153 900 l 171 986 l 904 986 l 888 910 l 90 86 l 711 86 l 693 0 l -50 0 l -33 76 m 514 1139 l 543 1274 l 629 1274 l 600 1139 l 514 1139 z "},"a":{"ha":831,"x_min":35,"x_max":789,"o":"m 292 -14 q 183 10 231 -14 q 103 76 136 35 q 52 173 69 118 q 35 289 35 228 q 68 456 35 375 q 157 599 101 536 q 285 699 213 661 q 436 736 357 736 q 581 688 524 736 q 661 572 638 640 l 694 724 l 789 724 l 661 124 q 658 106 658 113 q 685 83 658 83 l 667 0 q 646 -3 656 -1 q 629 -4 636 -4 q 581 13 597 -1 q 565 51 565 28 q 569 81 565 63 q 581 140 572 99 q 447 28 525 69 q 292 -14 368 -14 m 331 69 q 406 83 365 69 q 483 122 446 97 q 549 178 519 146 q 593 249 579 211 l 639 472 q 617 542 635 510 q 572 599 599 575 q 513 638 546 624 q 443 653 479 653 q 324 622 381 653 q 226 540 268 590 q 158 428 183 490 q 133 303 133 365 q 147 212 133 254 q 188 138 161 169 q 250 88 214 107 q 331 69 286 69 z "},"á":{"ha":831,"x_min":35,"x_max":789,"o":"m 292 -14 q 183 10 231 -14 q 103 76 136 35 q 52 173 69 118 q 35 289 35 228 q 68 456 35 375 q 157 599 101 536 q 285 699 213 661 q 436 736 357 736 q 581 688 524 736 q 661 572 638 640 l 694 724 l 789 724 l 661 124 q 658 106 658 113 q 685 83 658 83 l 667 0 q 646 -3 656 -1 q 629 -4 636 -4 q 581 13 597 -1 q 565 51 565 28 q 569 81 565 63 q 581 140 572 99 q 447 28 525 69 q 292 -14 368 -14 m 331 69 q 406 83 365 69 q 483 122 446 97 q 549 178 519 146 q 593 249 579 211 l 639 472 q 617 542 635 510 q 572 599 599 575 q 513 638 546 624 q 443 653 479 653 q 324 622 381 653 q 226 540 268 590 q 158 428 183 490 q 133 303 133 365 q 147 212 133 254 q 188 138 161 169 q 250 88 214 107 q 331 69 286 69 m 486 861 l 428 885 l 533 1014 l 632 1014 l 486 861 z "},"ă":{"ha":831,"x_min":35,"x_max":789,"o":"m 292 -14 q 183 10 231 -14 q 103 76 136 35 q 52 173 69 118 q 35 289 35 228 q 68 456 35 375 q 157 599 101 536 q 285 699 213 661 q 436 736 357 736 q 581 688 524 736 q 661 572 638 640 l 694 724 l 789 724 l 661 124 q 658 106 658 113 q 685 83 658 83 l 667 0 q 646 -3 656 -1 q 629 -4 636 -4 q 581 13 597 -1 q 565 51 565 28 q 569 81 565 63 q 581 140 572 99 q 447 28 525 69 q 292 -14 368 -14 m 331 69 q 406 83 365 69 q 483 122 446 97 q 549 178 519 146 q 593 249 579 211 l 639 472 q 617 542 635 510 q 572 599 599 575 q 513 638 546 624 q 443 653 479 653 q 324 622 381 653 q 226 540 268 590 q 158 428 183 490 q 133 303 133 365 q 147 212 133 254 q 188 138 161 169 q 250 88 214 107 q 331 69 286 69 m 489 922 q 544 949 517 922 q 585 1014 572 975 l 640 1014 q 618 959 633 985 q 581 915 603 933 q 533 885 560 896 q 479 874 507 874 q 401 904 431 874 q 372 982 372 935 q 376 1014 372 997 l 435 1014 q 432 993 432 1000 q 448 943 432 964 q 489 922 464 922 z "},"â":{"ha":831,"x_min":35,"x_max":789,"o":"m 292 -14 q 183 10 231 -14 q 103 76 136 35 q 52 173 69 118 q 35 289 35 228 q 68 456 35 375 q 157 599 101 536 q 285 699 213 661 q 436 736 357 736 q 581 688 524 736 q 661 572 638 640 l 694 724 l 789 724 l 661 124 q 658 106 658 113 q 685 83 658 83 l 667 0 q 646 -3 656 -1 q 629 -4 636 -4 q 581 13 597 -1 q 565 51 565 28 q 569 81 565 63 q 581 140 572 99 q 447 28 525 69 q 292 -14 368 -14 m 331 69 q 406 83 365 69 q 483 122 446 97 q 549 178 519 146 q 593 249 579 211 l 639 472 q 617 542 635 510 q 572 599 599 575 q 513 638 546 624 q 443 653 479 653 q 324 622 381 653 q 226 540 268 590 q 158 428 183 490 q 133 303 133 365 q 147 212 133 254 q 188 138 161 169 q 250 88 214 107 q 331 69 286 69 m 328 896 l 485 1014 l 554 1014 l 658 896 l 600 867 l 506 954 l 375 867 l 328 896 z "},"ä":{"ha":831,"x_min":35,"x_max":789,"o":"m 292 -14 q 183 10 231 -14 q 103 76 136 35 q 52 173 69 118 q 35 289 35 228 q 68 456 35 375 q 157 599 101 536 q 285 699 213 661 q 436 736 357 736 q 581 688 524 736 q 661 572 638 640 l 694 724 l 789 724 l 661 124 q 658 106 658 113 q 685 83 658 83 l 667 0 q 646 -3 656 -1 q 629 -4 636 -4 q 581 13 597 -1 q 565 51 565 28 q 569 81 565 63 q 581 140 572 99 q 447 28 525 69 q 292 -14 368 -14 m 331 69 q 406 83 365 69 q 483 122 446 97 q 549 178 519 146 q 593 249 579 211 l 639 472 q 617 542 635 510 q 572 599 599 575 q 513 638 546 624 q 443 653 479 653 q 324 622 381 653 q 226 540 268 590 q 158 428 183 490 q 133 303 133 365 q 147 212 133 254 q 188 138 161 169 q 250 88 214 107 q 331 69 286 69 m 347 879 l 376 1010 l 457 1010 l 428 879 l 347 879 m 547 879 l 575 1010 l 654 1010 l 628 879 l 547 879 z "},"æ":{"ha":1232,"x_min":-6,"x_max":1192,"o":"m 186 -14 q 105 1 140 -14 q 44 40 69 15 q 7 99 19 65 q -6 171 -6 132 q 21 275 -6 228 q 93 357 47 322 q 201 410 139 392 q 333 429 263 429 q 423 422 379 429 q 503 401 467 414 q 528 466 514 438 q 547 528 542 494 q 508 626 547 588 q 393 665 468 665 q 281 643 340 665 q 154 579 221 621 l 136 642 q 283 713 214 689 q 418 736 351 736 q 554 699 501 736 q 622 592 607 661 q 756 697 681 657 q 917 736 832 736 q 1031 713 981 736 q 1117 650 1082 690 q 1172 556 1153 610 q 1192 439 1192 501 q 1184 367 1192 394 q 1171 328 1176 340 l 578 328 q 576 305 576 317 q 575 281 575 293 q 590 191 575 232 q 631 121 604 150 q 696 75 658 92 q 779 58 733 58 q 847 68 813 58 q 913 94 882 78 q 971 135 944 111 q 1015 189 997 160 l 1093 167 q 1032 94 1068 126 q 952 37 996 61 q 860 -1 908 13 q 761 -14 811 -14 q 605 30 669 -14 q 510 146 540 74 q 436 72 478 103 q 350 23 394 42 q 263 -5 306 4 q 186 -14 219 -14 m 224 58 q 303 70 261 58 q 383 103 344 82 q 449 151 421 124 q 489 208 478 178 q 483 265 483 231 q 485 305 483 285 q 490 342 488 325 q 415 363 456 356 q 336 369 375 369 q 237 356 282 369 q 158 319 192 343 q 106 263 125 296 q 88 189 88 229 q 121 97 88 136 q 224 58 154 58 m 1096 392 q 1099 420 1099 406 q 1100 447 1100 435 q 1048 601 1100 540 q 900 663 996 663 q 799 642 847 663 q 709 586 750 622 q 637 500 668 550 q 590 392 606 450 l 1096 392 z "},"ǽ":{"ha":1229,"x_min":-7,"x_max":1190,"o":"m 696 861 l 638 885 l 743 1014 l 842 1014 l 696 861 m 185 -14 q 103 1 139 -14 q 43 40 68 15 q 6 99 18 65 q -7 171 -7 132 q 19 275 -7 228 q 92 357 46 322 q 199 410 138 392 q 332 429 261 429 q 422 422 378 429 q 501 401 465 414 q 526 466 513 438 q 546 528 540 494 q 506 626 546 588 q 392 665 467 665 q 279 643 339 665 q 153 579 219 621 l 135 642 q 281 713 213 689 q 417 736 350 736 q 553 699 500 736 q 621 592 606 661 q 755 697 679 657 q 915 736 831 736 q 1030 713 979 736 q 1116 650 1081 690 q 1171 556 1151 610 q 1190 439 1190 501 q 1183 367 1190 394 q 1169 328 1175 340 l 576 328 q 574 305 575 317 q 574 281 574 293 q 588 191 574 232 q 630 121 603 150 q 694 75 657 92 q 778 58 732 58 q 846 68 811 58 q 912 94 881 78 q 969 135 943 111 q 1014 189 996 160 l 1092 167 q 1031 94 1067 126 q 951 37 994 61 q 858 -1 907 13 q 760 -14 810 -14 q 603 30 668 -14 q 508 146 539 74 q 435 72 476 103 q 349 23 393 42 q 261 -5 304 4 q 185 -14 218 -14 m 222 58 q 301 70 260 58 q 381 103 343 82 q 448 151 419 124 q 488 208 476 178 q 482 265 482 231 q 484 305 482 285 q 489 342 486 325 q 414 363 454 356 q 335 369 374 369 q 235 356 281 369 q 157 319 190 343 q 105 263 124 296 q 86 189 86 229 q 119 97 86 136 q 222 58 153 58 m 1094 392 q 1098 420 1097 406 q 1099 447 1099 435 q 1047 601 1099 540 q 899 663 994 663 q 797 642 846 663 q 708 586 749 622 q 635 500 667 550 q 589 392 604 450 l 1094 392 z "},"à":{"ha":831,"x_min":35,"x_max":789,"o":"m 292 -14 q 183 10 231 -14 q 103 76 136 35 q 52 173 69 118 q 35 289 35 228 q 68 456 35 375 q 157 599 101 536 q 285 699 213 661 q 436 736 357 736 q 581 688 524 736 q 661 572 638 640 l 694 724 l 789 724 l 661 124 q 658 106 658 113 q 685 83 658 83 l 667 0 q 646 -3 656 -1 q 629 -4 636 -4 q 581 13 597 -1 q 565 51 565 28 q 569 81 565 63 q 581 140 572 99 q 447 28 525 69 q 292 -14 368 -14 m 331 69 q 406 83 365 69 q 483 122 446 97 q 549 178 519 146 q 593 249 579 211 l 639 472 q 617 542 635 510 q 572 599 599 575 q 513 638 546 624 q 443 653 479 653 q 324 622 381 653 q 226 540 268 590 q 158 428 183 490 q 133 303 133 365 q 147 212 133 254 q 188 138 161 169 q 250 88 214 107 q 331 69 286 69 m 390 1014 l 488 1014 l 540 885 l 472 861 l 390 1014 z "},"ā":{"ha":831,"x_min":35,"x_max":789,"o":"m 292 -14 q 183 10 231 -14 q 103 76 136 35 q 52 173 69 118 q 35 289 35 228 q 68 456 35 375 q 157 599 101 536 q 285 699 213 661 q 436 736 357 736 q 581 688 524 736 q 661 572 638 640 l 694 724 l 789 724 l 661 124 q 658 106 658 113 q 685 83 658 83 l 667 0 q 646 -3 656 -1 q 629 -4 636 -4 q 581 13 597 -1 q 565 51 565 28 q 569 81 565 63 q 581 140 572 99 q 447 28 525 69 q 292 -14 368 -14 m 331 69 q 406 83 365 69 q 483 122 446 97 q 549 178 519 146 q 593 249 579 211 l 639 472 q 617 542 635 510 q 572 599 599 575 q 513 638 546 624 q 443 653 479 653 q 324 622 381 653 q 226 540 268 590 q 158 428 183 490 q 133 303 133 365 q 147 212 133 254 q 188 138 161 169 q 250 88 214 107 q 331 69 286 69 m 318 919 l 332 985 l 714 985 l 700 919 l 318 919 z "},"&":{"ha":932,"x_min":25,"x_max":908,"o":"m 567 144 q 419 28 499 69 q 257 -14 340 -14 q 163 3 206 -14 q 90 51 121 21 q 42 123 60 81 q 25 215 25 165 q 45 319 25 271 q 100 408 65 367 q 183 485 135 449 q 288 556 231 521 q 228 665 246 619 q 210 750 210 710 q 233 847 210 801 q 297 926 257 892 q 388 979 336 960 q 497 999 440 999 q 631 960 572 999 q 718 853 689 921 l 653 794 q 585 889 631 853 q 482 925 540 925 q 413 912 446 925 q 354 876 379 899 q 314 825 329 854 q 299 764 299 796 q 317 690 299 732 q 383 576 335 647 l 583 290 q 645 424 619 351 q 686 578 671 496 l 908 578 l 892 501 l 754 501 q 701 352 732 422 q 629 224 669 282 l 786 0 l 667 0 l 567 144 m 276 64 q 406 102 343 64 q 525 207 469 140 l 328 494 q 174 370 231 433 q 118 226 118 307 q 163 107 118 150 q 276 64 208 64 z "},"ą":{"ha":831,"x_min":35,"x_max":789,"o":"m 551 -243 q 489 -211 510 -233 q 468 -158 468 -189 q 500 -81 468 -118 q 603 1 532 -43 q 565 51 565 14 q 569 81 565 63 q 581 140 572 99 q 447 28 525 69 q 292 -14 368 -14 q 183 10 231 -14 q 103 76 136 35 q 52 173 69 118 q 35 289 35 228 q 68 456 35 375 q 157 599 101 536 q 285 699 213 661 q 436 736 357 736 q 581 688 524 736 q 661 572 638 640 l 694 724 l 789 724 l 661 124 q 658 106 658 113 q 685 83 658 83 l 667 0 q 560 -76 590 -44 q 529 -140 529 -108 q 588 -190 529 -182 l 551 -243 m 331 69 q 406 83 365 69 q 483 122 446 97 q 549 178 519 146 q 593 249 579 211 l 639 472 q 617 542 635 510 q 572 599 599 575 q 513 638 546 624 q 443 653 479 653 q 324 622 381 653 q 226 540 268 590 q 158 428 183 490 q 133 303 133 365 q 147 212 133 254 q 188 138 161 169 q 250 88 214 107 q 331 69 286 69 z "},"ʼ":{"ha":744,"x_min":392,"x_max":596,"o":"m 392 885 l 458 967 l 467 1014 l 596 1014 l 449 861 l 392 885 z "},"å":{"ha":831,"x_min":35,"x_max":789,"o":"m 292 -14 q 183 10 231 -14 q 103 76 136 35 q 52 173 69 118 q 35 289 35 228 q 68 456 35 375 q 157 599 101 536 q 285 699 213 661 q 436 736 357 736 q 581 688 524 736 q 661 572 638 640 l 694 724 l 789 724 l 661 124 q 658 106 658 113 q 685 83 658 83 l 667 0 q 646 -3 656 -1 q 629 -4 636 -4 q 581 13 597 -1 q 565 51 565 28 q 569 81 565 63 q 581 140 572 99 q 447 28 525 69 q 292 -14 368 -14 m 331 69 q 406 83 365 69 q 483 122 446 97 q 549 178 519 146 q 593 249 579 211 l 639 472 q 617 542 635 510 q 572 599 599 575 q 513 638 546 624 q 443 653 479 653 q 324 622 381 653 q 226 540 268 590 q 158 428 183 490 q 133 303 133 365 q 147 212 133 254 q 188 138 161 169 q 250 88 214 107 q 331 69 286 69 m 393 906 q 429 984 393 954 q 514 1014 465 1014 q 573 994 551 1014 q 594 940 594 974 q 560 863 594 893 q 474 832 525 832 q 415 852 436 832 q 393 906 393 872 m 506 976 q 460 958 481 976 q 439 913 439 940 q 451 882 439 894 q 482 869 463 869 q 528 888 506 869 q 550 933 550 906 q 538 965 550 953 q 506 976 525 976 z "},"ǻ":{"ha":831,"x_min":35,"x_max":789,"o":"m 292 -14 q 183 10 231 -14 q 103 76 136 35 q 52 173 69 118 q 35 289 35 228 q 68 456 35 375 q 157 599 101 536 q 285 699 213 661 q 436 736 357 736 q 581 688 524 736 q 661 572 638 640 l 694 724 l 789 724 l 661 124 q 658 106 658 113 q 685 83 658 83 l 667 0 q 646 -3 656 -1 q 629 -4 636 -4 q 581 13 597 -1 q 565 51 565 28 q 569 81 565 63 q 581 140 572 99 q 447 28 525 69 q 292 -14 368 -14 m 331 69 q 406 83 365 69 q 483 122 446 97 q 549 178 519 146 q 593 249 579 211 l 639 472 q 617 542 635 510 q 572 599 599 575 q 513 638 546 624 q 443 653 479 653 q 324 622 381 653 q 226 540 268 590 q 158 428 183 490 q 133 303 133 365 q 147 212 133 254 q 188 138 161 169 q 250 88 214 107 q 331 69 286 69 m 524 1069 l 465 1093 l 571 1222 l 669 1222 l 524 1069 m 393 906 q 429 984 393 954 q 514 1014 465 1014 q 573 994 551 1014 q 594 940 594 974 q 560 863 594 893 q 474 832 525 832 q 415 852 436 832 q 393 906 393 872 m 506 976 q 460 958 481 976 q 439 913 439 940 q 451 882 439 894 q 482 869 463 869 q 528 888 506 869 q 550 933 550 906 q 538 965 550 953 q 506 976 525 976 z "},"^":{"ha":751,"x_min":72,"x_max":701,"o":"m 72 421 l 347 986 l 428 986 l 701 421 l 618 421 l 388 897 l 153 421 l 72 421 z "},"~":{"ha":683,"x_min":71,"x_max":606,"o":"m 71 335 q 84 365 72 342 q 117 413 96 388 q 168 458 138 438 q 239 478 199 478 q 295 465 269 478 q 344 438 321 453 q 392 410 368 422 q 443 397 415 397 q 489 408 469 397 q 522 431 508 418 q 541 455 535 443 q 547 469 547 467 l 606 469 q 594 445 606 467 q 561 399 583 424 q 506 355 539 375 q 431 335 474 335 q 371 347 397 335 q 321 375 344 360 q 275 403 297 390 q 228 415 253 415 q 186 403 204 415 q 156 376 168 390 q 137 349 143 361 q 131 335 131 336 l 71 335 l 71 335 z "},"*":{"ha":435,"x_min":179,"x_max":443,"o":"m 188 758 l 263 844 l 179 875 l 204 925 l 289 889 l 307 990 l 364 990 l 339 889 l 440 925 l 443 875 l 346 844 l 386 758 l 336 728 l 300 818 l 224 728 l 188 758 z "},"@":{"ha":1115,"x_min":35,"x_max":1029,"o":"m 778 29 q 860 68 822 29 q 924 165 897 107 q 966 292 951 224 q 981 418 981 360 q 957 559 981 492 q 888 678 933 626 q 777 760 843 729 q 626 790 711 790 q 426 746 524 790 q 253 624 329 701 q 130 444 176 547 q 83 225 83 342 q 108 74 83 143 q 176 -47 132 4 q 285 -126 221 -97 q 429 -156 350 -156 q 535 -142 485 -156 q 640 -103 586 -128 l 647 -147 q 530 -189 589 -175 q 415 -203 471 -203 q 262 -172 332 -203 q 141 -84 192 -140 q 63 50 90 -28 q 35 221 35 128 q 60 388 35 308 q 127 537 85 468 q 228 661 169 606 q 353 756 286 717 q 493 816 421 794 q 638 838 565 838 q 801 805 729 838 q 924 716 874 772 q 1002 586 975 660 q 1029 432 1029 513 q 1014 294 1029 372 q 966 145 999 215 q 883 26 933 75 q 761 -22 832 -22 q 697 -2 721 -22 q 674 67 674 18 q 674 85 674 75 q 676 106 674 94 q 569 33 631 61 q 446 4 508 4 q 358 24 397 4 q 290 77 318 43 q 248 156 263 111 q 233 254 233 201 q 261 397 233 328 q 335 517 289 465 q 442 601 382 569 q 568 632 503 632 q 686 597 639 632 q 754 503 733 561 l 779 625 l 842 625 l 738 138 q 732 105 733 118 q 731 83 731 92 q 778 29 731 29 m 474 61 q 541 74 507 61 q 606 108 575 86 q 659 157 636 129 q 694 217 682 185 l 735 431 q 669 539 714 504 q 565 574 624 574 q 469 549 517 574 q 385 484 422 525 q 324 388 347 443 q 300 271 300 333 q 313 187 300 225 q 350 120 326 149 q 405 76 374 92 q 474 61 436 61 z "},"ã":{"ha":831,"x_min":35,"x_max":789,"o":"m 292 -14 q 183 10 231 -14 q 103 76 136 35 q 52 173 69 118 q 35 289 35 228 q 68 456 35 375 q 157 599 101 536 q 285 699 213 661 q 436 736 357 736 q 581 688 524 736 q 661 572 638 640 l 694 724 l 789 724 l 661 124 q 658 106 658 113 q 685 83 658 83 l 667 0 q 646 -3 656 -1 q 629 -4 636 -4 q 581 13 597 -1 q 565 51 565 28 q 569 81 565 63 q 581 140 572 99 q 447 28 525 69 q 292 -14 368 -14 m 331 69 q 406 83 365 69 q 483 122 446 97 q 549 178 519 146 q 593 249 579 211 l 639 472 q 617 542 635 510 q 572 599 599 575 q 513 638 546 624 q 443 653 479 653 q 324 622 381 653 q 226 540 268 590 q 158 428 183 490 q 133 303 133 365 q 147 212 133 254 q 188 138 161 169 q 250 88 214 107 q 331 69 286 69 m 564 886 q 515 894 535 886 q 478 913 494 903 q 444 933 461 924 q 407 942 428 942 q 371 932 386 942 q 347 910 356 922 q 333 888 338 899 q 328 875 328 878 l 269 875 q 281 903 271 882 q 308 947 290 925 q 354 987 326 969 q 419 1004 382 1004 q 466 995 447 1004 q 501 975 485 986 q 535 955 518 964 q 576 946 551 946 q 619 956 601 946 q 646 978 636 965 q 660 1001 656 990 q 665 1014 665 1011 l 724 1014 q 713 986 722 1007 q 683 943 703 965 q 635 903 664 921 q 564 886 606 886 z "},"b":{"ha":822,"x_min":13,"x_max":765,"o":"m 353 -14 q 208 30 265 -14 q 126 140 150 74 l 96 0 l 13 0 l 228 1014 l 322 1014 l 228 572 q 364 691 290 646 q 521 736 438 736 q 628 711 582 736 q 704 645 674 686 q 750 551 735 604 q 765 440 765 497 q 730 267 765 350 q 637 122 694 185 q 505 23 579 60 q 353 -14 431 -14 m 350 69 q 467 99 410 69 q 568 178 524 129 q 639 292 613 228 q 665 424 665 356 q 653 510 665 468 q 617 583 640 551 q 558 634 593 615 q 476 653 522 653 q 400 638 438 653 q 328 600 363 624 q 264 544 294 576 q 207 476 233 511 l 157 236 q 175 169 158 200 q 217 117 192 139 q 278 82 243 94 q 350 69 313 69 z "},"\\":{"ha":742,"x_min":149,"x_max":619,"o":"m 256 986 l 619 0 l 514 0 l 149 986 l 256 986 z "},"|":{"ha":400,"x_min":165,"x_max":249,"o":"m 165 -181 l 165 1076 l 249 1076 l 249 -181 l 165 -181 z "},"{":{"ha":349,"x_min":33,"x_max":413,"o":"m 324 949 l 246 586 q 230 544 243 569 q 192 500 217 519 q 207 471 203 488 q 211 438 211 454 q 211 425 211 431 q 210 414 211 419 l 129 36 l 201 36 l 185 -43 l 56 -43 q 40 -37 47 -43 q 33 -17 33 -32 q 35 -1 33 -7 l 118 389 q 119 411 119 396 q 110 447 119 432 q 82 465 101 463 l 97 538 q 123 546 111 538 q 144 565 135 554 q 158 590 153 576 q 165 611 164 603 l 244 986 q 263 1020 250 1013 q 283 1028 276 1028 l 413 1028 l 396 949 l 324 949 z "},"}":{"ha":347,"x_min":-33,"x_max":347,"o":"m 179 949 l 194 1028 l 324 1028 q 338 1022 329 1028 q 347 999 347 1017 q 346 986 347 990 l 265 611 q 263 593 263 600 q 271 556 263 574 q 301 538 279 538 l 286 465 q 242 440 260 463 q 218 389 224 417 l 136 -1 q 118 -34 131 -25 q 96 -43 106 -43 l -33 -43 l -17 36 l 57 36 l 138 414 q 153 455 140 429 q 190 500 167 481 q 175 530 179 514 q 171 561 171 546 q 174 586 171 572 l 251 949 l 179 949 z "},"[":{"ha":349,"x_min":19,"x_max":411,"o":"m 19 -56 l 250 1028 l 411 1028 l 394 949 l 321 949 l 124 24 l 199 24 l 182 -56 l 19 -56 z "},"]":{"ha":347,"x_min":-35,"x_max":357,"o":"m -35 -56 l -18 24 l 56 24 l 253 949 l 179 949 l 196 1028 l 357 1028 l 128 -56 l -35 -56 z "},"¦":{"ha":392,"x_min":161,"x_max":244,"o":"m 244 385 l 244 -181 l 161 -181 l 161 385 l 244 385 m 244 1076 l 244 511 l 161 511 l 161 1076 l 244 1076 z "},"•":{"ha":474,"x_min":126,"x_max":369,"o":"m 369 501 q 357 446 369 472 q 324 399 344 419 q 276 367 303 379 q 221 356 249 356 q 153 385 179 356 q 126 458 126 414 q 139 514 126 488 q 172 560 151 540 q 219 592 193 581 q 274 604 246 604 q 344 574 318 604 q 369 501 369 544 z "},"c":{"ha":731,"x_min":35,"x_max":713,"o":"m 310 -14 q 194 10 246 -14 q 108 76 143 35 q 53 174 72 118 q 35 292 35 229 q 69 460 35 379 q 163 602 104 540 q 301 700 222 664 q 468 736 379 736 q 630 690 567 736 q 713 564 693 643 l 615 535 q 554 622 599 590 q 447 653 510 653 q 330 625 386 653 q 229 550 274 597 q 158 439 185 503 q 132 304 132 375 q 146 212 132 254 q 185 138 160 169 q 245 88 210 106 q 324 69 281 69 q 391 79 357 69 q 456 106 425 89 q 510 146 486 124 q 547 193 535 168 l 635 165 q 578 94 613 126 q 500 37 543 61 q 408 -1 457 13 q 310 -14 360 -14 z "},"ć":{"ha":731,"x_min":35,"x_max":713,"o":"m 469 861 l 411 885 l 517 1014 l 615 1014 l 469 861 m 310 -14 q 194 10 246 -14 q 108 76 143 35 q 53 174 72 118 q 35 292 35 229 q 69 460 35 379 q 163 602 104 540 q 301 700 222 664 q 468 736 379 736 q 630 690 567 736 q 713 564 693 643 l 615 535 q 554 622 599 590 q 447 653 510 653 q 330 625 386 653 q 229 550 274 597 q 158 439 185 503 q 132 304 132 375 q 146 212 132 254 q 185 138 160 169 q 245 88 210 106 q 324 69 281 69 q 391 79 357 69 q 456 106 425 89 q 510 146 486 124 q 547 193 535 168 l 635 165 q 578 94 613 126 q 500 37 543 61 q 408 -1 457 13 q 310 -14 360 -14 z "},"č":{"ha":731,"x_min":35,"x_max":713,"o":"m 349 986 l 408 1014 l 501 926 l 632 1014 l 679 986 l 524 867 l 454 867 l 349 986 m 310 -14 q 194 10 246 -14 q 108 76 143 35 q 53 174 72 118 q 35 292 35 229 q 69 460 35 379 q 163 602 104 540 q 301 700 222 664 q 468 736 379 736 q 630 690 567 736 q 713 564 693 643 l 615 535 q 554 622 599 590 q 447 653 510 653 q 330 625 386 653 q 229 550 274 597 q 158 439 185 503 q 132 304 132 375 q 146 212 132 254 q 185 138 160 169 q 245 88 210 106 q 324 69 281 69 q 391 79 357 69 q 456 106 425 89 q 510 146 486 124 q 547 193 535 168 l 635 165 q 578 94 613 126 q 500 37 543 61 q 408 -1 457 13 q 310 -14 360 -14 z "},"ç":{"ha":731,"x_min":35,"x_max":713,"o":"m 165 -175 q 210 -192 181 -185 q 275 -200 240 -200 q 364 -140 364 -200 q 348 -110 364 -118 q 307 -101 332 -101 q 247 -108 279 -101 q 196 -121 215 -114 l 274 -11 q 173 21 217 -6 q 98 88 129 47 q 51 181 67 128 q 35 292 35 233 q 69 460 35 379 q 163 602 104 540 q 301 700 222 664 q 468 736 379 736 q 630 690 567 736 q 713 564 693 643 l 615 535 q 554 622 599 590 q 447 653 510 653 q 330 625 386 653 q 229 550 274 597 q 158 439 185 503 q 132 304 132 375 q 146 212 132 254 q 185 138 160 169 q 245 88 210 106 q 324 69 281 69 q 391 79 357 69 q 456 106 425 89 q 510 146 486 124 q 547 193 535 168 l 635 165 q 580 96 613 128 q 507 41 547 64 q 421 3 467 18 q 326 -12 375 -11 l 281 -71 q 307 -64 293 -65 q 332 -62 321 -62 q 394 -80 372 -62 q 417 -131 417 -97 q 376 -214 417 -183 q 257 -244 335 -244 q 188 -237 219 -244 q 132 -218 156 -229 l 165 -175 z "},"ĉ":{"ha":731,"x_min":35,"x_max":713,"o":"m 338 896 l 494 1014 l 564 1014 l 668 896 l 610 867 l 515 954 l 385 867 l 338 896 m 310 -14 q 194 10 246 -14 q 108 76 143 35 q 53 174 72 118 q 35 292 35 229 q 69 460 35 379 q 163 602 104 540 q 301 700 222 664 q 468 736 379 736 q 630 690 567 736 q 713 564 693 643 l 615 535 q 554 622 599 590 q 447 653 510 653 q 330 625 386 653 q 229 550 274 597 q 158 439 185 503 q 132 304 132 375 q 146 212 132 254 q 185 138 160 169 q 245 88 210 106 q 324 69 281 69 q 391 79 357 69 q 456 106 425 89 q 510 146 486 124 q 547 193 535 168 l 635 165 q 578 94 613 126 q 500 37 543 61 q 408 -1 457 13 q 310 -14 360 -14 z "},"ċ":{"ha":731,"x_min":35,"x_max":713,"o":"m 310 -14 q 194 10 246 -14 q 108 76 143 35 q 53 174 72 118 q 35 292 35 229 q 69 460 35 379 q 163 602 104 540 q 301 700 222 664 q 468 736 379 736 q 630 690 567 736 q 713 564 693 643 l 615 535 q 554 622 599 590 q 447 653 510 653 q 330 625 386 653 q 229 550 274 597 q 158 439 185 503 q 132 304 132 375 q 146 212 132 254 q 185 138 160 169 q 245 88 210 106 q 324 69 281 69 q 391 79 357 69 q 456 106 425 89 q 510 146 486 124 q 547 193 535 168 l 635 165 q 578 94 613 126 q 500 37 543 61 q 408 -1 457 13 q 310 -14 360 -14 m 454 879 l 483 1014 l 569 1014 l 540 879 l 454 879 z "},"¢":{"ha":750,"x_min":40,"x_max":719,"o":"m 244 -167 l 278 -12 q 176 19 221 -8 q 102 90 132 47 q 56 185 72 132 q 40 293 40 238 q 70 447 40 371 q 153 583 100 522 q 279 685 207 644 q 436 735 351 726 l 471 896 l 521 896 l 486 735 q 640 687 583 732 q 719 564 697 642 l 622 535 q 564 619 604 592 q 468 650 524 647 l 346 71 q 402 82 371 72 q 463 107 433 92 q 517 144 493 122 q 554 193 542 167 l 642 165 q 578 87 617 121 q 495 31 539 53 q 407 -3 451 8 q 328 -14 363 -14 l 294 -167 l 244 -167 m 138 303 q 149 223 138 261 q 180 153 160 185 q 229 101 200 122 q 296 75 258 81 l 417 647 q 306 608 357 642 q 217 526 254 575 q 158 417 179 476 q 138 303 138 358 z "},":":{"ha":257,"x_min":-1,"x_max":232,"o":"m 122 583 l 151 719 l 232 719 l 203 583 l 122 583 m -1 0 l 29 136 l 108 136 l 79 0 l -1 0 z "},",":{"ha":308,"x_min":6,"x_max":140,"o":"m 6 -112 l 54 4 l 22 4 l 50 136 l 140 136 l 113 4 l 54 -112 l 6 -112 z "},"©":{"ha":1174,"x_min":92,"x_max":1114,"o":"m 601 -10 q 398 28 492 -10 q 236 134 304 67 q 130 293 168 201 q 92 493 92 385 q 130 692 92 600 q 236 850 168 783 q 398 955 304 917 q 601 993 492 993 q 805 955 711 993 q 967 850 899 917 q 1075 692 1036 783 q 1114 493 1114 600 q 1075 293 1114 385 q 967 134 1036 201 q 805 28 899 67 q 601 -10 711 -10 m 601 36 q 783 69 699 36 q 931 163 868 103 q 1029 306 993 222 q 1065 490 1065 389 q 1031 672 1065 589 q 933 817 996 756 q 786 913 871 878 q 601 947 701 947 q 417 913 501 947 q 270 817 332 878 q 174 673 208 757 q 139 492 139 589 q 174 311 139 394 q 270 167 208 228 q 417 71 332 106 q 601 36 501 36 m 611 171 q 490 194 549 171 q 386 258 431 217 q 315 360 342 300 q 288 493 288 419 q 307 610 288 551 q 365 714 326 668 q 463 789 404 760 q 603 818 522 818 q 766 778 694 818 q 869 664 838 739 l 779 635 q 744 685 765 665 q 697 715 722 704 q 648 731 672 726 q 603 735 624 735 q 506 713 547 735 q 438 658 465 692 q 398 580 411 624 q 385 493 385 536 q 406 391 385 436 q 458 315 426 346 q 530 269 490 285 q 607 253 569 253 q 660 260 632 253 q 713 281 688 268 q 758 314 738 294 q 789 358 778 333 l 879 332 q 847 278 869 307 q 789 226 824 250 q 709 186 754 201 q 611 171 664 171 z "},"d":{"ha":831,"x_min":35,"x_max":850,"o":"m 293 -14 q 184 10 232 -14 q 103 76 136 35 q 52 173 69 118 q 35 289 35 228 q 68 456 35 375 q 157 599 101 536 q 285 699 213 661 q 438 736 358 736 q 581 688 524 736 q 661 572 638 640 l 756 1014 l 850 1014 l 661 124 q 658 107 658 110 q 685 83 658 83 l 667 0 q 648 -2 656 -1 q 633 -3 640 -3 q 583 13 600 -3 q 565 53 565 29 q 568 80 565 63 q 581 140 571 97 q 447 28 525 69 q 293 -14 368 -14 m 332 69 q 405 83 365 69 q 482 122 444 97 q 549 178 519 146 q 593 249 579 211 l 639 472 q 617 542 635 510 q 572 600 599 575 q 513 639 546 625 q 444 653 479 653 q 325 622 382 653 q 226 541 268 590 q 158 429 183 492 q 133 304 133 367 q 147 213 133 256 q 188 139 161 171 q 250 88 214 107 q 332 69 286 69 z "},"†":{"ha":549,"x_min":38,"x_max":493,"o":"m 103 -181 l 211 333 l 38 333 l 56 419 l 229 419 l 369 1076 l 460 1076 l 319 419 l 493 419 l 475 333 l 301 333 l 193 -181 l 103 -181 z "},"‡":{"ha":550,"x_min":15,"x_max":522,"o":"m 104 -181 l 189 221 l 15 221 l 33 308 l 207 308 l 240 461 l 67 461 l 85 549 l 258 549 l 371 1076 l 461 1076 l 349 549 l 522 549 l 503 461 l 331 461 l 297 308 l 471 308 l 453 221 l 279 221 l 194 -181 l 104 -181 z "},"ď":{"ha":831,"x_min":35,"x_max":1089,"o":"m 883 885 l 989 1014 l 1089 1014 l 942 861 l 883 885 m 293 -14 q 184 10 232 -14 q 103 76 136 35 q 52 173 69 118 q 35 289 35 228 q 68 456 35 375 q 157 599 101 536 q 285 699 213 661 q 438 736 358 736 q 581 688 524 736 q 661 572 638 640 l 756 1014 l 850 1014 l 661 124 q 658 107 658 110 q 685 83 658 83 l 667 0 q 648 -2 656 -1 q 633 -3 640 -3 q 583 13 600 -3 q 565 53 565 29 q 568 80 565 63 q 581 140 571 97 q 447 28 525 69 q 293 -14 368 -14 m 332 69 q 405 83 365 69 q 482 122 444 97 q 549 178 519 146 q 593 249 579 211 l 639 472 q 617 542 635 510 q 572 600 599 575 q 513 639 546 625 q 444 653 479 653 q 325 622 382 653 q 226 541 268 590 q 158 429 183 492 q 133 304 133 367 q 147 213 133 256 q 188 139 161 171 q 250 88 214 107 q 332 69 286 69 z "},"đ":{"ha":831,"x_min":35,"x_max":932,"o":"m 596 911 l 733 911 l 756 1014 l 850 1014 l 828 911 l 932 911 l 919 847 l 814 847 l 661 124 q 658 107 658 110 q 685 83 658 83 l 667 0 q 648 -2 656 -1 q 633 -3 640 -3 q 583 13 600 -3 q 565 53 565 29 q 568 80 565 63 q 581 140 571 97 q 447 28 525 69 q 293 -14 368 -14 q 184 10 232 -14 q 103 76 136 35 q 52 173 69 118 q 35 289 35 228 q 68 456 35 375 q 157 599 101 536 q 285 699 213 661 q 438 736 358 736 q 581 688 524 736 q 661 572 638 640 l 719 847 l 582 847 l 596 911 m 332 69 q 405 83 365 69 q 482 122 444 97 q 549 178 519 146 q 593 249 579 211 l 639 472 q 617 542 635 510 q 572 600 599 575 q 513 639 546 625 q 444 653 479 653 q 325 622 382 653 q 226 541 268 590 q 158 429 183 492 q 133 304 133 367 q 147 213 133 256 q 188 139 161 171 q 250 88 214 107 q 332 69 286 69 z "},"°":{"ha":360,"x_min":163,"x_max":390,"o":"m 251 775 q 187 800 211 775 q 163 865 163 825 q 174 917 163 892 q 203 961 185 942 q 247 993 222 981 q 301 1006 272 1006 q 366 979 342 1006 q 390 913 390 953 q 379 860 390 885 q 349 816 368 835 q 304 786 329 797 q 251 775 279 775 m 264 829 q 313 851 289 829 q 336 901 336 872 q 324 938 336 925 q 290 950 311 950 q 240 929 263 950 q 218 879 218 908 q 231 842 218 856 q 264 829 243 829 z "},"÷":{"ha":746,"x_min":86,"x_max":646,"o":"m 325 554 l 325 681 l 407 681 l 407 554 l 325 554 m 325 103 l 325 228 l 407 228 l 407 103 l 325 103 m 86 353 l 86 432 l 646 432 l 646 353 l 86 353 z "},"$":{"ha":825,"x_min":-7,"x_max":821,"o":"m 758 801 q 674 875 731 846 q 539 907 618 904 l 461 536 q 576 505 524 522 q 665 461 628 488 q 722 398 701 435 q 742 310 742 361 q 712 173 742 232 q 629 74 682 114 q 505 14 576 35 q 351 -8 433 -7 l 322 -143 l 272 -143 l 301 -7 q -7 135 107 6 l 58 214 q 161 124 92 163 q 324 79 231 86 l 403 450 q 292 485 340 467 q 210 526 243 503 q 160 583 176 550 q 143 660 143 615 q 172 793 143 733 q 250 895 200 853 q 367 963 300 938 q 513 992 435 988 l 543 1132 l 593 1132 l 564 993 q 713 960 650 990 q 821 879 776 931 l 758 801 m 635 281 q 585 378 635 344 q 440 440 535 413 l 363 78 q 562 130 489 78 q 635 281 635 182 m 249 690 q 292 600 249 631 q 422 546 335 569 l 499 906 q 308 839 367 899 q 249 690 249 779 z "},"ı":{"ha":296,"x_min":13,"x_max":260,"o":"m 165 724 l 260 724 l 107 0 l 13 0 l 165 724 z "},"ȷ":{"ha":296,"x_min":-292,"x_max":260,"o":"m -153 -251 q -233 -239 -197 -251 q -292 -197 -268 -226 l -233 -133 q -194 -160 -218 -153 q -144 -167 -169 -167 q -98 -157 -122 -167 q -53 -130 -74 -147 q -17 -89 -32 -112 q 4 -37 -1 -65 l 165 724 l 260 724 l 99 -32 q 63 -121 89 -81 q 3 -190 38 -161 q -73 -235 -32 -219 q -153 -251 -114 -251 z "},"e":{"ha":742,"x_min":35,"x_max":701,"o":"m 314 -14 q 195 10 247 -14 q 108 75 143 33 q 53 172 72 117 q 35 292 35 228 q 68 458 35 378 q 160 599 101 538 q 298 699 218 661 q 471 736 378 736 q 560 724 518 736 q 634 687 603 711 q 683 626 665 663 q 701 542 701 589 q 607 381 701 435 q 315 326 513 326 q 231 328 276 326 q 133 333 186 329 q 131 313 132 322 q 131 293 131 303 q 143 203 131 246 q 181 128 156 161 q 243 77 206 96 q 331 58 281 58 q 399 68 364 58 q 465 95 433 78 q 522 138 496 113 q 567 193 549 163 l 644 169 q 583 95 619 129 q 503 37 547 61 q 412 -1 460 13 q 314 -14 364 -14 m 461 663 q 347 640 399 663 q 256 582 296 618 q 188 499 215 546 q 146 401 160 451 q 238 397 196 399 q 319 394 281 394 q 458 406 401 394 q 550 436 515 417 q 600 483 585 456 q 615 543 615 511 q 569 634 615 606 q 461 663 524 663 z "},"é":{"ha":742,"x_min":35,"x_max":701,"o":"m 472 861 l 414 885 l 519 1014 l 618 1014 l 472 861 m 314 -14 q 195 10 247 -14 q 108 75 143 33 q 53 172 72 117 q 35 292 35 228 q 68 458 35 378 q 160 599 101 538 q 298 699 218 661 q 471 736 378 736 q 560 724 518 736 q 634 687 603 711 q 683 626 665 663 q 701 542 701 589 q 607 381 701 435 q 315 326 513 326 q 231 328 276 326 q 133 333 186 329 q 131 313 132 322 q 131 293 131 303 q 143 203 131 246 q 181 128 156 161 q 243 77 206 96 q 331 58 281 58 q 399 68 364 58 q 465 95 433 78 q 522 138 496 113 q 567 193 549 163 l 644 169 q 583 95 619 129 q 503 37 547 61 q 412 -1 460 13 q 314 -14 364 -14 m 461 663 q 347 640 399 663 q 256 582 296 618 q 188 499 215 546 q 146 401 160 451 q 238 397 196 399 q 319 394 281 394 q 458 406 401 394 q 550 436 515 417 q 600 483 585 456 q 615 543 615 511 q 569 634 615 606 q 461 663 524 663 z "},"ĕ":{"ha":742,"x_min":35,"x_max":701,"o":"m 314 -14 q 195 10 247 -14 q 108 75 143 33 q 53 172 72 117 q 35 292 35 228 q 68 458 35 378 q 160 599 101 538 q 298 699 218 661 q 471 736 378 736 q 560 724 518 736 q 634 687 603 711 q 683 626 665 663 q 701 542 701 589 q 607 381 701 435 q 315 326 513 326 q 231 328 276 326 q 133 333 186 329 q 131 313 132 322 q 131 293 131 303 q 143 203 131 246 q 181 128 156 161 q 243 77 206 96 q 331 58 281 58 q 399 68 364 58 q 465 95 433 78 q 522 138 496 113 q 567 193 549 163 l 644 169 q 583 95 619 129 q 503 37 547 61 q 412 -1 460 13 q 314 -14 364 -14 m 461 663 q 347 640 399 663 q 256 582 296 618 q 188 499 215 546 q 146 401 160 451 q 238 397 196 399 q 319 394 281 394 q 458 406 401 394 q 550 436 515 417 q 600 483 585 456 q 615 543 615 511 q 569 634 615 606 q 461 663 524 663 m 496 922 q 551 949 524 922 q 592 1014 579 975 l 647 1014 q 625 959 640 985 q 588 915 610 933 q 540 885 567 896 q 486 874 514 874 q 408 904 438 874 q 379 982 379 935 q 383 1014 379 997 l 442 1014 q 439 993 439 1000 q 455 943 439 964 q 496 922 471 922 z "},"ě":{"ha":742,"x_min":35,"x_max":701,"o":"m 350 986 l 410 1014 l 503 926 l 633 1014 l 681 986 l 525 867 l 456 867 l 350 986 m 314 -14 q 195 10 247 -14 q 108 75 143 33 q 53 172 72 117 q 35 292 35 228 q 68 458 35 378 q 160 599 101 538 q 298 699 218 661 q 471 736 378 736 q 560 724 518 736 q 634 687 603 711 q 683 626 665 663 q 701 542 701 589 q 607 381 701 435 q 315 326 513 326 q 231 328 276 326 q 133 333 186 329 q 131 313 132 322 q 131 293 131 303 q 143 203 131 246 q 181 128 156 161 q 243 77 206 96 q 331 58 281 58 q 399 68 364 58 q 465 95 433 78 q 522 138 496 113 q 567 193 549 163 l 644 169 q 583 95 619 129 q 503 37 547 61 q 412 -1 460 13 q 314 -14 364 -14 m 461 663 q 347 640 399 663 q 256 582 296 618 q 188 499 215 546 q 146 401 160 451 q 238 397 196 399 q 319 394 281 394 q 458 406 401 394 q 550 436 515 417 q 600 483 585 456 q 615 543 615 511 q 569 634 615 606 q 461 663 524 663 z "},"ê":{"ha":742,"x_min":35,"x_max":701,"o":"m 342 896 l 499 1014 l 568 1014 l 672 896 l 614 867 l 519 954 l 389 867 l 342 896 m 314 -14 q 195 10 247 -14 q 108 75 143 33 q 53 172 72 117 q 35 292 35 228 q 68 458 35 378 q 160 599 101 538 q 298 699 218 661 q 471 736 378 736 q 560 724 518 736 q 634 687 603 711 q 683 626 665 663 q 701 542 701 589 q 607 381 701 435 q 315 326 513 326 q 231 328 276 326 q 133 333 186 329 q 131 313 132 322 q 131 293 131 303 q 143 203 131 246 q 181 128 156 161 q 243 77 206 96 q 331 58 281 58 q 399 68 364 58 q 465 95 433 78 q 522 138 496 113 q 567 193 549 163 l 644 169 q 583 95 619 129 q 503 37 547 61 q 412 -1 460 13 q 314 -14 364 -14 m 461 663 q 347 640 399 663 q 256 582 296 618 q 188 499 215 546 q 146 401 160 451 q 238 397 196 399 q 319 394 281 394 q 458 406 401 394 q 550 436 515 417 q 600 483 585 456 q 615 543 615 511 q 569 634 615 606 q 461 663 524 663 z "},"ë":{"ha":742,"x_min":35,"x_max":701,"o":"m 351 879 l 381 1010 l 461 1010 l 432 879 l 351 879 m 551 879 l 579 1010 l 658 1010 l 632 879 l 551 879 m 314 -14 q 195 10 247 -14 q 108 75 143 33 q 53 172 72 117 q 35 292 35 228 q 68 458 35 378 q 160 599 101 538 q 298 699 218 661 q 471 736 378 736 q 560 724 518 736 q 634 687 603 711 q 683 626 665 663 q 701 542 701 589 q 607 381 701 435 q 315 326 513 326 q 231 328 276 326 q 133 333 186 329 q 131 313 132 322 q 131 293 131 303 q 143 203 131 246 q 181 128 156 161 q 243 77 206 96 q 331 58 281 58 q 399 68 364 58 q 465 95 433 78 q 522 138 496 113 q 567 193 549 163 l 644 169 q 583 95 619 129 q 503 37 547 61 q 412 -1 460 13 q 314 -14 364 -14 m 461 663 q 347 640 399 663 q 256 582 296 618 q 188 499 215 546 q 146 401 160 451 q 238 397 196 399 q 319 394 281 394 q 458 406 401 394 q 550 436 515 417 q 600 483 585 456 q 615 543 615 511 q 569 634 615 606 q 461 663 524 663 z "},"ė":{"ha":742,"x_min":35,"x_max":701,"o":"m 314 -14 q 195 10 247 -14 q 108 75 143 33 q 53 172 72 117 q 35 292 35 228 q 68 458 35 378 q 160 599 101 538 q 298 699 218 661 q 471 736 378 736 q 560 724 518 736 q 634 687 603 711 q 683 626 665 663 q 701 542 701 589 q 607 381 701 435 q 315 326 513 326 q 231 328 276 326 q 133 333 186 329 q 131 313 132 322 q 131 293 131 303 q 143 203 131 246 q 181 128 156 161 q 243 77 206 96 q 331 58 281 58 q 399 68 364 58 q 465 95 433 78 q 522 138 496 113 q 567 193 549 163 l 644 169 q 583 95 619 129 q 503 37 547 61 q 412 -1 460 13 q 314 -14 364 -14 m 461 663 q 347 640 399 663 q 256 582 296 618 q 188 499 215 546 q 146 401 160 451 q 238 397 196 399 q 319 394 281 394 q 458 406 401 394 q 550 436 515 417 q 600 483 585 456 q 615 543 615 511 q 569 634 615 606 q 461 663 524 663 m 454 879 l 483 1014 l 569 1014 l 540 879 l 454 879 z "},"è":{"ha":742,"x_min":35,"x_max":701,"o":"m 314 -14 q 195 10 247 -14 q 108 75 143 33 q 53 172 72 117 q 35 292 35 228 q 68 458 35 378 q 160 599 101 538 q 298 699 218 661 q 471 736 378 736 q 560 724 518 736 q 634 687 603 711 q 683 626 665 663 q 701 542 701 589 q 607 381 701 435 q 315 326 513 326 q 231 328 276 326 q 133 333 186 329 q 131 313 132 322 q 131 293 131 303 q 143 203 131 246 q 181 128 156 161 q 243 77 206 96 q 331 58 281 58 q 399 68 364 58 q 465 95 433 78 q 522 138 496 113 q 567 193 549 163 l 644 169 q 583 95 619 129 q 503 37 547 61 q 412 -1 460 13 q 314 -14 364 -14 m 461 663 q 347 640 399 663 q 256 582 296 618 q 188 499 215 546 q 146 401 160 451 q 238 397 196 399 q 319 394 281 394 q 458 406 401 394 q 550 436 515 417 q 600 483 585 456 q 615 543 615 511 q 569 634 615 606 q 461 663 524 663 m 411 1014 l 508 1014 l 561 885 l 493 861 l 411 1014 z "},"₈":{"ha":533,"x_min":-29,"x_max":438,"o":"m 403 65 q 381 -8 403 25 q 324 -66 360 -42 q 243 -104 289 -90 q 150 -118 197 -118 q 19 -76 67 -118 q -29 24 -29 -35 q -16 81 -29 56 q 19 128 -3 107 q 69 163 42 149 q 125 186 97 178 q 70 224 93 199 q 47 285 47 249 q 68 350 47 321 q 121 400 89 379 q 193 432 153 421 q 271 443 233 443 q 333 435 303 443 q 386 410 363 426 q 424 372 410 394 q 438 322 438 350 q 399 237 438 271 q 307 186 360 203 q 376 140 350 171 q 403 65 403 110 m 340 64 q 329 103 340 86 q 299 133 318 121 q 258 152 281 146 q 210 158 235 158 q 148 149 179 158 q 92 124 117 140 q 51 85 67 108 q 35 35 35 63 q 46 -3 35 14 q 76 -33 57 -21 q 118 -51 94 -44 q 167 -57 142 -57 q 228 -48 197 -57 q 283 -24 258 -39 q 324 14 308 -8 q 340 64 340 36 m 110 285 q 145 229 110 249 q 222 210 181 210 q 274 217 247 210 q 322 236 300 224 q 358 267 343 249 q 372 308 372 285 q 338 365 372 344 q 258 385 304 385 q 203 378 231 385 q 156 358 176 371 q 122 326 135 344 q 110 285 110 307 z "},"⁸":{"ha":532,"x_min":115,"x_max":581,"o":"m 547 747 q 526 674 547 707 q 469 616 504 640 q 388 578 433 592 q 294 564 342 564 q 163 606 211 564 q 115 706 115 647 q 128 763 115 738 q 164 809 142 789 q 214 844 186 829 q 269 868 242 858 q 215 906 238 881 q 192 967 192 931 q 213 1032 192 1003 q 265 1082 233 1061 q 338 1114 297 1103 q 415 1125 378 1125 q 477 1117 447 1125 q 530 1092 507 1108 q 567 1054 553 1076 q 581 1004 581 1032 q 542 919 581 953 q 451 868 504 885 q 520 822 493 853 q 547 747 547 792 m 485 746 q 474 785 485 768 q 444 815 463 803 q 403 834 426 828 q 356 840 379 840 q 292 831 324 840 q 236 806 261 822 q 195 767 211 790 q 179 718 179 744 q 190 678 179 696 q 220 649 201 661 q 263 631 239 638 q 311 625 286 625 q 372 634 342 625 q 428 658 403 643 q 469 696 453 674 q 485 746 485 718 m 253 968 q 263 935 253 950 q 288 911 272 921 q 324 897 304 901 q 365 892 344 892 q 417 899 390 892 q 465 918 443 906 q 502 949 488 931 q 517 990 517 967 q 482 1046 517 1026 q 403 1065 447 1065 q 348 1058 375 1065 q 300 1039 321 1051 q 266 1008 279 1026 q 253 968 253 990 z "},"…":{"ha":624,"x_min":3,"x_max":475,"o":"m 3 0 l 32 136 l 113 136 l 83 0 l 3 0 m 185 0 l 214 136 l 293 136 l 264 0 l 185 0 m 365 0 l 394 136 l 475 136 l 446 0 l 365 0 z "},"ē":{"ha":742,"x_min":35,"x_max":704,"o":"m 314 -14 q 195 10 247 -14 q 108 75 143 33 q 53 172 72 117 q 35 292 35 228 q 68 458 35 378 q 160 599 101 538 q 298 699 218 661 q 471 736 378 736 q 560 724 518 736 q 634 687 603 711 q 683 626 665 663 q 701 542 701 589 q 607 381 701 435 q 315 326 513 326 q 231 328 276 326 q 133 333 186 329 q 131 313 132 322 q 131 293 131 303 q 143 203 131 246 q 181 128 156 161 q 243 77 206 96 q 331 58 281 58 q 399 68 364 58 q 465 95 433 78 q 522 138 496 113 q 567 193 549 163 l 644 169 q 583 95 619 129 q 503 37 547 61 q 412 -1 460 13 q 314 -14 364 -14 m 461 663 q 347 640 399 663 q 256 582 296 618 q 188 499 215 546 q 146 401 160 451 q 238 397 196 399 q 319 394 281 394 q 458 406 401 394 q 550 436 515 417 q 600 483 585 456 q 615 543 615 511 q 569 634 615 606 q 461 663 524 663 m 308 919 l 322 985 l 704 985 l 690 919 l 308 919 z "},"—":{"ha":1197,"x_min":71,"x_max":1108,"o":"m 71 335 l 89 422 l 1108 422 l 1090 335 l 71 335 z "},"–":{"ha":761,"x_min":71,"x_max":672,"o":"m 71 335 l 89 422 l 672 422 l 654 335 l 71 335 z "},"ŋ":{"ha":776,"x_min":13,"x_max":701,"o":"m 336 -251 q 256 -239 292 -251 q 196 -197 219 -226 l 256 -133 q 294 -160 271 -153 q 343 -167 318 -167 q 389 -157 365 -167 q 433 -130 413 -147 q 470 -89 454 -112 q 492 -37 486 -65 l 586 404 q 600 522 600 472 q 492 650 600 650 q 410 635 453 650 q 328 592 368 619 q 256 526 289 564 q 200 443 222 488 l 107 0 l 13 0 l 165 724 l 253 724 l 217 560 q 284 631 246 599 q 365 688 322 664 q 453 724 407 711 q 544 736 499 736 q 665 690 629 736 q 701 564 701 644 q 697 498 701 532 q 683 424 692 464 l 588 -32 q 552 -121 578 -81 q 491 -190 526 -161 q 415 -235 456 -219 q 336 -251 375 -251 z "},"ę":{"ha":742,"x_min":35,"x_max":701,"o":"m 253 -251 q 190 -219 211 -242 q 169 -167 169 -197 q 199 -92 169 -129 q 294 -14 228 -56 q 183 15 232 -10 q 102 81 135 40 q 52 176 69 122 q 35 292 35 231 q 68 458 35 378 q 160 599 101 538 q 298 699 218 661 q 471 736 378 736 q 560 724 518 736 q 634 687 603 711 q 683 626 665 663 q 701 542 701 589 q 607 381 701 435 q 315 326 513 326 q 231 328 276 326 q 133 333 186 329 q 131 313 132 322 q 131 293 131 303 q 143 203 131 246 q 181 128 156 161 q 243 77 206 96 q 331 58 281 58 q 399 68 364 58 q 465 95 433 78 q 522 138 496 113 q 567 193 549 163 l 644 169 q 525 50 600 99 q 364 -10 450 1 q 260 -85 290 -54 q 231 -149 231 -117 q 289 -199 231 -190 l 253 -251 m 461 663 q 347 640 399 663 q 256 582 296 618 q 188 499 215 546 q 146 401 160 451 q 238 397 196 399 q 319 394 281 394 q 458 406 401 394 q 550 436 515 417 q 600 483 585 456 q 615 543 615 511 q 569 634 615 606 q 461 663 524 663 z "},"=":{"ha":654,"x_min":110,"x_max":528,"o":"m 110 269 l 110 338 l 528 338 l 528 269 l 110 269 m 110 429 l 110 497 l 528 497 l 528 429 l 110 429 z "},"ð":{"ha":804,"x_min":29,"x_max":769,"o":"m 769 949 l 643 876 q 728 694 704 789 q 753 515 753 600 q 713 295 753 393 q 610 128 674 197 q 465 23 546 60 q 301 -14 385 -14 q 190 8 240 -14 q 105 67 140 29 q 49 156 69 106 q 29 265 29 207 q 64 415 29 343 q 155 540 99 486 q 283 626 211 594 q 431 658 356 658 q 580 613 518 658 q 661 496 642 568 q 643 667 661 582 q 564 839 625 753 l 401 744 l 381 788 l 535 875 q 376 1014 478 942 l 507 1014 q 565 965 539 990 q 615 913 592 940 l 749 990 l 769 949 m 126 276 q 140 196 126 233 q 181 130 154 158 q 242 85 207 101 q 322 69 278 69 q 437 95 381 69 q 536 164 493 121 q 606 263 579 207 q 632 378 632 318 q 617 458 632 421 q 577 522 603 494 q 515 564 551 549 q 435 579 478 579 q 321 554 376 579 q 222 488 265 529 q 153 391 179 446 q 126 276 126 336 z "},"ẽ":{"ha":742,"x_min":35,"x_max":731,"o":"m 314 -14 q 195 10 247 -14 q 108 75 143 33 q 53 172 72 117 q 35 292 35 228 q 68 458 35 378 q 160 599 101 538 q 298 699 218 661 q 471 736 378 736 q 560 724 518 736 q 634 687 603 711 q 683 626 665 663 q 701 542 701 589 q 607 381 701 435 q 315 326 513 326 q 231 328 276 326 q 133 333 186 329 q 131 313 132 322 q 131 293 131 303 q 143 203 131 246 q 181 128 156 161 q 243 77 206 96 q 331 58 281 58 q 399 68 364 58 q 465 95 433 78 q 522 138 496 113 q 567 193 549 163 l 644 169 q 583 95 619 129 q 503 37 547 61 q 412 -1 460 13 q 314 -14 364 -14 m 461 663 q 347 640 399 663 q 256 582 296 618 q 188 499 215 546 q 146 401 160 451 q 238 397 196 399 q 319 394 281 394 q 458 406 401 394 q 550 436 515 417 q 600 483 585 456 q 615 543 615 511 q 569 634 615 606 q 461 663 524 663 m 571 886 q 522 894 542 886 q 485 913 501 903 q 451 933 468 924 q 414 942 435 942 q 378 932 393 942 q 353 910 363 922 q 340 888 344 899 q 335 875 335 878 l 276 875 q 288 903 278 882 q 315 947 297 925 q 361 987 333 969 q 426 1004 389 1004 q 473 995 454 1004 q 508 975 492 986 q 542 955 525 964 q 583 946 558 946 q 626 956 608 946 q 653 978 643 965 q 667 1001 663 990 q 672 1014 672 1011 l 731 1014 q 719 986 729 1007 q 690 943 710 965 q 642 903 671 921 q 571 886 613 886 z "},"!":{"ha":344,"x_min":36,"x_max":342,"o":"m 104 317 l 247 996 l 342 996 l 199 317 l 104 317 m 36 0 l 69 156 l 165 156 l 131 0 l 36 0 z "},"¡":{"ha":343,"x_min":35,"x_max":340,"o":"m 274 676 l 129 -3 l 35 -3 l 179 676 l 274 676 m 340 993 l 308 838 l 211 838 l 246 993 l 340 993 z "},"f":{"ha":447,"x_min":-19,"x_max":601,"o":"m 181 649 l 86 649 l 101 724 l 197 724 l 200 743 q 235 863 210 810 q 295 952 260 915 q 374 1008 331 989 q 465 1028 418 1028 q 541 1015 506 1028 q 601 982 576 1003 l 558 914 q 518 938 543 929 q 467 946 493 946 q 360 894 404 946 q 296 746 317 843 l 292 724 l 479 724 l 464 649 l 275 649 l 75 -294 l -19 -294 l 181 649 z "},"ﬀ":{"ha":781,"x_min":43,"x_max":925,"o":"m 181 649 l 86 649 l 101 724 l 197 724 l 199 732 q 232 822 210 778 q 288 899 254 865 q 364 953 321 933 q 461 974 407 974 q 544 963 508 974 q 603 938 579 951 q 686 1003 639 978 q 796 1028 733 1028 q 847 1022 826 1028 q 883 1009 868 1017 q 908 994 899 1001 q 925 982 918 986 l 883 914 q 854 934 872 924 q 796 944 836 944 q 722 926 754 944 q 665 881 689 908 q 624 817 640 853 q 601 746 608 781 l 597 724 l 813 724 l 797 649 l 581 649 l 443 0 l 349 0 l 486 649 l 275 649 l 138 0 l 43 0 l 181 649 m 503 724 q 524 800 510 763 q 557 864 538 838 q 510 886 539 881 q 460 892 482 892 q 394 878 422 892 q 345 841 365 864 q 312 790 325 818 q 293 733 299 761 l 292 724 l 503 724 z "},"ﬃ":{"ha":978,"x_min":43,"x_max":1000,"o":"m 181 649 l 86 649 l 101 724 l 197 724 l 199 732 q 231 818 208 775 q 286 896 253 861 q 363 952 319 931 q 461 974 407 974 q 544 963 508 974 q 603 938 579 951 q 694 1003 642 978 q 813 1028 746 1028 q 875 1021 846 1028 q 928 1004 904 1014 q 971 983 953 994 q 1000 963 989 971 l 943 894 q 888 929 926 914 q 804 944 849 944 q 726 926 760 944 q 667 881 692 908 q 625 817 642 853 q 601 746 608 781 l 597 724 l 943 724 l 789 0 l 694 0 l 832 649 l 581 649 l 443 0 l 349 0 l 486 649 l 275 649 l 138 0 l 43 0 l 181 649 m 503 724 q 524 799 510 760 q 557 864 538 838 q 510 886 539 881 q 460 892 482 892 q 393 877 422 892 q 344 840 364 863 q 311 788 324 817 q 293 733 299 760 l 292 724 l 503 724 z "},"ﬄ":{"ha":1088,"x_min":43,"x_max":1010,"o":"m 874 -8 q 788 20 815 -8 q 760 93 760 49 q 761 117 760 106 q 767 149 763 129 l 904 793 q 908 815 907 804 q 910 836 910 825 q 885 913 910 881 q 799 944 860 944 q 725 927 757 944 q 669 881 693 910 q 630 814 646 851 q 606 736 614 776 l 603 724 l 744 724 l 728 649 l 586 649 l 449 0 l 354 0 l 492 649 l 275 649 l 138 0 l 43 0 l 181 649 l 86 649 l 101 724 l 197 724 l 199 732 q 234 823 210 779 q 293 900 258 867 q 372 953 328 933 q 468 974 415 974 q 547 963 517 974 q 601 938 578 951 q 694 1004 642 981 q 813 1028 746 1028 q 961 983 913 1028 q 1010 865 1010 938 q 1003 811 1010 843 l 865 163 q 863 139 863 149 q 876 96 863 115 q 921 76 889 76 q 946 78 932 76 q 972 84 960 81 q 994 90 985 88 q 1004 92 1003 92 l 1001 14 q 989 9 1001 13 q 958 1 976 6 q 917 -6 940 -3 q 874 -8 894 -8 m 507 724 q 528 803 517 764 q 556 865 540 842 q 514 887 538 882 q 468 892 490 892 q 402 878 432 892 q 349 842 372 864 q 313 791 326 819 q 293 735 299 763 l 292 724 l 507 724 z "},"ﬁ":{"ha":672,"x_min":43,"x_max":694,"o":"m 181 649 l 86 649 l 101 724 l 197 724 l 200 743 q 232 844 207 793 q 297 935 257 894 q 390 1002 338 976 q 507 1028 443 1028 q 626 1004 579 1028 q 694 963 674 981 l 638 894 q 581 930 618 915 q 494 944 543 944 q 419 926 453 944 q 361 881 386 908 q 319 817 336 853 q 296 746 303 781 l 292 724 l 636 724 l 482 0 l 388 0 l 525 649 l 275 649 l 138 0 l 43 0 l 181 649 z "},"ﬂ":{"ha":776,"x_min":43,"x_max":699,"o":"m 560 -8 q 476 21 504 -8 q 449 93 449 50 q 450 115 449 104 q 456 143 451 125 l 594 793 q 599 815 597 804 q 600 836 600 825 q 574 912 600 879 q 485 944 549 944 q 415 928 446 944 q 360 885 383 913 q 319 820 336 857 q 294 742 303 783 l 292 724 l 433 724 l 418 649 l 275 649 l 138 0 l 43 0 l 181 649 l 86 649 l 101 724 l 197 724 l 203 750 q 242 862 215 811 q 306 949 268 913 q 392 1007 343 986 q 501 1028 442 1028 q 650 983 601 1028 q 699 865 699 939 q 693 811 699 838 l 556 163 q 553 140 553 149 q 566 97 553 117 q 610 76 579 76 q 658 83 633 76 q 694 92 683 89 l 692 14 q 678 9 690 13 q 648 1 667 6 q 606 -6 629 -3 q 560 -8 582 -8 z "},"⅝":{"ha":1156,"x_min":81,"x_max":1083,"o":"m 344 813 q 467 772 419 813 q 514 667 514 732 q 492 581 514 619 q 435 513 471 542 q 352 469 399 485 q 254 453 306 453 q 142 481 189 453 q 81 557 96 508 l 129 592 q 181 533 144 556 q 271 511 218 511 q 338 522 306 511 q 395 553 371 533 q 434 599 419 572 q 449 660 449 626 q 412 736 449 710 q 329 763 375 763 q 248 744 289 763 q 181 697 207 726 l 124 697 q 154 769 133 722 q 196 865 175 815 q 235 956 217 914 q 260 1014 253 997 l 557 1014 l 543 953 l 293 953 l 213 771 q 344 813 269 813 m 99 38 l 1028 992 l 1067 950 l 138 -6 l 99 38 m 796 -7 q 665 35 713 -7 q 617 135 617 76 q 630 192 617 167 q 665 239 643 218 q 715 274 688 260 q 771 297 743 289 q 716 335 739 310 q 693 396 693 360 q 714 461 693 432 q 767 511 735 490 q 839 543 799 532 q 917 554 879 554 q 978 546 949 554 q 1032 522 1008 538 q 1069 483 1056 506 q 1083 433 1083 461 q 1044 348 1083 382 q 953 297 1006 314 q 1022 251 996 282 q 1049 176 1049 221 q 1027 103 1049 136 q 970 45 1006 69 q 889 7 935 21 q 796 -7 843 -7 m 813 54 q 874 63 843 54 q 929 88 904 72 q 970 125 954 103 q 986 175 986 147 q 975 215 986 197 q 945 244 964 232 q 903 263 926 257 q 856 269 881 269 q 794 260 825 269 q 738 235 763 251 q 697 197 713 219 q 681 146 681 174 q 692 108 681 125 q 722 78 703 90 q 764 60 740 67 q 813 54 788 54 m 868 321 q 919 328 893 321 q 967 347 946 335 q 1003 378 989 360 q 1018 419 1018 396 q 983 476 1018 456 q 904 496 949 496 q 849 489 876 496 q 801 469 822 482 q 768 437 781 456 q 756 396 756 418 q 791 340 756 360 q 868 321 826 321 z "},"⁄":{"ha":214,"x_min":-361,"x_max":607,"o":"m -361 38 l 568 992 l 607 950 l -322 -6 l -361 38 z "},"⁵":{"ha":504,"x_min":97,"x_max":574,"o":"m 361 924 q 483 883 436 924 q 531 778 531 843 q 509 692 531 731 q 451 624 488 653 q 369 580 415 596 q 271 564 322 564 q 159 592 206 564 q 97 668 113 619 l 146 703 q 198 644 161 667 q 288 622 235 622 q 355 633 322 622 q 412 664 388 644 q 451 710 436 683 q 465 771 465 738 q 428 847 465 821 q 346 874 392 874 q 265 856 306 874 q 197 808 224 838 l 140 808 q 171 880 150 833 q 213 976 192 926 q 251 1067 233 1025 q 276 1125 269 1108 l 574 1125 l 560 1064 l 310 1064 l 229 882 q 361 924 286 924 z "},"₅":{"ha":504,"x_min":-47,"x_max":429,"o":"m 218 242 q 340 201 293 242 q 386 96 386 161 q 365 10 386 49 q 308 -58 343 -29 q 225 -102 272 -86 q 128 -118 178 -118 q 16 -90 63 -118 q -47 -15 -31 -61 l 1 21 q 55 -37 18 -15 q 144 -60 92 -60 q 211 -49 179 -60 q 268 -18 243 -37 q 308 28 293 1 q 322 89 322 56 q 285 165 322 139 q 201 192 247 192 q 121 174 161 192 q 53 126 81 156 l -4 126 q 26 198 6 151 q 69 294 47 244 q 108 385 90 343 q 133 443 126 426 l 429 443 l 415 382 l 167 382 l 85 201 q 218 242 140 242 z "},"ƒ":{"ha":701,"x_min":-87,"x_max":774,"o":"m 51 -251 q -28 -239 8 -251 q -87 -197 -64 -226 l -29 -133 q 10 -160 -14 -153 q 60 -167 35 -167 q 106 -157 82 -167 q 151 -130 131 -147 q 188 -89 172 -112 q 208 -37 203 -65 l 336 564 l 240 564 l 256 639 l 353 639 l 374 743 q 472 952 401 876 q 638 1028 543 1028 q 714 1015 678 1028 q 774 982 750 1003 l 732 914 q 692 938 717 929 q 639 946 667 946 q 533 894 576 946 q 469 746 490 843 l 447 639 l 635 639 l 618 564 l 431 564 l 303 -35 q 266 -123 292 -83 q 206 -191 240 -162 q 131 -235 172 -219 q 51 -251 90 -251 z "},"₄":{"ha":514,"x_min":-49,"x_max":404,"o":"m 222 -111 l 253 32 l -49 32 l -36 90 l 358 443 l 401 443 l 326 93 l 404 93 l 390 32 l 314 32 l 283 -111 l 222 -111 m 32 93 l 268 93 l 324 358 l 32 93 z "},"⁴":{"ha":515,"x_min":99,"x_max":550,"o":"m 368 571 l 399 714 l 99 714 l 111 772 l 504 1125 l 547 1125 l 472 774 l 550 774 l 536 714 l 460 714 l 431 571 l 368 571 m 178 774 l 414 774 l 469 1040 l 178 774 z "},"g":{"ha":822,"x_min":-46,"x_max":786,"o":"m 229 -310 q 125 -298 169 -310 q 47 -265 81 -286 q -9 -214 14 -244 q -46 -146 -32 -183 l 21 -100 q 107 -202 47 -169 q 244 -235 167 -235 q 342 -220 294 -235 q 428 -177 389 -206 q 497 -105 468 -149 q 538 -3 525 -61 l 568 140 q 508 78 542 106 q 438 31 475 50 q 361 1 400 11 q 285 -10 322 -10 q 178 15 225 -10 q 99 80 132 39 q 50 175 67 121 q 33 289 33 229 q 67 454 33 374 q 156 597 100 535 q 286 698 213 660 q 442 736 360 736 q 585 690 531 736 q 671 572 639 643 l 703 724 l 786 724 l 632 -3 q 576 -137 615 -79 q 483 -233 538 -194 q 364 -290 429 -271 q 229 -310 299 -310 m 329 69 q 410 85 368 69 q 488 126 451 100 q 551 183 524 151 q 592 249 579 215 l 639 472 q 615 544 633 511 q 572 601 597 578 q 513 639 546 625 q 443 653 479 653 q 321 621 378 653 q 222 538 264 589 q 155 426 179 488 q 131 304 131 364 q 144 213 131 256 q 185 139 158 171 q 248 88 211 107 q 329 69 285 69 z "},"ğ":{"ha":822,"x_min":-46,"x_max":786,"o":"m 229 -310 q 125 -298 169 -310 q 47 -265 81 -286 q -9 -214 14 -244 q -46 -146 -32 -183 l 21 -100 q 107 -202 47 -169 q 244 -235 167 -235 q 342 -220 294 -235 q 428 -177 389 -206 q 497 -105 468 -149 q 538 -3 525 -61 l 568 140 q 508 78 542 106 q 438 31 475 50 q 361 1 400 11 q 285 -10 322 -10 q 178 15 225 -10 q 99 80 132 39 q 50 175 67 121 q 33 289 33 229 q 67 454 33 374 q 156 597 100 535 q 286 698 213 660 q 442 736 360 736 q 585 690 531 736 q 671 572 639 643 l 703 724 l 786 724 l 632 -3 q 576 -137 615 -79 q 483 -233 538 -194 q 364 -290 429 -271 q 229 -310 299 -310 m 329 69 q 410 85 368 69 q 488 126 451 100 q 551 183 524 151 q 592 249 579 215 l 639 472 q 615 544 633 511 q 572 601 597 578 q 513 639 546 625 q 443 653 479 653 q 321 621 378 653 q 222 538 264 589 q 155 426 179 488 q 131 304 131 364 q 144 213 131 256 q 185 139 158 171 q 248 88 211 107 q 329 69 285 69 m 478 922 q 533 949 506 922 q 574 1014 561 975 l 629 1014 q 607 959 622 985 q 570 915 592 933 q 522 885 549 896 q 468 874 496 874 q 390 904 419 874 q 361 982 361 935 q 365 1014 361 997 l 424 1014 q 421 993 421 1000 q 437 943 421 964 q 478 922 453 922 z "},"ĝ":{"ha":822,"x_min":-46,"x_max":786,"o":"m 324 896 l 481 1014 l 550 1014 l 654 896 l 596 867 l 501 954 l 371 867 l 324 896 m 229 -310 q 125 -298 169 -310 q 47 -265 81 -286 q -9 -214 14 -244 q -46 -146 -32 -183 l 21 -100 q 107 -202 47 -169 q 244 -235 167 -235 q 342 -220 294 -235 q 428 -177 389 -206 q 497 -105 468 -149 q 538 -3 525 -61 l 568 140 q 508 78 542 106 q 438 31 475 50 q 361 1 400 11 q 285 -10 322 -10 q 178 15 225 -10 q 99 80 132 39 q 50 175 67 121 q 33 289 33 229 q 67 454 33 374 q 156 597 100 535 q 286 698 213 660 q 442 736 360 736 q 585 690 531 736 q 671 572 639 643 l 703 724 l 786 724 l 632 -3 q 576 -137 615 -79 q 483 -233 538 -194 q 364 -290 429 -271 q 229 -310 299 -310 m 329 69 q 410 85 368 69 q 488 126 451 100 q 551 183 524 151 q 592 249 579 215 l 639 472 q 615 544 633 511 q 572 601 597 578 q 513 639 546 625 q 443 653 479 653 q 321 621 378 653 q 222 538 264 589 q 155 426 179 488 q 131 304 131 364 q 144 213 131 256 q 185 139 158 171 q 248 88 211 107 q 329 69 285 69 z "},"ģ":{"ha":822,"x_min":-46,"x_max":786,"o":"m 551 1028 l 507 925 l 535 925 l 511 819 l 426 819 l 449 925 l 504 1028 l 551 1028 m 229 -310 q 125 -298 169 -310 q 47 -265 81 -286 q -9 -214 14 -244 q -46 -146 -32 -183 l 21 -100 q 107 -202 47 -169 q 244 -235 167 -235 q 342 -220 294 -235 q 428 -177 389 -206 q 497 -105 468 -149 q 538 -3 525 -61 l 568 140 q 508 78 542 106 q 438 31 475 50 q 361 1 400 11 q 285 -10 322 -10 q 178 15 225 -10 q 99 80 132 39 q 50 175 67 121 q 33 289 33 229 q 67 454 33 374 q 156 597 100 535 q 286 698 213 660 q 442 736 360 736 q 585 690 531 736 q 671 572 639 643 l 703 724 l 786 724 l 632 -3 q 576 -137 615 -79 q 483 -233 538 -194 q 364 -290 429 -271 q 229 -310 299 -310 m 329 69 q 410 85 368 69 q 488 126 451 100 q 551 183 524 151 q 592 249 579 215 l 639 472 q 615 544 633 511 q 572 601 597 578 q 513 639 546 625 q 443 653 479 653 q 321 621 378 653 q 222 538 264 589 q 155 426 179 488 q 131 304 131 364 q 144 213 131 256 q 185 139 158 171 q 248 88 211 107 q 329 69 285 69 z "},"ġ":{"ha":822,"x_min":-46,"x_max":786,"o":"m 229 -310 q 125 -298 169 -310 q 47 -265 81 -286 q -9 -214 14 -244 q -46 -146 -32 -183 l 21 -100 q 107 -202 47 -169 q 244 -235 167 -235 q 342 -220 294 -235 q 428 -177 389 -206 q 497 -105 468 -149 q 538 -3 525 -61 l 568 140 q 508 78 542 106 q 438 31 475 50 q 361 1 400 11 q 285 -10 322 -10 q 178 15 225 -10 q 99 80 132 39 q 50 175 67 121 q 33 289 33 229 q 67 454 33 374 q 156 597 100 535 q 286 698 213 660 q 442 736 360 736 q 585 690 531 736 q 671 572 639 643 l 703 724 l 786 724 l 632 -3 q 576 -137 615 -79 q 483 -233 538 -194 q 364 -290 429 -271 q 229 -310 299 -310 m 329 69 q 410 85 368 69 q 488 126 451 100 q 551 183 524 151 q 592 249 579 215 l 639 472 q 615 544 633 511 q 572 601 597 578 q 513 639 546 625 q 443 653 479 653 q 321 621 378 653 q 222 538 264 589 q 155 426 179 488 q 131 304 131 364 q 144 213 131 256 q 185 139 158 171 q 248 88 211 107 q 329 69 285 69 m 432 879 l 461 1014 l 547 1014 l 518 879 l 432 879 z "},"ß":{"ha":735,"x_min":13,"x_max":693,"o":"m 246 79 q 375 97 317 81 q 475 146 433 114 q 540 226 517 178 q 563 339 563 275 q 516 465 563 418 q 386 511 469 511 l 361 511 l 381 597 l 404 597 q 478 612 443 597 q 541 651 514 626 q 583 710 568 676 q 599 785 599 744 q 561 876 599 844 q 467 908 524 908 q 388 892 424 908 q 326 848 353 876 q 280 782 299 819 q 251 701 261 744 l 103 0 l 13 0 l 164 715 q 207 827 176 776 q 281 915 238 878 q 377 972 324 951 q 489 992 431 992 q 572 978 535 992 q 637 941 610 965 q 678 883 664 917 q 693 808 693 849 q 677 724 693 765 q 634 650 661 683 q 573 592 607 617 q 504 560 539 568 q 621 483 582 542 q 660 344 660 424 q 627 197 660 261 q 537 88 594 133 q 400 19 479 43 q 226 -8 321 -6 l 246 79 z "},">":{"ha":757,"x_min":107,"x_max":689,"o":"m 689 332 l 107 -15 l 107 89 l 551 360 l 107 632 l 107 733 l 689 383 l 689 332 z "},"«":{"ha":768,"x_min":39,"x_max":728,"o":"m 50 383 l 431 631 l 414 549 l 122 360 l 333 174 l 315 92 l 39 332 l 50 383 m 346 383 l 728 631 l 710 549 l 418 360 l 631 174 l 613 92 l 336 332 l 346 383 z "},"»":{"ha":768,"x_min":15,"x_max":703,"o":"m 692 332 l 313 92 l 329 174 l 619 360 l 410 549 l 426 631 l 703 383 l 692 332 m 396 332 l 15 92 l 33 174 l 325 360 l 114 549 l 131 631 l 406 383 l 396 332 z "},"‹":{"ha":471,"x_min":39,"x_max":431,"o":"m 50 383 l 431 631 l 414 549 l 122 360 l 333 174 l 315 92 l 39 332 l 50 383 z "},"›":{"ha":471,"x_min":15,"x_max":406,"o":"m 396 332 l 15 92 l 33 174 l 325 360 l 114 549 l 131 631 l 406 383 l 396 332 z "},"h":{"ha":776,"x_min":13,"x_max":699,"o":"m 228 1014 l 322 1014 l 225 560 q 366 689 283 642 q 533 736 449 736 q 660 687 622 736 q 699 551 699 638 q 683 424 699 497 l 594 0 l 500 0 l 586 404 q 599 510 599 464 q 481 650 599 650 q 403 634 443 650 q 324 590 363 618 q 253 525 286 563 q 200 443 221 488 l 107 0 l 13 0 l 228 1014 z "},"ħ":{"ha":776,"x_min":13,"x_max":699,"o":"m 108 911 l 206 911 l 228 1014 l 322 1014 l 300 911 l 444 911 l 432 847 l 286 847 l 225 560 q 366 689 283 642 q 533 736 449 736 q 660 687 622 736 q 699 551 699 638 q 694 492 699 524 q 683 424 690 460 l 594 0 l 500 0 l 586 404 q 599 510 599 467 q 481 650 599 650 q 403 634 443 650 q 324 590 363 618 q 253 525 286 563 q 200 443 221 488 l 107 0 l 13 0 l 192 847 l 96 847 l 108 911 z "},"ĥ":{"ha":776,"x_min":13,"x_max":700,"o":"m 386 896 l 535 1013 l 601 1013 l 700 896 l 644 867 l 554 954 l 431 867 l 386 896 m 228 1014 l 322 1014 l 225 560 q 366 689 283 642 q 533 736 449 736 q 660 687 622 736 q 699 551 699 638 q 683 424 699 497 l 594 0 l 500 0 l 586 404 q 599 510 599 464 q 481 650 599 650 q 403 634 443 650 q 324 590 363 618 q 253 525 286 563 q 200 443 221 488 l 107 0 l 13 0 l 228 1014 z "},"-":{"ha":563,"x_min":71,"x_max":475,"o":"m 71 335 l 89 422 l 475 422 l 457 335 l 71 335 z "},"i":{"ha":296,"x_min":13,"x_max":322,"o":"m 165 724 l 260 724 l 107 0 l 13 0 l 165 724 m 228 1014 l 322 1014 l 293 875 l 199 875 l 228 1014 z "},"í":{"ha":296,"x_min":13,"x_max":389,"o":"m 243 861 l 185 885 l 290 1014 l 389 1014 l 243 861 m 165 724 l 260 724 l 107 0 l 13 0 l 165 724 z "},"ĭ":{"ha":296,"x_min":13,"x_max":392,"o":"m 165 724 l 260 724 l 107 0 l 13 0 l 165 724 m 240 922 q 296 949 268 922 q 336 1014 324 975 l 392 1014 q 369 959 385 985 q 333 915 354 933 q 285 885 311 896 q 231 874 258 874 q 153 904 182 874 q 124 982 124 935 q 128 1014 124 997 l 186 1014 q 183 993 183 1000 q 199 943 183 964 q 240 922 215 922 z "},"î":{"ha":296,"x_min":13,"x_max":417,"o":"m 86 896 l 243 1014 l 313 1014 l 417 896 l 358 867 l 264 954 l 133 867 l 86 896 m 165 724 l 260 724 l 107 0 l 13 0 l 165 724 z "},"ï":{"ha":296,"x_min":13,"x_max":408,"o":"m 101 879 l 131 1010 l 211 1010 l 182 879 l 101 879 m 301 879 l 329 1010 l 408 1010 l 382 879 l 301 879 m 165 724 l 260 724 l 107 0 l 13 0 l 165 724 z "},"ì":{"ha":296,"x_min":13,"x_max":283,"o":"m 165 724 l 260 724 l 107 0 l 13 0 l 165 724 m 133 1014 l 231 1014 l 283 885 l 215 861 l 133 1014 z "},"ĳ":{"ha":601,"x_min":13,"x_max":626,"o":"m 165 724 l 260 724 l 107 0 l 13 0 l 165 724 m 228 1014 l 322 1014 l 293 875 l 199 875 l 228 1014 m 153 -251 q 72 -239 108 -251 q 13 -197 36 -226 l 72 -133 q 112 -160 88 -153 q 161 -167 136 -167 q 207 -157 183 -167 q 251 -130 231 -147 q 288 -89 272 -112 q 308 -37 303 -65 l 471 724 l 565 724 l 404 -32 q 367 -121 393 -81 q 308 -190 342 -161 q 233 -235 274 -219 q 153 -251 192 -251 m 532 1014 l 626 1014 l 596 875 l 501 875 l 532 1014 z "},"j":{"ha":306,"x_min":-283,"x_max":331,"o":"m -143 -251 q -224 -239 -187 -251 q -283 -197 -260 -226 l -224 -133 q -184 -160 -208 -153 q -135 -167 -160 -167 q -89 -157 -112 -167 q -44 -130 -65 -147 q -8 -89 -24 -112 q 13 -37 7 -65 l 175 724 l 269 724 l 108 -32 q 72 -121 97 -81 q 12 -190 46 -161 q -63 -235 -22 -219 q -143 -251 -104 -251 m 236 1014 l 331 1014 l 300 875 l 206 875 l 236 1014 z "},"ī":{"ha":296,"x_min":13,"x_max":449,"o":"m 165 724 l 260 724 l 107 0 l 13 0 l 165 724 m 53 919 l 67 985 l 449 985 l 435 919 l 53 919 z "},"į":{"ha":296,"x_min":-92,"x_max":322,"o":"m 165 724 l 260 724 l 107 0 q 0 -76 31 -44 q -31 -140 -31 -108 q 28 -190 -31 -182 l -8 -243 q -71 -211 -50 -233 q -92 -158 -92 -189 q -60 -82 -92 -119 q 40 0 -29 -44 l 13 0 l 165 724 m 228 1014 l 322 1014 l 293 875 l 199 875 l 228 1014 z "},"ĩ":{"ha":296,"x_min":13,"x_max":479,"o":"m 165 724 l 260 724 l 107 0 l 13 0 l 165 724 m 319 886 q 270 894 290 886 q 233 913 250 903 q 200 933 217 924 q 163 942 183 942 q 126 932 142 942 q 102 910 111 922 q 88 888 93 899 q 83 875 83 878 l 25 875 q 36 903 26 882 q 64 947 46 925 q 110 987 82 969 q 175 1004 138 1004 q 222 995 203 1004 q 257 975 240 986 q 290 955 274 964 q 332 946 307 946 q 374 956 357 946 q 401 978 392 965 q 416 1001 411 990 q 421 1014 421 1011 l 479 1014 q 468 986 478 1007 q 439 943 458 965 q 390 903 419 921 q 319 886 361 886 z "},"ĵ":{"ha":296,"x_min":-292,"x_max":410,"o":"m -153 -251 q -233 -239 -197 -251 q -292 -197 -268 -226 l -233 -133 q -194 -160 -218 -153 q -144 -167 -169 -167 q -98 -157 -122 -167 q -53 -130 -74 -147 q -17 -89 -32 -112 q 4 -37 -1 -65 l 165 724 l 260 724 l 99 -32 q 63 -121 89 -81 q 3 -190 38 -161 q -73 -235 -32 -219 q -153 -251 -114 -251 m 79 896 l 236 1014 l 306 1014 l 410 896 l 351 867 l 257 954 l 126 867 l 79 896 z "},"k":{"ha":744,"x_min":13,"x_max":711,"o":"m 228 1014 l 322 1014 l 217 517 q 374 676 288 614 q 558 738 460 738 q 674 698 636 738 q 711 592 711 658 q 645 428 711 501 q 454 314 579 356 l 617 0 l 514 0 l 342 354 q 552 446 481 383 q 624 579 624 508 q 599 640 624 621 q 535 660 575 660 q 441 638 489 660 q 347 578 393 617 q 259 485 301 539 q 183 364 217 431 l 107 0 l 13 0 l 228 1014 z "},"ķ":{"ha":744,"x_min":13,"x_max":711,"o":"m 199 -276 l 243 -174 l 215 -174 l 239 -68 l 324 -68 l 301 -174 l 246 -276 l 199 -276 m 228 1014 l 322 1014 l 217 517 q 374 676 288 614 q 558 738 460 738 q 674 698 636 738 q 711 592 711 658 q 645 428 711 501 q 454 314 579 356 l 617 0 l 514 0 l 342 354 q 552 446 481 383 q 624 579 624 508 q 599 640 624 621 q 535 660 575 660 q 441 638 489 660 q 347 578 393 617 q 259 485 301 539 q 183 364 217 431 l 107 0 l 13 0 l 228 1014 z "},"ĸ":{"ha":706,"x_min":13,"x_max":746,"o":"m 165 724 l 260 724 l 175 325 l 642 722 l 746 722 l 404 426 l 606 0 l 503 0 l 331 371 l 154 226 l 107 0 l 13 0 l 165 724 z "},"l":{"ha":367,"x_min":39,"x_max":325,"o":"m 149 -8 q 68 18 97 -8 q 39 93 39 44 q 40 111 39 101 q 44 132 42 121 l 231 1014 l 325 1014 l 144 164 q 142 151 143 157 q 142 139 142 146 q 207 78 142 78 q 243 82 222 78 q 283 93 264 86 l 281 17 q 215 -1 253 6 q 149 -8 176 -8 z "},"ĺ":{"ha":367,"x_min":39,"x_max":436,"o":"m 290 1074 l 232 1097 l 338 1226 l 436 1226 l 290 1074 m 149 -8 q 68 18 97 -8 q 39 93 39 44 q 40 111 39 101 q 44 132 42 121 l 231 1014 l 325 1014 l 144 164 q 142 151 143 157 q 142 139 142 146 q 207 78 142 78 q 243 82 222 78 q 283 93 264 86 l 281 17 q 215 -1 253 6 q 149 -8 176 -8 z "},"ľ":{"ha":354,"x_min":39,"x_max":579,"o":"m 374 885 l 479 1014 l 579 1014 l 432 861 l 374 885 m 149 -8 q 68 18 97 -8 q 39 93 39 44 q 40 111 39 101 q 44 132 42 121 l 231 1014 l 325 1014 l 144 164 q 142 151 143 157 q 142 139 142 146 q 207 78 142 78 q 243 82 222 78 q 283 93 264 86 l 281 17 q 215 -1 253 6 q 149 -8 176 -8 z "},"ļ":{"ha":367,"x_min":39,"x_max":325,"o":"m 46 -276 l 90 -174 l 63 -174 l 86 -68 l 171 -68 l 149 -174 l 93 -276 l 46 -276 m 149 -8 q 68 18 97 -8 q 39 93 39 44 q 40 111 39 101 q 44 132 42 121 l 231 1014 l 325 1014 l 144 164 q 142 151 143 157 q 142 139 142 146 q 207 78 142 78 q 243 82 222 78 q 283 93 264 86 l 281 17 q 215 -1 253 6 q 149 -8 176 -8 z "},"ŀ":{"ha":417,"x_min":39,"x_max":419,"o":"m 149 -8 q 68 18 97 -8 q 39 93 39 44 q 40 111 39 101 q 44 132 42 121 l 231 1014 l 325 1014 l 144 164 q 142 151 143 157 q 142 139 142 146 q 207 78 142 78 q 243 82 222 78 q 283 93 264 86 l 281 17 q 215 -1 253 6 q 149 -8 176 -8 m 307 365 l 339 521 l 419 521 l 388 365 l 307 365 z "},"<":{"ha":757,"x_min":42,"x_max":624,"o":"m 42 383 l 624 733 l 624 632 l 179 360 l 624 89 l 624 -15 l 42 332 l 42 383 z "},"¬":{"ha":781,"x_min":100,"x_max":703,"o":"m 703 506 l 631 175 l 550 175 l 601 419 l 100 419 l 119 506 l 703 506 z "},"ł":{"ha":392,"x_min":24,"x_max":426,"o":"m 24 456 l 157 549 l 256 1014 l 350 1014 l 267 626 l 406 724 l 426 669 l 250 546 l 174 183 q 169 158 171 168 q 167 139 167 147 q 232 78 167 78 q 269 82 247 78 q 310 93 290 86 l 307 17 q 240 -1 279 6 q 174 -8 201 -8 q 92 18 121 -8 q 64 92 64 44 q 68 132 64 111 l 139 468 l 43 401 l 24 456 z "},"m":{"ha":1219,"x_min":13,"x_max":1144,"o":"m 165 724 l 253 724 l 217 560 q 353 689 275 642 q 514 736 432 736 q 638 687 597 736 q 679 547 679 638 q 820 688 740 640 q 983 736 900 736 q 1108 689 1071 736 q 1144 558 1144 642 q 1128 424 1144 499 l 1038 0 l 943 0 l 1028 404 q 1038 465 1035 436 q 1042 517 1042 493 q 932 650 1042 650 q 855 635 893 650 q 782 592 817 619 q 717 526 747 564 q 665 442 688 488 l 572 0 l 478 0 l 563 404 q 574 467 569 439 q 578 519 578 496 q 468 650 578 650 q 318 593 390 650 q 200 443 246 536 l 107 0 l 13 0 l 165 724 z "},"−":{"ha":764,"x_min":100,"x_max":660,"o":"m 100 371 l 100 449 l 660 449 l 660 371 l 100 371 z "},"µ":{"ha":831,"x_min":-39,"x_max":769,"o":"m 178 724 l 272 724 l 185 315 q 171 207 171 256 q 292 69 171 69 q 371 83 331 69 q 449 124 411 97 q 519 186 486 150 q 578 268 553 222 l 675 724 l 769 724 l 642 122 q 639 107 639 111 q 667 83 639 83 l 647 0 q 577 12 606 0 q 549 56 549 24 q 553 94 549 63 q 568 164 558 126 q 508 94 543 126 q 434 38 474 63 q 352 0 394 14 q 269 -14 310 -14 q 174 19 207 -14 q 135 104 142 51 l 56 -294 l -39 -294 l 178 724 z "},"×":{"ha":650,"x_min":86,"x_max":544,"o":"m 544 210 l 483 150 l 314 318 l 146 150 l 86 211 l 253 378 l 88 546 l 149 606 l 314 439 l 482 607 l 542 546 l 375 378 l 544 210 z "},"n":{"ha":776,"x_min":13,"x_max":701,"o":"m 165 724 l 253 724 l 217 560 q 284 631 246 599 q 365 688 322 664 q 453 724 407 711 q 544 736 499 736 q 665 690 629 736 q 701 564 701 644 q 697 498 701 532 q 683 424 692 464 l 594 0 l 500 0 l 586 404 q 600 522 600 472 q 492 650 600 650 q 410 635 453 650 q 328 592 368 619 q 256 526 289 564 q 200 443 222 488 l 107 0 l 13 0 l 165 724 z "},"ń":{"ha":776,"x_min":13,"x_max":701,"o":"m 518 861 l 460 885 l 565 1014 l 664 1014 l 518 861 m 165 724 l 253 724 l 217 560 q 284 631 246 599 q 365 688 322 664 q 453 724 407 711 q 544 736 499 736 q 665 690 629 736 q 701 564 701 644 q 697 498 701 532 q 683 424 692 464 l 594 0 l 500 0 l 586 404 q 600 522 600 472 q 492 650 600 650 q 410 635 453 650 q 328 592 368 619 q 256 526 289 564 q 200 443 222 488 l 107 0 l 13 0 l 165 724 z "},"ŉ":{"ha":776,"x_min":-28,"x_max":701,"o":"m -28 885 l 39 967 l 47 1014 l 176 1014 l 29 861 l -28 885 m 165 724 l 253 724 l 217 560 q 284 631 246 599 q 365 688 322 664 q 453 724 407 711 q 544 736 499 736 q 665 690 629 736 q 701 564 701 644 q 697 498 701 532 q 683 424 692 464 l 594 0 l 500 0 l 586 404 q 600 522 600 472 q 492 650 600 650 q 410 635 453 650 q 328 592 368 619 q 256 526 289 564 q 200 443 222 488 l 107 0 l 13 0 l 165 724 z "},"ň":{"ha":776,"x_min":13,"x_max":701,"o":"m 339 986 l 399 1014 l 492 926 l 622 1014 l 669 986 l 514 867 l 444 867 l 339 986 m 165 724 l 253 724 l 217 560 q 284 631 246 599 q 365 688 322 664 q 453 724 407 711 q 544 736 499 736 q 665 690 629 736 q 701 564 701 644 q 697 498 701 532 q 683 424 692 464 l 594 0 l 500 0 l 586 404 q 600 522 600 472 q 492 650 600 650 q 410 635 453 650 q 328 592 368 619 q 256 526 289 564 q 200 443 222 488 l 107 0 l 13 0 l 165 724 z "},"ņ":{"ha":776,"x_min":13,"x_max":701,"o":"m 203 -276 l 247 -174 l 219 -174 l 243 -68 l 328 -68 l 306 -174 l 250 -276 l 203 -276 m 165 724 l 253 724 l 217 560 q 284 631 246 599 q 365 688 322 664 q 453 724 407 711 q 544 736 499 736 q 665 690 629 736 q 701 564 701 644 q 697 498 701 532 q 683 424 692 464 l 594 0 l 500 0 l 586 404 q 600 522 600 472 q 492 650 600 650 q 410 635 453 650 q 328 592 368 619 q 256 526 289 564 q 200 443 222 488 l 107 0 l 13 0 l 165 724 z "},"ṅ":{"ha":776,"x_min":13,"x_max":701,"o":"m 432 879 l 461 1014 l 547 1014 l 518 879 l 432 879 m 165 724 l 253 724 l 217 560 q 284 631 246 599 q 365 688 322 664 q 453 724 407 711 q 544 736 499 736 q 665 690 629 736 q 701 564 701 644 q 697 498 701 532 q 683 424 692 464 l 594 0 l 500 0 l 586 404 q 600 522 600 472 q 492 650 600 650 q 410 635 453 650 q 328 592 368 619 q 256 526 289 564 q 200 443 222 488 l 107 0 l 13 0 l 165 724 z "},"₉":{"ha":547,"x_min":-18,"x_max":449,"o":"m 8 226 q 30 312 8 272 q 88 382 51 351 q 172 430 125 413 q 271 447 219 447 q 401 399 354 447 q 449 264 449 350 q 426 115 449 185 q 364 -7 404 44 q 267 -88 324 -58 q 143 -118 211 -118 q 40 -92 83 -118 q -18 -19 -3 -67 l 29 21 q 74 -37 40 -15 q 157 -60 108 -60 q 290 -2 232 -60 q 372 160 349 56 q 291 94 343 119 q 185 69 239 69 q 56 115 104 69 q 8 226 8 160 m 257 390 q 187 378 221 390 q 127 344 153 365 q 85 296 101 324 q 69 239 69 268 q 106 158 69 190 q 201 125 143 125 q 272 138 238 125 q 331 171 306 150 q 373 219 357 192 q 389 275 389 246 q 352 356 389 322 q 257 390 315 390 z "},"⁹":{"ha":546,"x_min":126,"x_max":592,"o":"m 151 904 q 173 989 151 949 q 231 1059 194 1029 q 315 1107 268 1089 q 414 1125 363 1125 q 544 1076 497 1125 q 592 942 592 1028 q 569 792 592 861 q 507 670 547 722 q 410 588 467 618 q 286 558 354 558 q 185 585 228 558 q 126 658 142 611 l 172 697 q 218 639 183 661 q 301 617 253 617 q 434 674 376 617 q 515 838 492 732 q 435 772 488 797 q 329 746 382 746 q 256 758 289 746 q 201 792 224 771 q 165 842 178 813 q 151 904 151 871 m 401 1068 q 331 1056 365 1068 q 271 1022 297 1043 q 228 974 244 1001 q 213 915 213 946 q 250 835 213 868 q 346 801 288 801 q 415 814 381 801 q 475 847 449 826 q 517 895 501 868 q 533 951 533 922 q 497 1034 533 1000 q 401 1068 460 1068 z "},"ñ":{"ha":776,"x_min":13,"x_max":706,"o":"m 165 724 l 253 724 l 217 560 q 284 631 246 599 q 365 688 322 664 q 453 724 407 711 q 544 736 499 736 q 665 690 629 736 q 701 564 701 644 q 697 498 701 532 q 683 424 692 464 l 594 0 l 500 0 l 586 404 q 600 522 600 472 q 492 650 600 650 q 410 635 453 650 q 328 592 368 619 q 256 526 289 564 q 200 443 222 488 l 107 0 l 13 0 l 165 724 m 546 886 q 497 894 517 886 q 460 913 476 903 q 426 933 443 924 q 389 942 410 942 q 353 932 368 942 q 328 910 338 922 q 315 888 319 899 q 310 875 310 878 l 251 875 q 263 903 253 882 q 290 947 272 925 q 336 987 308 969 q 401 1004 364 1004 q 448 995 429 1004 q 483 975 467 986 q 517 955 500 964 q 558 946 533 946 q 601 956 583 946 q 628 978 618 965 q 642 1001 638 990 q 647 1014 647 1011 l 706 1014 q 694 986 704 1007 q 665 943 685 965 q 617 903 646 921 q 546 886 588 886 z "},"#":{"ha":906,"x_min":25,"x_max":915,"o":"m 900 635 l 728 635 l 608 363 l 785 363 l 769 288 l 575 288 l 449 0 l 368 0 l 497 288 l 251 288 l 125 0 l 44 0 l 174 288 l 25 288 l 40 363 l 208 363 l 326 635 l 154 635 l 171 706 l 360 706 l 483 986 l 563 986 l 438 706 l 683 706 l 806 986 l 886 986 l 761 706 l 915 706 l 900 635 m 529 363 l 650 635 l 406 635 l 286 363 l 529 363 z "},"o":{"ha":796,"x_min":33,"x_max":738,"o":"m 306 -14 q 191 10 242 -14 q 106 76 140 35 q 52 172 71 117 q 33 289 33 226 q 69 457 33 376 q 164 599 104 538 q 301 699 224 661 q 465 736 379 736 q 579 712 529 736 q 665 647 629 688 q 719 550 700 606 q 738 432 738 494 q 702 265 738 346 q 608 123 667 185 q 470 24 549 61 q 306 -14 392 -14 m 324 69 q 439 98 382 69 q 540 174 496 126 q 613 285 585 222 q 640 419 640 349 q 626 511 640 468 q 587 585 613 554 q 526 635 561 617 q 447 653 490 653 q 333 624 389 653 q 231 547 276 596 q 158 435 186 499 q 131 300 131 371 q 144 209 131 251 q 184 135 158 167 q 245 87 210 104 q 324 69 281 69 z "},"ó":{"ha":796,"x_min":33,"x_max":738,"o":"m 485 861 l 426 885 l 532 1014 l 631 1014 l 485 861 m 306 -14 q 191 10 242 -14 q 106 76 140 35 q 52 172 71 117 q 33 289 33 226 q 69 457 33 376 q 164 599 104 538 q 301 699 224 661 q 465 736 379 736 q 579 712 529 736 q 665 647 629 688 q 719 550 700 606 q 738 432 738 494 q 702 265 738 346 q 608 123 667 185 q 470 24 549 61 q 306 -14 392 -14 m 324 69 q 439 98 382 69 q 540 174 496 126 q 613 285 585 222 q 640 419 640 349 q 626 511 640 468 q 587 585 613 554 q 526 635 561 617 q 447 653 490 653 q 333 624 389 653 q 231 547 276 596 q 158 435 186 499 q 131 300 131 371 q 144 209 131 251 q 184 135 158 167 q 245 87 210 104 q 324 69 281 69 z "},"ŏ":{"ha":796,"x_min":33,"x_max":738,"o":"m 306 -14 q 191 10 242 -14 q 106 76 140 35 q 52 172 71 117 q 33 289 33 226 q 69 457 33 376 q 164 599 104 538 q 301 699 224 661 q 465 736 379 736 q 579 712 529 736 q 665 647 629 688 q 719 550 700 606 q 738 432 738 494 q 702 265 738 346 q 608 123 667 185 q 470 24 549 61 q 306 -14 392 -14 m 324 69 q 439 98 382 69 q 540 174 496 126 q 613 285 585 222 q 640 419 640 349 q 626 511 640 468 q 587 585 613 554 q 526 635 561 617 q 447 653 490 653 q 333 624 389 653 q 231 547 276 596 q 158 435 186 499 q 131 300 131 371 q 144 209 131 251 q 184 135 158 167 q 245 87 210 104 q 324 69 281 69 m 496 922 q 551 949 524 922 q 592 1014 579 975 l 647 1014 q 625 959 640 985 q 588 915 610 933 q 540 885 567 896 q 486 874 514 874 q 408 904 438 874 q 379 982 379 935 q 383 1014 379 997 l 442 1014 q 439 993 439 1000 q 455 943 439 964 q 496 922 471 922 z "},"ô":{"ha":796,"x_min":33,"x_max":738,"o":"m 332 896 l 489 1014 l 558 1014 l 663 896 l 604 867 l 510 954 l 379 867 l 332 896 m 306 -14 q 191 10 242 -14 q 106 76 140 35 q 52 172 71 117 q 33 289 33 226 q 69 457 33 376 q 164 599 104 538 q 301 699 224 661 q 465 736 379 736 q 579 712 529 736 q 665 647 629 688 q 719 550 700 606 q 738 432 738 494 q 702 265 738 346 q 608 123 667 185 q 470 24 549 61 q 306 -14 392 -14 m 324 69 q 439 98 382 69 q 540 174 496 126 q 613 285 585 222 q 640 419 640 349 q 626 511 640 468 q 587 585 613 554 q 526 635 561 617 q 447 653 490 653 q 333 624 389 653 q 231 547 276 596 q 158 435 186 499 q 131 300 131 371 q 144 209 131 251 q 184 135 158 167 q 245 87 210 104 q 324 69 281 69 z "},"ö":{"ha":796,"x_min":33,"x_max":738,"o":"m 353 879 l 382 1010 l 463 1010 l 433 879 l 353 879 m 553 879 l 581 1010 l 660 1010 l 633 879 l 553 879 m 306 -14 q 191 10 242 -14 q 106 76 140 35 q 52 172 71 117 q 33 289 33 226 q 69 457 33 376 q 164 599 104 538 q 301 699 224 661 q 465 736 379 736 q 579 712 529 736 q 665 647 629 688 q 719 550 700 606 q 738 432 738 494 q 702 265 738 346 q 608 123 667 185 q 470 24 549 61 q 306 -14 392 -14 m 324 69 q 439 98 382 69 q 540 174 496 126 q 613 285 585 222 q 640 419 640 349 q 626 511 640 468 q 587 585 613 554 q 526 635 561 617 q 447 653 490 653 q 333 624 389 653 q 231 547 276 596 q 158 435 186 499 q 131 300 131 371 q 144 209 131 251 q 184 135 158 167 q 245 87 210 104 q 324 69 281 69 z "},"œ":{"ha":1368,"x_min":33,"x_max":1324,"o":"m 304 -14 q 193 9 243 -14 q 108 72 143 32 q 53 167 72 113 q 33 286 33 222 q 69 460 33 378 q 166 603 106 542 q 305 700 226 664 q 467 736 383 736 q 631 674 567 736 q 710 507 696 613 q 861 676 771 615 q 1056 736 951 736 q 1168 715 1118 736 q 1253 653 1218 693 q 1306 556 1288 613 q 1324 429 1324 499 q 1318 358 1324 381 q 1308 328 1313 336 l 725 328 q 722 305 722 317 q 722 282 722 293 q 737 193 722 233 q 778 122 751 153 q 843 75 806 92 q 926 58 881 58 q 997 68 961 58 q 1064 94 1032 78 q 1122 135 1096 111 q 1164 189 1147 160 l 1240 167 q 1176 93 1214 126 q 1095 36 1139 60 q 1003 -1 1051 13 q 907 -14 954 -14 q 740 48 808 -14 q 649 213 672 110 q 492 47 582 107 q 304 -14 401 -14 m 324 69 q 440 98 383 69 q 542 174 497 126 q 613 286 586 222 q 640 421 640 350 q 626 512 640 469 q 588 585 613 554 q 527 635 563 617 q 449 653 492 653 q 332 624 389 653 q 230 547 275 596 q 158 433 185 497 q 131 297 131 368 q 144 207 131 249 q 183 135 158 165 q 244 87 208 104 q 324 69 279 69 m 1232 392 q 1235 418 1235 406 q 1235 443 1235 431 q 1181 602 1235 542 q 1038 663 1126 663 q 940 642 988 663 q 853 586 893 622 q 782 500 813 550 q 736 392 751 450 l 1232 392 z "},"ò":{"ha":796,"x_min":33,"x_max":738,"o":"m 306 -14 q 191 10 242 -14 q 106 76 140 35 q 52 172 71 117 q 33 289 33 226 q 69 457 33 376 q 164 599 104 538 q 301 699 224 661 q 465 736 379 736 q 579 712 529 736 q 665 647 629 688 q 719 550 700 606 q 738 432 738 494 q 702 265 738 346 q 608 123 667 185 q 470 24 549 61 q 306 -14 392 -14 m 324 69 q 439 98 382 69 q 540 174 496 126 q 613 285 585 222 q 640 419 640 349 q 626 511 640 468 q 587 585 613 554 q 526 635 561 617 q 447 653 490 653 q 333 624 389 653 q 231 547 276 596 q 158 435 186 499 q 131 300 131 371 q 144 209 131 251 q 184 135 158 167 q 245 87 210 104 q 324 69 281 69 m 404 1014 l 501 1014 l 554 885 l 486 861 l 404 1014 z "},"ő":{"ha":796,"x_min":33,"x_max":738,"o":"m 386 861 l 340 885 l 442 1014 l 529 1014 l 386 861 m 554 861 l 510 885 l 611 1014 l 697 1014 l 554 861 m 306 -14 q 191 10 242 -14 q 106 76 140 35 q 52 172 71 117 q 33 289 33 226 q 69 457 33 376 q 164 599 104 538 q 301 699 224 661 q 465 736 379 736 q 579 712 529 736 q 665 647 629 688 q 719 550 700 606 q 738 432 738 494 q 702 265 738 346 q 608 123 667 185 q 470 24 549 61 q 306 -14 392 -14 m 324 69 q 439 98 382 69 q 540 174 496 126 q 613 285 585 222 q 640 419 640 349 q 626 511 640 468 q 587 585 613 554 q 526 635 561 617 q 447 653 490 653 q 333 624 389 653 q 231 547 276 596 q 158 435 186 499 q 131 300 131 371 q 144 209 131 251 q 184 135 158 167 q 245 87 210 104 q 324 69 281 69 z "},"ō":{"ha":796,"x_min":33,"x_max":738,"o":"m 310 919 l 324 985 l 706 985 l 692 919 l 310 919 m 306 -14 q 191 10 242 -14 q 106 76 140 35 q 52 172 71 117 q 33 289 33 226 q 69 457 33 376 q 164 599 104 538 q 301 699 224 661 q 465 736 379 736 q 579 712 529 736 q 665 647 629 688 q 719 550 700 606 q 738 432 738 494 q 702 265 738 346 q 608 123 667 185 q 470 24 549 61 q 306 -14 392 -14 m 324 69 q 439 98 382 69 q 540 174 496 126 q 613 285 585 222 q 640 419 640 349 q 626 511 640 468 q 587 585 613 554 q 526 635 561 617 q 447 653 490 653 q 333 624 389 653 q 231 547 276 596 q 158 435 186 499 q 131 300 131 371 q 144 209 131 251 q 184 135 158 167 q 245 87 210 104 q 324 69 281 69 z "},"⅛":{"ha":1139,"x_min":68,"x_max":1068,"o":"m 68 38 l 997 992 l 1036 950 l 107 -6 l 68 38 m 368 515 l 354 453 l 86 453 l 100 515 l 207 515 l 297 944 q 272 924 289 936 q 234 902 254 913 q 194 884 214 892 q 157 876 174 876 l 171 939 q 216 950 192 939 q 262 975 240 961 q 298 1001 283 989 q 313 1015 313 1014 l 375 1015 l 268 515 l 368 515 m 781 -7 q 649 35 697 -7 q 601 135 601 76 q 615 192 601 167 q 650 239 628 218 q 700 274 672 260 q 756 297 728 289 q 701 335 724 310 q 678 396 678 360 q 699 461 678 432 q 751 511 719 490 q 824 543 783 532 q 901 554 864 554 q 963 546 933 554 q 1017 522 993 538 q 1054 483 1040 506 q 1068 433 1068 461 q 1029 348 1068 382 q 938 297 990 314 q 1007 251 981 282 q 1033 176 1033 221 q 1012 103 1033 136 q 955 45 990 69 q 874 7 919 21 q 781 -7 828 -7 m 797 54 q 858 63 828 54 q 914 88 889 72 q 955 125 939 103 q 971 175 971 147 q 960 215 971 197 q 930 244 949 232 q 888 263 911 257 q 840 269 865 269 q 778 260 810 269 q 722 235 747 251 q 681 197 697 219 q 665 146 665 174 q 676 108 665 125 q 706 78 688 90 q 749 60 725 67 q 797 54 772 54 m 853 321 q 904 328 878 321 q 952 347 931 335 q 988 378 974 360 q 1003 419 1003 396 q 968 476 1003 456 q 889 496 933 496 q 834 489 861 496 q 786 469 807 482 q 753 437 765 456 q 740 396 740 418 q 776 340 740 360 q 853 321 811 321 z "},"¹":{"ha":361,"x_min":97,"x_max":386,"o":"m 379 626 l 365 564 l 97 564 l 111 626 l 218 626 l 308 1056 q 283 1035 300 1047 q 245 1013 265 1024 q 205 995 225 1003 q 168 988 185 988 l 182 1050 q 227 1061 203 1050 q 273 1086 251 1072 q 309 1113 294 1100 q 324 1126 324 1125 l 386 1126 l 279 626 l 379 626 z "},"½":{"ha":1139,"x_min":50,"x_max":1082,"o":"m 592 0 q 620 94 601 54 q 665 164 639 133 q 727 217 692 194 q 807 256 763 239 q 878 281 842 268 q 945 310 915 293 q 994 353 975 328 q 1014 415 1014 378 q 987 476 1014 451 q 904 501 960 501 q 844 494 871 501 q 794 474 817 486 q 753 449 771 463 q 724 424 736 435 l 694 468 q 719 490 700 475 q 768 522 739 506 q 837 549 797 538 q 924 561 876 561 q 1043 524 1004 561 q 1082 428 1082 486 q 1067 353 1082 383 q 1023 299 1051 322 q 954 257 994 275 q 864 222 914 239 q 788 187 818 207 q 738 145 757 167 q 710 101 719 124 q 697 61 701 79 l 1010 61 l 997 0 l 592 0 m 50 38 l 979 992 l 1018 950 l 89 -6 l 50 38 m 368 515 l 354 453 l 86 453 l 100 515 l 207 515 l 297 944 q 272 924 289 936 q 234 902 254 913 q 194 884 214 892 q 157 876 174 876 l 171 939 q 216 950 192 939 q 262 975 240 961 q 298 1001 283 989 q 313 1015 313 1014 l 375 1015 l 268 515 l 368 515 z "},"₂":{"ha":524,"x_min":-61,"x_max":443,"o":"m -61 -111 q -31 -17 -50 -57 q 15 53 -12 22 q 78 106 42 83 q 160 144 114 128 q 233 169 196 157 q 302 199 271 182 q 353 242 333 217 q 372 304 372 267 q 345 365 372 340 q 260 390 318 390 q 198 383 226 390 q 147 363 169 375 q 106 338 124 351 q 75 313 88 324 l 44 357 q 71 379 51 364 q 120 410 90 394 q 191 438 150 426 q 281 450 232 450 q 403 413 364 450 q 443 317 443 375 q 426 242 443 274 q 381 188 410 211 q 310 146 351 164 q 218 111 268 128 q 140 76 171 96 q 90 34 110 56 q 61 -10 71 13 q 47 -50 51 -32 l 368 -50 l 356 -111 l -61 -111 z "},"₁":{"ha":383,"x_min":-46,"x_max":257,"o":"m 257 -50 l 244 -111 l -46 -111 l -33 -50 l 85 -50 l 176 379 q 149 358 167 369 q 108 337 131 347 q 64 319 86 326 q 24 313 42 313 l 38 374 q 87 385 60 374 q 137 411 114 397 q 175 438 160 425 q 190 451 190 450 l 254 451 l 147 -50 l 257 -50 z "},"¼":{"ha":1092,"x_min":83,"x_max":1061,"o":"m 846 143 l 544 143 l 557 201 l 951 554 l 994 554 l 919 204 l 997 204 l 983 143 l 907 143 l 876 0 l 815 0 l 846 143 m 861 204 l 917 469 l 625 204 l 861 204 m 93 38 l 1022 992 l 1061 950 l 132 -6 l 93 38 m 365 515 l 351 453 l 83 453 l 97 515 l 204 515 l 294 944 q 269 924 286 936 q 231 902 251 913 q 191 884 211 892 q 154 876 171 876 l 168 939 q 213 950 189 939 q 259 975 238 961 q 295 1001 281 989 q 310 1015 310 1014 l 372 1015 l 265 515 l 365 515 z "},"⅓":{"ha":1139,"x_min":54,"x_max":1074,"o":"m 54 38 l 983 992 l 1022 950 l 93 -6 l 54 38 m 369 515 l 356 453 l 88 453 l 101 515 l 208 515 l 299 944 q 273 924 290 936 q 235 902 256 913 q 195 884 215 892 q 158 876 175 876 l 172 939 q 217 950 193 939 q 263 975 242 961 q 299 1001 285 989 q 314 1015 314 1014 l 376 1015 l 269 515 l 369 515 m 782 -7 q 713 1 746 -7 q 656 24 681 8 q 618 63 632 40 q 604 117 604 86 l 649 156 q 658 121 649 139 q 686 88 668 103 q 731 64 704 74 q 794 54 758 54 q 861 63 829 54 q 917 85 893 71 q 956 120 942 100 q 969 165 969 140 q 924 233 969 210 q 794 257 878 257 l 764 257 l 776 313 l 806 313 q 952 340 897 313 q 1007 419 1007 367 q 972 481 1007 458 q 886 504 936 504 q 788 483 832 504 q 717 426 744 461 l 685 474 q 776 538 718 514 q 897 561 835 561 q 1026 524 978 561 q 1074 431 1074 488 q 1035 338 1074 375 q 924 286 997 301 q 1005 245 976 278 q 1033 168 1033 213 q 1012 94 1033 126 q 955 40 990 63 q 874 5 919 17 q 782 -7 829 -7 z "},"₃":{"ha":521,"x_min":-40,"x_max":429,"o":"m 138 -118 q 69 -110 101 -118 q 12 -87 36 -103 q -26 -49 -12 -72 q -40 6 -40 -26 l 4 44 q 14 8 4 26 q 42 -24 24 -10 q 87 -48 60 -39 q 150 -57 114 -57 q 217 -49 185 -57 q 273 -26 249 -40 q 311 9 297 -11 q 325 54 325 29 q 278 122 325 99 q 150 146 232 146 l 119 146 l 132 201 l 161 201 q 308 228 253 201 q 363 308 363 256 q 327 370 363 347 q 242 393 292 393 q 144 372 188 393 q 72 315 100 350 l 40 363 q 132 426 74 403 q 253 450 190 450 q 381 413 333 450 q 429 319 429 376 q 391 227 429 264 q 279 175 353 190 q 360 134 332 167 q 389 57 389 101 q 367 -17 389 15 q 310 -72 346 -49 q 230 -106 275 -94 q 138 -118 185 -118 z "},"ǫ":{"ha":796,"x_min":33,"x_max":738,"o":"m 247 -251 q 185 -219 206 -242 q 164 -167 164 -197 q 193 -92 164 -129 q 289 -14 222 -56 q 181 15 228 -10 q 101 81 133 40 q 51 176 68 122 q 33 289 33 229 q 69 457 33 376 q 164 599 104 538 q 301 699 224 661 q 465 736 379 736 q 579 712 529 736 q 665 647 629 688 q 719 550 700 606 q 738 432 738 494 q 708 278 738 353 q 626 143 678 203 q 506 42 575 83 q 360 -10 438 1 q 255 -85 285 -54 q 225 -149 225 -117 q 283 -199 225 -190 l 247 -251 m 324 69 q 439 98 382 69 q 540 174 496 126 q 613 285 585 222 q 640 419 640 349 q 626 511 640 468 q 587 585 613 554 q 526 635 561 617 q 447 653 490 653 q 333 624 389 653 q 231 547 276 596 q 158 435 186 499 q 131 300 131 371 q 144 209 131 251 q 184 135 158 167 q 245 87 210 104 q 324 69 281 69 z "},"ª":{"ha":575,"x_min":104,"x_max":557,"o":"m 232 481 q 139 517 174 481 q 104 606 104 553 q 122 678 104 644 q 172 735 140 711 q 245 772 203 758 q 336 785 288 785 q 406 778 372 785 q 464 760 439 772 l 472 799 q 476 833 476 819 q 450 903 476 878 q 375 928 424 928 q 213 871 306 928 l 197 922 q 393 986 303 986 q 515 950 472 986 q 557 846 557 914 q 551 790 557 817 l 508 592 q 507 581 507 588 q 528 561 507 563 l 513 489 q 496 488 507 488 q 449 497 468 488 q 429 529 429 506 q 431 546 429 535 q 435 571 432 557 q 340 503 393 526 q 232 481 288 481 m 267 543 q 322 551 293 543 q 374 572 350 558 q 416 602 399 585 q 438 639 433 619 l 453 711 q 399 728 429 724 q 339 733 369 733 q 228 703 272 733 q 183 624 183 672 q 206 566 183 589 q 267 543 229 543 z "},"º":{"ha":599,"x_min":119,"x_max":608,"o":"m 310 481 q 228 497 264 481 q 169 542 193 514 q 132 606 144 569 q 119 685 119 643 q 144 799 119 744 q 208 894 168 853 q 303 961 249 936 q 417 986 357 986 q 498 970 463 986 q 558 926 533 954 q 595 861 582 899 q 608 782 608 824 q 585 669 608 724 q 520 573 561 615 q 425 506 479 531 q 310 481 371 481 m 324 549 q 399 567 363 549 q 465 615 436 585 q 512 686 494 646 q 529 771 529 726 q 494 876 529 833 q 403 918 460 918 q 328 900 365 918 q 263 852 292 882 q 216 781 233 822 q 199 694 199 740 q 233 590 199 632 q 324 549 267 549 z "},"ø":{"ha":796,"x_min":33,"x_max":738,"o":"m 107 74 q 33 289 33 160 q 69 457 33 376 q 164 599 104 538 q 302 699 224 661 q 465 736 381 736 q 556 722 514 736 q 629 681 597 707 l 672 726 l 736 726 l 663 649 q 738 432 738 563 q 703 265 738 346 q 608 123 668 185 q 471 24 549 61 q 307 -14 393 -14 q 215 1 257 -14 q 140 42 172 15 l 99 -1 l 35 -1 l 107 74 m 324 69 q 439 98 382 69 q 540 174 496 126 q 613 285 585 222 q 640 419 640 349 q 628 504 640 464 q 593 575 615 544 l 204 114 q 324 69 253 69 m 131 300 q 142 215 131 254 q 176 144 154 175 l 565 608 q 512 641 542 629 q 447 653 482 653 q 333 624 389 653 q 231 547 276 596 q 158 435 186 499 q 131 300 131 371 z "},"ǿ":{"ha":796,"x_min":33,"x_max":738,"o":"m 107 74 q 33 289 33 160 q 69 457 33 376 q 164 599 104 538 q 302 699 224 661 q 465 736 381 736 q 556 722 514 736 q 629 681 597 707 l 672 726 l 736 726 l 663 649 q 738 432 738 563 q 703 265 738 346 q 608 123 668 185 q 471 24 549 61 q 307 -14 393 -14 q 215 1 257 -14 q 140 42 172 15 l 99 -1 l 35 -1 l 107 74 m 324 69 q 439 98 382 69 q 540 174 496 126 q 613 285 585 222 q 640 419 640 349 q 628 504 640 464 q 593 575 615 544 l 204 114 q 324 69 253 69 m 131 300 q 142 215 131 254 q 176 144 154 175 l 565 608 q 512 641 542 629 q 447 653 482 653 q 333 624 389 653 q 231 547 276 596 q 158 435 186 499 q 131 300 131 371 m 485 861 l 426 885 l 532 1014 l 631 1014 l 485 861 z "},"õ":{"ha":796,"x_min":33,"x_max":738,"o":"m 306 -14 q 191 10 242 -14 q 106 76 140 35 q 52 172 71 117 q 33 289 33 226 q 69 457 33 376 q 164 599 104 538 q 301 699 224 661 q 465 736 379 736 q 579 712 529 736 q 665 647 629 688 q 719 550 700 606 q 738 432 738 494 q 702 265 738 346 q 608 123 667 185 q 470 24 549 61 q 306 -14 392 -14 m 324 69 q 439 98 382 69 q 540 174 496 126 q 613 285 585 222 q 640 419 640 349 q 626 511 640 468 q 587 585 613 554 q 526 635 561 617 q 447 653 490 653 q 333 624 389 653 q 231 547 276 596 q 158 435 186 499 q 131 300 131 371 q 144 209 131 251 q 184 135 158 167 q 245 87 210 104 q 324 69 281 69 m 569 886 q 520 894 540 886 q 483 913 500 903 q 450 933 467 924 q 413 942 433 942 q 376 932 392 942 q 352 910 361 922 q 338 888 343 899 q 333 875 333 878 l 275 875 q 286 903 276 882 q 314 947 296 925 q 360 987 332 969 q 425 1004 388 1004 q 472 995 453 1004 q 507 975 490 986 q 540 955 524 964 q 582 946 557 946 q 624 956 607 946 q 651 978 642 965 q 666 1001 661 990 q 671 1014 671 1011 l 729 1014 q 718 986 728 1007 q 689 943 708 965 q 640 903 669 921 q 569 886 611 886 z "},"p":{"ha":824,"x_min":-50,"x_max":765,"o":"m 167 724 l 250 724 l 221 583 q 353 694 276 651 q 508 736 429 736 q 616 711 568 736 q 697 644 664 686 q 748 547 731 603 q 765 432 765 492 q 733 267 765 347 q 646 124 701 186 q 517 24 590 61 q 364 -14 444 -14 q 220 33 276 -14 q 139 150 164 79 l 44 -296 l -50 -296 l 167 724 m 356 69 q 475 101 418 69 q 574 181 532 132 q 642 292 617 231 q 667 417 667 354 q 653 508 667 465 q 613 583 639 551 q 550 634 586 615 q 468 653 514 653 q 395 638 435 653 q 318 599 356 624 q 251 542 281 575 q 207 474 221 510 l 160 251 q 184 179 167 213 q 227 122 201 146 q 285 83 253 97 q 356 69 318 69 z "},"¶":{"ha":804,"x_min":89,"x_max":863,"o":"m 89 581 q 121 747 89 672 q 212 874 153 821 q 354 957 271 928 q 542 986 438 986 l 863 986 l 846 911 l 754 911 l 536 -111 l 454 -111 l 546 321 l 450 321 l 358 -111 l 275 -111 l 368 321 q 161 392 233 324 q 89 581 89 461 m 172 599 q 188 512 172 549 q 233 450 204 475 q 300 412 261 425 q 383 396 339 399 l 493 911 q 358 887 418 911 q 257 821 299 863 q 194 722 215 779 q 172 599 172 665 m 672 911 l 576 911 l 465 396 l 561 396 l 672 911 z "},"(":{"ha":365,"x_min":61,"x_max":442,"o":"m 61 361 q 86 537 61 453 q 154 702 111 621 q 255 863 197 783 q 378 1026 313 943 l 442 992 q 350 872 400 943 q 256 717 300 800 q 181 545 211 635 q 151 371 151 456 q 171 181 151 285 q 226 -14 190 76 l 149 -51 q 85 153 108 44 q 61 361 61 261 z "},")":{"ha":365,"x_min":-44,"x_max":332,"o":"m 332 600 q 308 431 332 514 q 243 269 285 349 q 144 109 201 189 q 18 -51 86 29 l -44 -14 q 71 137 18 61 q 161 288 124 213 q 219 438 199 363 q 240 589 240 514 q 234 701 240 643 q 217 813 228 758 q 194 913 207 867 q 167 992 181 960 l 247 1026 q 308 816 283 926 q 332 600 332 706 z "},"%":{"ha":956,"x_min":10,"x_max":978,"o":"m 293 601 q 228 614 257 601 q 178 649 199 626 q 145 701 157 671 q 133 765 133 731 q 154 855 133 813 q 209 930 175 897 q 288 981 243 963 q 379 1000 332 1000 q 444 988 415 1000 q 494 953 474 975 q 527 900 515 931 q 539 835 539 869 q 518 745 539 788 q 463 671 497 703 q 384 620 428 639 q 293 601 340 601 m 306 656 q 365 670 336 656 q 416 709 393 685 q 453 764 439 733 q 467 828 467 794 q 439 910 467 876 q 367 944 411 944 q 308 930 336 944 q 256 892 279 915 q 219 838 233 868 q 206 774 206 807 q 233 690 206 725 q 306 656 261 656 m 610 -14 q 544 -1 574 -14 q 494 33 515 11 q 460 86 472 56 q 449 151 449 117 q 469 241 449 199 q 525 315 490 283 q 604 366 560 347 q 694 385 649 385 q 760 372 731 385 q 810 338 789 360 q 842 285 831 315 q 854 221 854 256 q 833 131 854 174 q 778 56 813 89 q 701 5 744 24 q 610 -14 657 -14 m 621 42 q 681 56 651 42 q 733 94 710 69 q 769 149 756 118 q 783 213 783 179 q 755 296 783 261 q 682 331 726 331 q 622 316 651 331 q 570 277 593 301 q 533 222 547 253 q 519 158 519 192 q 548 76 519 110 q 621 42 576 42 m 10 38 l 939 992 l 978 950 l 49 -6 l 10 38 z "},".":{"ha":261,"x_min":3,"x_max":113,"o":"m 3 0 l 32 136 l 113 136 l 83 0 l 3 0 z "},"‰":{"ha":1421,"x_min":18,"x_max":1329,"o":"m 304 601 q 185 649 229 601 q 142 764 142 696 q 163 854 142 811 q 218 930 183 897 q 296 981 253 963 q 385 1000 339 1000 q 503 953 460 1000 q 547 836 547 906 q 526 747 547 789 q 471 672 506 704 q 393 620 436 639 q 304 601 350 601 m 317 656 q 374 670 346 656 q 425 709 403 685 q 461 765 447 733 q 475 829 475 796 q 447 911 475 878 q 372 944 418 944 q 315 930 343 944 q 264 892 286 915 q 228 836 242 868 q 214 771 214 804 q 242 690 214 724 q 317 656 271 656 m 621 -14 q 501 33 546 -14 q 457 150 457 81 q 478 240 457 197 q 533 315 499 282 q 611 366 568 347 q 700 385 654 385 q 819 338 775 385 q 863 221 863 290 q 842 131 863 174 q 787 56 821 89 q 710 5 753 24 q 621 -14 667 -14 m 631 42 q 689 56 660 42 q 741 94 718 71 q 778 149 764 118 q 792 214 792 181 q 763 297 792 263 q 689 331 735 331 q 631 316 660 331 q 578 277 601 301 q 542 222 556 253 q 528 157 528 190 q 556 75 528 108 q 631 42 585 42 m 1088 -14 q 969 33 1013 -14 q 925 150 925 81 q 946 240 925 197 q 1001 315 967 282 q 1079 366 1036 347 q 1168 385 1122 385 q 1286 338 1243 385 q 1329 221 1329 290 q 1308 131 1329 174 q 1253 56 1288 89 q 1176 5 1219 24 q 1088 -14 1133 -14 m 1099 42 q 1157 56 1128 42 q 1208 94 1186 71 q 1244 149 1231 118 q 1258 214 1258 181 q 1230 297 1258 263 q 1156 331 1201 331 q 1097 316 1126 331 q 1046 277 1068 301 q 1010 222 1024 253 q 996 157 996 190 q 1024 75 996 108 q 1099 42 1051 42 m 18 38 l 947 992 l 986 950 l 57 -6 l 18 38 z "},"+":{"ha":575,"x_min":85,"x_max":517,"o":"m 517 532 l 517 454 l 344 454 l 344 267 l 257 267 l 257 454 l 85 454 l 85 532 l 257 532 l 257 719 l 344 719 l 344 532 l 517 532 z "},"±":{"ha":672,"x_min":94,"x_max":542,"o":"m 94 85 l 94 164 l 542 164 l 542 85 l 94 85 m 542 546 l 542 467 l 361 467 l 361 272 l 275 272 l 275 467 l 94 467 l 94 546 l 275 546 l 275 740 l 361 740 l 361 546 l 542 546 z "},"q":{"ha":822,"x_min":33,"x_max":786,"o":"m 275 -14 q 172 10 217 -14 q 96 75 126 35 q 49 169 65 115 q 33 283 33 224 q 69 454 33 372 q 163 599 104 536 q 296 699 221 661 q 450 736 371 736 q 589 692 531 736 q 672 582 647 649 l 701 724 l 786 724 l 597 -169 q 595 -178 596 -175 q 594 -185 594 -182 q 621 -210 594 -208 l 604 -292 q 590 -294 597 -293 q 575 -294 582 -294 q 515 -278 538 -294 q 492 -228 492 -262 q 492 -219 492 -224 q 494 -210 493 -215 l 571 150 q 429 28 504 69 q 275 -14 354 -14 m 322 69 q 399 83 361 69 q 471 120 436 97 q 535 174 506 143 q 590 240 565 206 l 639 468 q 622 539 636 506 q 582 598 607 572 q 524 638 557 624 q 453 653 490 653 q 332 622 390 653 q 229 540 274 590 q 158 427 185 490 q 132 299 132 364 q 145 210 132 251 q 183 137 158 168 q 242 88 207 106 q 322 69 278 69 z "},"?":{"ha":636,"x_min":115,"x_max":656,"o":"m 172 281 q 230 426 192 372 q 333 517 268 481 q 408 556 367 536 q 485 603 450 575 q 545 673 521 632 q 569 776 569 714 q 527 883 569 847 q 426 919 485 919 q 358 908 392 919 q 292 878 324 897 q 235 833 261 860 q 188 778 208 807 l 132 819 q 195 896 158 863 q 273 952 232 929 q 358 987 314 975 q 444 999 401 999 q 526 985 488 999 q 593 947 564 972 q 639 881 622 921 q 656 789 656 842 q 636 672 656 719 q 583 592 617 625 q 507 534 550 558 q 418 486 464 510 q 367 458 392 472 q 320 420 342 443 q 281 364 299 397 q 253 281 264 331 l 172 281 m 115 0 l 147 149 l 226 149 l 196 0 l 115 0 z "},"¿":{"ha":629,"x_min":-51,"x_max":489,"o":"m 432 422 q 374 276 413 331 q 271 186 336 222 q 196 147 238 167 q 119 99 154 128 q 59 30 83 71 q 35 -74 35 -11 q 77 -181 35 -144 q 178 -217 119 -217 q 247 -206 213 -217 q 312 -176 281 -194 q 369 -131 343 -157 q 417 -75 396 -104 l 472 -117 q 408 -193 444 -160 q 331 -249 372 -226 q 247 -284 290 -272 q 160 -296 203 -296 q 78 -283 117 -296 q 11 -244 40 -269 q -35 -178 -18 -218 q -51 -86 -51 -139 q -32 31 -51 -17 q 21 111 -12 78 q 97 169 54 144 q 186 217 140 193 q 238 245 213 231 q 284 283 263 260 q 323 339 306 306 q 351 422 340 372 l 432 422 m 489 703 l 457 554 l 378 554 l 408 703 l 489 703 z "},"\"":{"ha":399,"x_min":156,"x_max":425,"o":"m 156 725 l 213 994 l 296 994 l 239 725 l 156 725 m 285 725 l 343 994 l 425 994 l 368 725 l 285 725 z "},"„":{"ha":474,"x_min":1,"x_max":306,"o":"m 1 -144 l 54 0 l 21 0 l 51 142 l 144 142 l 114 0 l 50 -144 l 1 -144 m 161 -144 l 214 0 l 182 0 l 213 142 l 306 142 l 274 0 l 210 -144 l 161 -144 z "},"‚":{"ha":313,"x_min":1,"x_max":144,"o":"m 1 -144 l 54 0 l 21 0 l 51 142 l 144 142 l 114 0 l 50 -144 l 1 -144 z "},"“":{"ha":428,"x_min":151,"x_max":454,"o":"m 296 1014 l 242 867 l 274 867 l 244 724 l 151 724 l 182 867 l 247 1014 l 296 1014 m 454 1014 l 401 867 l 433 867 l 404 724 l 311 724 l 340 867 l 407 1014 l 454 1014 z "},"‘":{"ha":268,"x_min":151,"x_max":296,"o":"m 296 1014 l 242 867 l 274 867 l 244 724 l 151 724 l 182 867 l 247 1014 l 296 1014 z "},"”":{"ha":421,"x_min":160,"x_max":463,"o":"m 160 724 l 213 872 l 181 872 l 211 1014 l 304 1014 l 274 872 l 208 724 l 160 724 m 319 724 l 372 872 l 340 872 l 369 1014 l 463 1014 l 433 872 l 368 724 l 319 724 z "},"’":{"ha":261,"x_min":158,"x_max":303,"o":"m 158 724 l 213 871 l 181 871 l 210 1014 l 303 1014 l 272 871 l 207 724 l 158 724 z "},"'":{"ha":268,"x_min":156,"x_max":296,"o":"m 156 724 l 213 994 l 296 994 l 239 724 l 156 724 z "},"r":{"ha":476,"x_min":13,"x_max":513,"o":"m 165 724 l 254 724 l 217 550 q 340 676 271 629 q 479 725 408 722 q 498 724 490 725 q 513 722 506 724 l 494 640 q 326 588 404 638 q 201 450 249 538 l 107 0 l 13 0 l 165 724 z "},"ŕ":{"ha":476,"x_min":13,"x_max":513,"o":"m 353 861 l 294 885 l 400 1014 l 499 1014 l 353 861 m 165 724 l 254 724 l 217 550 q 340 676 271 629 q 479 725 408 722 q 498 724 490 725 q 513 722 506 724 l 494 640 q 326 588 404 638 q 201 450 249 538 l 107 0 l 13 0 l 165 724 z "},"ř":{"ha":476,"x_min":13,"x_max":539,"o":"m 208 986 l 268 1014 l 361 926 l 492 1014 l 539 986 l 383 867 l 314 867 l 208 986 m 165 724 l 254 724 l 217 550 q 340 676 271 629 q 479 725 408 722 q 498 724 490 725 q 513 722 506 724 l 494 640 q 326 588 404 638 q 201 450 249 538 l 107 0 l 13 0 l 165 724 z "},"ŗ":{"ha":476,"x_min":-44,"x_max":513,"o":"m -44 -276 l 0 -174 l -28 -174 l -4 -68 l 81 -68 l 58 -174 l 3 -276 l -44 -276 m 165 724 l 254 724 l 217 550 q 340 676 271 629 q 479 725 408 722 q 498 724 490 725 q 513 722 506 724 l 494 640 q 326 588 404 638 q 201 450 249 538 l 107 0 l 13 0 l 165 724 z "},"®":{"ha":1174,"x_min":92,"x_max":1114,"o":"m 601 -10 q 398 28 492 -10 q 236 134 304 67 q 130 293 168 201 q 92 493 92 385 q 130 692 92 600 q 236 850 168 783 q 398 955 304 917 q 601 993 492 993 q 805 955 711 993 q 967 850 899 917 q 1075 692 1036 783 q 1114 493 1114 600 q 1075 293 1114 385 q 967 134 1036 201 q 805 28 899 67 q 601 -10 711 -10 m 601 35 q 783 68 699 35 q 931 161 868 101 q 1028 305 993 221 q 1064 492 1064 389 q 1029 672 1064 589 q 933 817 994 756 q 786 913 871 878 q 601 947 701 947 q 417 913 501 947 q 272 817 333 878 q 176 673 211 756 q 142 493 142 590 q 176 311 142 394 q 272 166 210 228 q 417 69 333 104 q 601 35 501 35 m 390 806 l 656 806 q 730 788 696 806 q 789 742 764 771 q 828 678 814 714 q 842 607 842 643 q 803 485 842 539 q 700 419 764 432 l 854 176 l 774 176 l 625 410 l 463 410 l 463 176 l 390 176 l 390 806 m 654 474 q 742 512 713 474 q 771 607 771 550 q 737 702 771 665 q 650 739 703 739 l 463 739 l 463 474 l 654 474 z "},"s":{"ha":650,"x_min":-28,"x_max":626,"o":"m 239 -14 q 88 14 158 -14 q -28 94 17 42 l 28 158 q 253 58 121 58 q 403 101 344 58 q 463 214 463 143 q 451 256 463 239 q 418 285 440 272 q 363 310 396 299 q 286 332 329 321 q 199 359 236 346 q 138 389 163 372 q 101 428 114 406 q 89 483 89 451 q 115 590 89 543 q 183 670 140 638 q 281 719 225 703 q 399 736 338 736 q 536 709 478 736 q 626 638 594 682 l 568 582 q 488 644 539 624 q 379 665 438 665 q 304 656 340 665 q 241 626 268 646 q 198 578 214 607 q 182 508 182 549 q 217 445 182 464 q 328 407 253 426 q 499 344 440 379 q 558 236 558 308 q 535 136 558 182 q 469 57 511 90 q 367 5 426 24 q 239 -14 308 -14 z "},"ﬆ":{"ha":1074,"x_min":-19,"x_max":1076,"o":"m 243 -14 q 89 17 157 -14 q -19 92 21 47 l 35 157 q 257 58 131 58 q 332 67 294 58 q 399 95 369 76 q 449 142 429 114 q 468 208 468 171 q 454 260 468 240 q 417 292 440 279 q 361 311 393 304 q 292 325 329 318 q 209 342 247 333 q 143 368 171 351 q 99 413 115 385 q 82 489 82 442 q 110 598 82 551 q 182 675 138 644 q 280 721 226 706 q 386 736 333 736 q 471 726 429 736 q 542 693 513 715 q 530 747 535 721 q 525 803 525 772 q 538 887 525 844 q 582 963 551 929 q 663 1017 613 996 q 789 1038 714 1038 q 913 1004 879 1038 q 947 907 947 971 q 939 826 947 871 q 919 724 931 781 l 1076 724 l 1060 649 l 904 649 l 800 157 q 798 146 799 150 q 797 138 797 142 q 817 93 797 107 q 865 79 836 79 q 932 92 900 79 q 975 111 964 106 l 982 35 q 955 24 972 31 q 916 10 938 17 q 869 -3 894 3 q 818 -8 843 -8 q 731 17 765 -8 q 696 93 696 43 q 699 121 696 107 q 704 151 701 135 l 810 649 l 714 649 l 731 724 l 825 724 q 844 824 838 782 q 851 896 851 867 q 829 967 851 949 q 757 986 807 986 q 669 970 704 986 q 613 928 633 954 q 583 867 592 901 q 574 797 574 833 q 587 696 574 739 q 607 639 600 653 l 550 583 q 470 649 518 632 q 375 665 422 665 q 301 657 338 665 q 237 631 265 649 q 190 583 208 613 q 172 514 172 554 q 186 458 172 479 q 224 424 200 436 q 283 404 249 411 q 357 390 317 397 q 434 375 397 383 q 499 350 471 367 q 544 305 528 333 q 561 231 561 276 q 533 124 561 169 q 458 47 504 78 q 356 1 413 17 q 243 -14 299 -14 z "},"ś":{"ha":650,"x_min":-28,"x_max":626,"o":"m 406 861 l 347 885 l 453 1014 l 551 1014 l 406 861 m 239 -14 q 88 14 158 -14 q -28 94 17 42 l 28 158 q 253 58 121 58 q 403 101 344 58 q 463 214 463 143 q 451 256 463 239 q 418 285 440 272 q 363 310 396 299 q 286 332 329 321 q 199 359 236 346 q 138 389 163 372 q 101 428 114 406 q 89 483 89 451 q 115 590 89 543 q 183 670 140 638 q 281 719 225 703 q 399 736 338 736 q 536 709 478 736 q 626 638 594 682 l 568 582 q 488 644 539 624 q 379 665 438 665 q 304 656 340 665 q 241 626 268 646 q 198 578 214 607 q 182 508 182 549 q 217 445 182 464 q 328 407 253 426 q 499 344 440 379 q 558 236 558 308 q 535 136 558 182 q 469 57 511 90 q 367 5 426 24 q 239 -14 308 -14 z "},"š":{"ha":650,"x_min":-28,"x_max":626,"o":"m 275 986 l 335 1014 l 428 926 l 558 1014 l 606 986 l 450 867 l 381 867 l 275 986 m 239 -14 q 88 14 158 -14 q -28 94 17 42 l 28 158 q 253 58 121 58 q 403 101 344 58 q 463 214 463 143 q 451 256 463 239 q 418 285 440 272 q 363 310 396 299 q 286 332 329 321 q 199 359 236 346 q 138 389 163 372 q 101 428 114 406 q 89 483 89 451 q 115 590 89 543 q 183 670 140 638 q 281 719 225 703 q 399 736 338 736 q 536 709 478 736 q 626 638 594 682 l 568 582 q 488 644 539 624 q 379 665 438 665 q 304 656 340 665 q 241 626 268 646 q 198 578 214 607 q 182 508 182 549 q 217 445 182 464 q 328 407 253 426 q 499 344 440 379 q 558 236 558 308 q 535 136 558 182 q 469 57 511 90 q 367 5 426 24 q 239 -14 308 -14 z "},"ə":{"ha":779,"x_min":17,"x_max":721,"o":"m 292 -14 q 176 8 226 -14 q 90 68 125 29 q 35 159 54 107 q 17 272 17 211 q 21 333 17 300 q 36 394 25 367 l 619 394 q 624 443 624 419 q 609 532 624 492 q 569 601 594 572 q 507 647 543 631 q 428 663 471 663 q 360 653 394 663 q 294 626 325 643 q 236 586 263 610 q 192 533 210 563 l 115 556 q 175 628 139 594 q 255 685 211 661 q 348 722 299 708 q 447 736 397 736 q 562 713 511 736 q 648 647 613 689 q 702 550 683 606 q 721 431 721 494 q 686 263 721 343 q 592 120 651 182 q 456 22 533 58 q 292 -14 378 -14 m 308 58 q 406 78 358 58 q 492 135 453 99 q 563 222 532 172 q 608 329 593 271 l 113 329 q 108 278 108 301 q 163 119 108 179 q 308 58 218 58 z "},"ŝ":{"ha":650,"x_min":-28,"x_max":626,"o":"m 274 896 l 431 1014 l 500 1014 l 604 896 l 546 867 l 451 954 l 321 867 l 274 896 m 239 -14 q 88 14 158 -14 q -28 94 17 42 l 28 158 q 253 58 121 58 q 403 101 344 58 q 463 214 463 143 q 451 256 463 239 q 418 285 440 272 q 363 310 396 299 q 286 332 329 321 q 199 359 236 346 q 138 389 163 372 q 101 428 114 406 q 89 483 89 451 q 115 590 89 543 q 183 670 140 638 q 281 719 225 703 q 399 736 338 736 q 536 709 478 736 q 626 638 594 682 l 568 582 q 488 644 539 624 q 379 665 438 665 q 304 656 340 665 q 241 626 268 646 q 198 578 214 607 q 182 508 182 549 q 217 445 182 464 q 328 407 253 426 q 499 344 440 379 q 558 236 558 308 q 535 136 558 182 q 469 57 511 90 q 367 5 426 24 q 239 -14 308 -14 z "},"§":{"ha":679,"x_min":-3,"x_max":664,"o":"m 525 271 q 553 231 544 257 q 561 172 561 206 q 528 42 561 97 q 447 -50 496 -14 q 342 -104 399 -86 q 235 -122 285 -122 q 151 -110 189 -122 q 85 -81 114 -99 q 34 -40 56 -62 q -3 4 13 -18 l 72 63 q 152 -9 110 14 q 250 -32 194 -32 q 324 -19 286 -32 q 392 16 361 -7 q 442 73 422 39 q 461 149 461 107 q 449 198 461 179 q 416 228 436 217 q 371 243 396 239 q 321 249 346 247 q 163 299 222 254 q 103 432 103 344 q 124 527 103 485 q 169 593 146 569 q 141 640 151 608 q 131 711 131 672 q 160 826 131 774 q 235 915 189 878 q 337 972 281 951 q 447 993 393 993 q 533 982 497 993 q 594 952 569 971 q 636 910 619 933 q 664 861 653 886 l 583 826 q 525 890 569 872 q 433 907 481 907 q 360 894 397 907 q 294 858 324 882 q 247 801 265 835 q 228 725 228 767 q 269 640 228 664 q 372 614 310 615 q 455 603 414 613 q 527 572 496 593 q 578 519 558 551 q 597 438 597 486 q 575 341 597 386 q 525 271 553 296 m 194 432 q 223 357 194 379 q 292 326 251 335 q 374 314 332 317 q 443 299 415 311 q 488 352 469 318 q 506 422 506 386 q 492 476 506 454 q 458 511 479 497 q 410 531 436 525 q 360 536 385 536 q 299 541 328 536 q 251 556 271 546 q 212 503 229 536 q 194 432 194 471 z "},";":{"ha":264,"x_min":-14,"x_max":233,"o":"m 125 583 l 153 719 l 233 719 l 204 583 l 125 583 m -14 -112 l 33 4 l 1 4 l 29 136 l 119 136 l 92 4 l 33 -112 l -14 -112 z "},"⅞":{"ha":1126,"x_min":8,"x_max":1057,"o":"m 8 38 l 938 992 l 976 950 l 47 -6 l 8 38 m 769 -7 q 638 35 686 -7 q 590 135 590 76 q 603 192 590 167 q 639 239 617 218 q 689 274 661 260 q 744 297 717 289 q 690 335 713 310 q 667 396 667 360 q 688 461 667 432 q 740 511 708 490 q 813 543 772 532 q 890 554 853 554 q 952 546 922 554 q 1006 522 982 538 q 1043 483 1029 506 q 1057 433 1057 461 q 1018 348 1057 382 q 926 297 979 314 q 996 251 969 282 q 1022 176 1022 221 q 1001 103 1022 136 q 944 45 979 69 q 863 7 908 21 q 769 -7 817 -7 m 786 54 q 847 63 817 54 q 903 88 878 72 q 944 125 928 103 q 960 175 960 147 q 949 215 960 197 q 919 244 938 232 q 877 263 900 257 q 829 269 854 269 q 767 260 799 269 q 711 235 736 251 q 670 197 686 219 q 654 146 654 174 q 665 108 654 125 q 695 78 676 90 q 738 60 714 67 q 786 54 761 54 m 842 321 q 893 328 867 321 q 941 347 919 335 q 977 378 963 360 q 992 419 992 396 q 957 476 992 456 q 878 496 922 496 q 823 489 850 496 q 775 469 796 482 q 742 437 754 456 q 729 396 729 418 q 765 340 729 360 q 842 321 800 321 m 499 953 l 169 953 l 182 1014 l 608 1014 l 181 460 l 110 460 l 499 953 z "},"⁷":{"ha":475,"x_min":111,"x_max":610,"o":"m 500 1064 l 171 1064 l 183 1125 l 610 1125 l 181 571 l 111 571 l 500 1064 z "},"₇":{"ha":474,"x_min":-33,"x_max":465,"o":"m 356 382 l 26 382 l 39 443 l 465 443 l 36 -111 l -33 -111 l 356 382 z "},"₆":{"ha":544,"x_min":-10,"x_max":456,"o":"m 429 101 q 408 17 429 57 q 349 -53 386 -22 q 265 -101 313 -83 q 167 -118 218 -118 q 38 -69 85 -118 q -10 65 -10 -21 q 13 215 -10 146 q 75 336 35 285 q 172 417 115 388 q 296 447 228 447 q 397 422 354 447 q 456 349 440 396 l 410 308 q 364 367 399 344 q 282 389 329 389 q 148 332 206 389 q 67 168 90 275 q 147 235 94 210 q 253 260 200 260 q 381 214 333 260 q 429 101 429 168 m 182 -61 q 251 -49 217 -61 q 311 -15 285 -36 q 353 33 338 6 q 369 90 369 60 q 333 172 369 139 q 238 206 296 206 q 167 193 201 206 q 106 160 132 181 q 63 112 79 139 q 47 54 47 85 q 85 -28 47 6 q 182 -61 124 -61 z "},"⁶":{"ha":546,"x_min":133,"x_max":600,"o":"m 575 779 q 553 694 575 735 q 494 624 531 654 q 410 576 458 593 q 310 558 361 558 q 181 607 228 558 q 133 742 133 656 q 156 892 133 822 q 218 1013 178 961 q 315 1095 258 1065 q 439 1125 371 1125 q 542 1099 499 1125 q 600 1026 585 1074 l 553 986 q 508 1044 543 1022 q 425 1067 474 1067 q 292 1009 350 1067 q 210 846 233 951 q 290 912 238 888 q 396 936 343 936 q 526 891 476 936 q 575 779 575 846 m 325 615 q 395 628 361 615 q 456 661 429 640 q 498 710 482 682 q 514 768 514 738 q 476 849 514 817 q 381 882 439 882 q 310 869 344 882 q 250 836 276 857 q 208 788 224 815 q 192 732 192 761 q 229 649 192 683 q 325 615 267 615 z "}," ":{"ha":346,"x_min":0,"x_max":0,"o":""},"£":{"ha":664,"x_min":0,"x_max":681,"o":"m 94 517 l 217 517 q 188 616 203 568 q 174 714 174 664 q 199 822 174 771 q 265 910 224 872 q 360 971 307 949 q 471 993 414 993 q 598 954 543 993 q 681 847 653 915 l 614 789 q 550 881 594 847 q 451 914 506 914 q 381 899 415 914 q 319 856 346 883 q 277 793 293 829 q 261 717 261 757 q 277 619 261 668 q 306 517 293 571 l 542 517 l 525 442 l 317 442 q 318 429 318 435 q 318 418 318 424 q 310 341 318 376 q 281 267 303 306 q 219 182 260 228 q 114 75 179 136 q 213 88 164 88 q 263 83 240 88 q 307 75 286 79 q 349 67 328 71 q 394 63 371 63 q 449 69 421 63 q 517 88 478 75 l 525 15 q 372 -21 449 -21 q 317 -16 343 -21 q 267 -5 292 -11 q 215 7 242 1 q 158 13 189 13 q 86 6 126 13 q 10 -11 46 0 l 0 58 q 115 165 71 119 q 186 251 160 211 q 222 328 213 290 q 232 408 232 365 q 232 425 232 417 q 231 442 232 433 l 78 442 l 94 517 z "},"t":{"ha":446,"x_min":67,"x_max":449,"o":"m 188 -8 q 101 17 135 -8 q 67 96 67 43 q 71 131 67 111 l 181 649 l 85 649 l 101 724 l 196 724 l 249 968 l 343 968 l 290 724 l 449 724 l 432 649 l 275 649 l 175 178 q 170 154 172 163 q 168 139 168 146 q 188 93 168 107 q 235 79 207 79 q 304 92 272 79 q 346 111 336 106 l 354 35 q 290 7 336 22 q 188 -8 243 -8 z "},"ŧ":{"ha":447,"x_min":39,"x_max":449,"o":"m 53 490 l 147 490 l 181 649 l 86 649 l 101 724 l 197 724 l 250 968 l 344 968 l 292 724 l 449 724 l 433 649 l 275 649 l 242 490 l 399 490 l 386 426 l 228 426 l 178 189 q 169 142 169 156 q 189 94 169 110 q 236 79 208 79 q 272 83 254 79 q 306 92 290 88 q 332 103 321 97 q 347 111 343 108 l 356 35 q 290 7 336 22 q 189 -8 243 -8 q 101 17 136 -8 q 67 96 67 43 q 71 131 67 111 l 133 426 l 39 426 l 53 490 z "},"ť":{"ha":446,"x_min":67,"x_max":610,"o":"m 404 885 l 510 1014 l 610 1014 l 463 861 l 404 885 m 188 -8 q 101 17 135 -8 q 67 96 67 43 q 71 131 67 111 l 181 649 l 85 649 l 101 724 l 196 724 l 249 968 l 343 968 l 290 724 l 449 724 l 432 649 l 275 649 l 175 178 q 170 154 172 163 q 168 139 168 146 q 188 93 168 107 q 235 79 207 79 q 304 92 272 79 q 346 111 336 106 l 354 35 q 290 7 336 22 q 188 -8 243 -8 z "},"þ":{"ha":801,"x_min":-50,"x_max":746,"o":"m 222 986 l 318 986 l 238 603 q 349 700 286 661 q 493 739 411 739 q 603 714 556 739 q 683 648 651 689 q 730 554 714 607 q 746 446 746 501 q 715 283 746 367 q 629 133 685 200 q 497 22 574 65 q 329 -22 421 -22 q 197 15 243 -22 q 131 103 150 53 l 46 -296 l -50 -296 l 222 986 m 349 65 q 463 95 408 65 q 559 175 518 125 q 624 290 600 225 q 649 424 649 354 q 637 513 649 471 q 602 585 625 554 q 545 635 579 617 q 467 653 511 653 q 393 639 429 653 q 325 602 357 625 q 264 549 293 579 q 211 483 235 518 l 160 239 q 157 228 157 232 q 157 218 157 224 q 172 160 157 188 q 214 111 188 132 q 275 78 240 90 q 349 65 310 65 z "},"⅜":{"ha":1146,"x_min":86,"x_max":1075,"o":"m 265 446 q 140 478 190 446 q 86 569 89 510 l 133 610 q 142 574 133 592 q 169 541 151 556 q 215 517 188 526 q 278 508 242 508 q 344 517 313 508 q 401 540 376 525 q 440 574 425 554 q 454 619 454 594 q 407 686 454 663 q 278 710 360 710 l 247 710 l 258 767 l 289 767 q 435 794 382 767 q 489 874 489 821 q 454 935 489 913 q 369 958 419 958 q 272 937 315 958 q 200 881 228 915 l 168 928 q 259 992 200 968 q 382 1015 318 1015 q 509 978 461 1015 q 557 883 557 942 q 518 792 557 828 q 407 740 479 756 q 487 699 458 732 q 515 622 515 667 q 494 548 515 581 q 438 492 472 515 q 358 458 403 469 q 265 446 313 446 m 101 38 l 1031 992 l 1069 950 l 140 -6 l 101 38 m 788 -7 q 656 35 704 -7 q 608 135 608 76 q 622 192 608 167 q 657 239 635 218 q 707 274 679 260 q 763 297 735 289 q 708 335 731 310 q 685 396 685 360 q 706 461 685 432 q 758 511 726 490 q 831 543 790 532 q 908 554 871 554 q 970 546 940 554 q 1024 522 1000 538 q 1061 483 1047 506 q 1075 433 1075 461 q 1036 348 1075 382 q 944 297 997 314 q 1014 251 988 282 q 1040 176 1040 221 q 1019 103 1040 136 q 962 45 997 69 q 881 7 926 21 q 788 -7 835 -7 m 804 54 q 865 63 835 54 q 921 88 896 72 q 962 125 946 103 q 978 175 978 147 q 967 215 978 197 q 937 244 956 232 q 895 263 918 257 q 847 269 872 269 q 785 260 817 269 q 729 235 754 251 q 688 197 704 219 q 672 146 672 174 q 683 108 672 125 q 713 78 694 90 q 756 60 732 67 q 804 54 779 54 m 860 321 q 911 328 885 321 q 959 347 938 335 q 995 378 981 360 q 1010 419 1010 396 q 975 476 1010 456 q 896 496 940 496 q 841 489 868 496 q 793 469 814 482 q 760 437 772 456 q 747 396 747 418 q 783 340 747 360 q 860 321 818 321 z "},"³":{"ha":519,"x_min":101,"x_max":572,"o":"m 283 557 q 157 592 203 557 q 101 681 111 626 l 149 721 q 185 651 149 683 q 296 619 221 619 q 361 628 329 619 q 417 651 393 636 q 455 685 440 665 q 469 731 469 706 q 423 797 469 774 q 293 821 376 821 l 263 821 l 274 878 l 304 878 q 451 904 397 878 q 504 983 504 931 q 470 1047 504 1024 q 383 1069 436 1069 q 287 1048 331 1069 q 215 992 243 1026 l 183 1039 q 275 1103 215 1079 q 396 1126 335 1126 q 524 1089 476 1126 q 572 993 572 1051 q 533 903 572 940 q 422 851 494 867 q 502 810 474 843 q 531 733 531 778 q 509 659 531 692 q 452 603 488 626 q 373 569 417 581 q 283 557 329 557 z "},"¾":{"ha":1107,"x_min":83,"x_max":1104,"o":"m 263 446 q 137 478 188 446 q 83 569 86 510 l 131 610 q 140 574 131 592 q 167 541 149 556 q 212 517 185 526 q 275 508 239 508 q 342 517 310 508 q 398 540 374 525 q 437 574 422 554 q 451 619 451 594 q 404 686 451 663 q 275 710 357 710 l 244 710 l 256 767 l 286 767 q 433 794 379 767 q 486 874 486 821 q 451 935 486 913 q 367 958 417 958 q 269 937 313 958 q 197 881 225 915 l 165 928 q 256 992 197 968 q 379 1015 315 1015 q 506 978 458 1015 q 554 883 554 942 q 515 792 554 828 q 404 740 476 756 q 484 699 456 732 q 513 622 513 667 q 491 548 513 581 q 435 492 469 515 q 355 458 400 469 q 263 446 310 446 m 857 143 l 556 143 l 568 201 l 963 554 l 1006 554 l 931 204 l 1008 204 l 994 143 l 918 143 l 888 0 l 826 0 l 857 143 m 872 204 l 928 469 l 636 204 l 872 204 m 136 38 l 1065 992 l 1104 950 l 175 -6 l 136 38 z "},"™":{"ha":971,"x_min":186,"x_max":985,"o":"m 504 922 l 379 922 l 308 589 l 242 589 l 311 922 l 186 922 l 201 989 l 518 989 l 504 922 m 578 986 l 671 986 l 725 726 l 892 986 l 985 986 l 900 589 l 833 589 l 897 890 l 736 647 l 682 647 l 624 890 l 560 589 l 493 589 l 578 986 z "},"²":{"ha":519,"x_min":82,"x_max":586,"o":"m 82 565 q 112 659 93 619 q 158 728 131 699 q 221 781 185 758 q 303 819 257 803 q 377 846 339 833 q 447 876 415 858 q 497 918 478 893 q 517 981 517 943 q 489 1041 517 1017 q 403 1065 461 1065 q 342 1058 369 1065 q 290 1038 314 1050 q 249 1013 267 1026 q 219 989 232 1000 l 188 1032 q 214 1055 194 1039 q 264 1087 233 1071 q 335 1115 294 1103 q 424 1126 375 1126 q 547 1089 507 1126 q 586 993 586 1051 q 569 917 586 949 q 522 863 553 886 q 451 822 492 839 q 361 788 410 804 q 283 752 314 772 q 233 710 253 732 q 204 666 214 688 q 190 625 194 644 l 504 625 l 492 565 l 82 565 z "},"⅔":{"ha":1160,"x_min":65,"x_max":1094,"o":"m 65 454 q 94 548 76 508 q 139 617 113 588 q 201 669 165 647 q 281 708 236 692 q 353 735 315 722 q 420 765 390 747 q 469 807 450 782 q 489 869 489 832 q 462 930 489 906 q 378 954 435 954 q 319 947 346 954 q 269 927 292 939 q 228 902 246 915 q 200 878 211 889 l 168 921 q 194 944 175 928 q 242 976 213 960 q 312 1003 272 992 q 399 1015 351 1015 q 519 978 481 1015 q 557 882 557 940 q 541 808 557 839 q 496 752 525 776 q 426 710 467 728 q 338 676 386 693 q 261 641 292 661 q 212 599 231 621 q 184 556 193 578 q 171 514 175 533 l 476 514 l 465 454 l 65 454 m 126 38 l 1056 992 l 1094 950 l 165 -6 l 126 38 m 801 -7 q 733 1 765 -7 q 676 24 700 8 q 638 63 651 40 q 624 117 624 86 l 668 156 q 678 121 668 139 q 706 88 688 103 q 751 64 724 74 q 814 54 778 54 q 881 63 849 54 q 937 85 913 71 q 975 120 961 100 q 989 165 989 140 q 943 233 989 210 q 814 257 897 257 l 783 257 l 796 313 l 825 313 q 972 340 917 313 q 1026 419 1026 367 q 991 481 1026 458 q 906 504 956 504 q 808 483 851 504 q 736 426 764 461 l 704 474 q 796 538 738 514 q 917 561 854 561 q 1045 524 997 561 q 1093 431 1093 488 q 1055 338 1093 375 q 943 286 1017 301 q 1024 245 996 278 q 1053 168 1053 213 q 1031 94 1053 126 q 974 40 1010 63 q 894 5 939 17 q 801 -7 849 -7 z "},"u":{"ha":790,"x_min":51,"x_max":749,"o":"m 221 -14 q 51 172 51 -14 q 55 231 51 200 q 67 299 58 263 l 158 724 l 251 724 l 165 315 q 151 207 151 254 q 271 69 151 69 q 350 83 310 69 q 428 124 390 97 q 499 186 465 150 q 557 268 532 222 l 654 724 l 749 724 l 622 133 q 618 107 618 117 q 644 83 618 83 l 626 0 q 608 -2 615 -1 q 593 -3 600 -3 q 544 12 561 -3 q 528 51 528 26 q 528 63 528 56 q 531 82 529 69 q 537 114 533 94 q 547 164 540 133 q 397 33 483 79 q 221 -14 311 -14 z "},"ú":{"ha":790,"x_min":51,"x_max":749,"o":"m 453 861 l 394 885 l 500 1014 l 599 1014 l 453 861 m 221 -14 q 51 172 51 -14 q 55 231 51 200 q 67 299 58 263 l 158 724 l 251 724 l 165 315 q 151 207 151 254 q 271 69 151 69 q 350 83 310 69 q 428 124 390 97 q 499 186 465 150 q 557 268 532 222 l 654 724 l 749 724 l 622 133 q 618 107 618 117 q 644 83 618 83 l 626 0 q 608 -2 615 -1 q 593 -3 600 -3 q 544 12 561 -3 q 528 51 528 26 q 528 63 528 56 q 531 82 529 69 q 537 114 533 94 q 547 164 540 133 q 397 33 483 79 q 221 -14 311 -14 z "},"ŭ":{"ha":790,"x_min":51,"x_max":749,"o":"m 221 -14 q 51 172 51 -14 q 55 231 51 200 q 67 299 58 263 l 158 724 l 251 724 l 165 315 q 151 207 151 254 q 271 69 151 69 q 350 83 310 69 q 428 124 390 97 q 499 186 465 150 q 557 268 532 222 l 654 724 l 749 724 l 622 133 q 618 107 618 117 q 644 83 618 83 l 626 0 q 608 -2 615 -1 q 593 -3 600 -3 q 544 12 561 -3 q 528 51 528 26 q 528 63 528 56 q 531 82 529 69 q 537 114 533 94 q 547 164 540 133 q 397 33 483 79 q 221 -14 311 -14 m 474 922 q 529 949 501 922 q 569 1014 557 975 l 625 1014 q 603 959 618 985 q 566 915 588 933 q 518 885 544 896 q 464 874 492 874 q 386 904 415 874 q 357 982 357 935 q 361 1014 357 997 l 419 1014 q 417 993 417 1000 q 433 943 417 964 q 474 922 449 922 z "},"û":{"ha":790,"x_min":51,"x_max":749,"o":"m 325 896 l 482 1014 l 551 1014 l 656 896 l 597 867 l 503 954 l 372 867 l 325 896 m 221 -14 q 51 172 51 -14 q 55 231 51 200 q 67 299 58 263 l 158 724 l 251 724 l 165 315 q 151 207 151 254 q 271 69 151 69 q 350 83 310 69 q 428 124 390 97 q 499 186 465 150 q 557 268 532 222 l 654 724 l 749 724 l 622 133 q 618 107 618 117 q 644 83 618 83 l 626 0 q 608 -2 615 -1 q 593 -3 600 -3 q 544 12 561 -3 q 528 51 528 26 q 528 63 528 56 q 531 82 529 69 q 537 114 533 94 q 547 164 540 133 q 397 33 483 79 q 221 -14 311 -14 z "},"ü":{"ha":790,"x_min":51,"x_max":749,"o":"m 338 879 l 367 1010 l 447 1010 l 418 879 l 338 879 m 538 879 l 565 1010 l 644 1010 l 618 879 l 538 879 m 221 -14 q 51 172 51 -14 q 55 231 51 200 q 67 299 58 263 l 158 724 l 251 724 l 165 315 q 151 207 151 254 q 271 69 151 69 q 350 83 310 69 q 428 124 390 97 q 499 186 465 150 q 557 268 532 222 l 654 724 l 749 724 l 622 133 q 618 107 618 117 q 644 83 618 83 l 626 0 q 608 -2 615 -1 q 593 -3 600 -3 q 544 12 561 -3 q 528 51 528 26 q 528 63 528 56 q 531 82 529 69 q 537 114 533 94 q 547 164 540 133 q 397 33 483 79 q 221 -14 311 -14 z "},"ù":{"ha":790,"x_min":51,"x_max":749,"o":"m 221 -14 q 51 172 51 -14 q 55 231 51 200 q 67 299 58 263 l 158 724 l 251 724 l 165 315 q 151 207 151 254 q 271 69 151 69 q 350 83 310 69 q 428 124 390 97 q 499 186 465 150 q 557 268 532 222 l 654 724 l 749 724 l 622 133 q 618 107 618 117 q 644 83 618 83 l 626 0 q 608 -2 615 -1 q 593 -3 600 -3 q 544 12 561 -3 q 528 51 528 26 q 528 63 528 56 q 531 82 529 69 q 537 114 533 94 q 547 164 540 133 q 397 33 483 79 q 221 -14 311 -14 m 375 1014 l 472 1014 l 525 885 l 457 861 l 375 1014 z "},"ű":{"ha":790,"x_min":51,"x_max":749,"o":"m 221 -14 q 51 172 51 -14 q 55 231 51 200 q 67 299 58 263 l 158 724 l 251 724 l 165 315 q 151 207 151 254 q 271 69 151 69 q 350 83 310 69 q 428 124 390 97 q 499 186 465 150 q 557 268 532 222 l 654 724 l 749 724 l 622 133 q 618 107 618 117 q 644 83 618 83 l 626 0 q 608 -2 615 -1 q 593 -3 600 -3 q 544 12 561 -3 q 528 51 528 26 q 528 63 528 56 q 531 82 529 69 q 537 114 533 94 q 547 164 540 133 q 397 33 483 79 q 221 -14 311 -14 m 360 861 l 314 885 l 415 1014 l 503 1014 l 360 861 m 528 861 l 483 885 l 585 1014 l 671 1014 l 528 861 z "},"ū":{"ha":790,"x_min":51,"x_max":749,"o":"m 221 -14 q 51 172 51 -14 q 55 231 51 200 q 67 299 58 263 l 158 724 l 251 724 l 165 315 q 151 207 151 254 q 271 69 151 69 q 350 83 310 69 q 428 124 390 97 q 499 186 465 150 q 557 268 532 222 l 654 724 l 749 724 l 622 133 q 618 107 618 117 q 644 83 618 83 l 626 0 q 608 -2 615 -1 q 593 -3 600 -3 q 544 12 561 -3 q 528 51 528 26 q 528 63 528 56 q 531 82 529 69 q 537 114 533 94 q 547 164 540 133 q 397 33 483 79 q 221 -14 311 -14 m 288 919 l 301 985 l 683 985 l 669 919 l 288 919 z "},"_":{"ha":683,"x_min":-19,"x_max":501,"o":"m -19 -86 l -1 0 l 501 0 l 483 -86 l -19 -86 z "}," ":{"ha":346,"x_min":0,"x_max":0,"o":""},"­":{"ha":761,"x_min":71,"x_max":672,"o":"m 71 335 l 89 422 l 672 422 l 654 335 l 71 335 z "},"Ş":{"ha":814,"x_min":-11,"x_max":817,"o":"m 206 -175 q 251 -192 221 -185 q 315 -200 281 -200 q 404 -140 404 -200 q 388 -110 404 -118 q 347 -101 372 -101 q 288 -108 319 -101 q 236 -121 256 -114 l 318 -8 q -11 135 108 -1 l 54 214 q 170 117 92 157 q 357 78 249 78 q 557 130 483 78 q 631 281 631 182 q 615 342 631 317 q 567 388 599 368 q 492 423 536 408 q 389 453 447 438 q 283 485 329 468 q 204 526 236 503 q 156 583 172 550 q 139 660 139 615 q 170 799 139 738 q 256 904 201 861 q 383 970 310 947 q 540 993 456 993 q 702 963 633 993 q 817 879 771 933 l 754 801 q 665 878 726 849 q 521 907 604 907 q 397 890 449 907 q 310 844 344 874 q 260 776 276 815 q 244 690 244 736 q 258 633 244 657 q 300 592 272 610 q 369 562 328 575 q 467 535 411 549 q 578 502 528 519 q 663 459 628 485 q 718 397 699 433 q 738 310 738 361 q 710 177 738 235 q 633 80 682 119 q 516 19 583 40 q 371 -7 449 -3 l 321 -71 q 347 -64 333 -65 q 372 -62 361 -62 q 435 -80 413 -62 q 457 -131 457 -97 q 416 -214 457 -183 q 297 -244 375 -244 q 228 -237 260 -244 q 172 -218 196 -229 l 206 -175 z "},"ş":{"ha":650,"x_min":-28,"x_max":626,"o":"m 103 -175 q 148 -192 118 -185 q 213 -200 178 -200 q 301 -140 301 -200 q 285 -110 301 -118 q 244 -101 269 -101 q 185 -108 217 -101 q 133 -121 153 -114 l 211 -12 q 76 19 139 -8 q -28 94 13 46 l 28 158 q 253 58 121 58 q 403 101 344 58 q 463 214 463 143 q 451 256 463 239 q 418 285 440 272 q 363 310 396 299 q 286 332 329 321 q 199 359 236 346 q 138 389 163 372 q 101 428 114 406 q 89 483 89 451 q 115 590 89 543 q 183 670 140 638 q 281 719 225 703 q 399 736 338 736 q 536 709 478 736 q 626 638 594 682 l 568 582 q 488 644 539 624 q 379 665 438 665 q 304 656 340 665 q 241 626 268 646 q 198 578 214 607 q 182 508 182 549 q 217 445 182 464 q 328 407 253 426 q 499 344 440 379 q 558 236 558 308 q 537 140 558 183 q 476 63 515 96 q 383 10 438 31 q 264 -12 329 -10 l 218 -71 q 244 -64 231 -65 q 269 -62 258 -62 q 332 -80 310 -62 q 354 -131 354 -97 q 313 -214 354 -183 q 194 -244 272 -244 q 125 -237 157 -244 q 69 -218 93 -229 l 103 -175 z "},"Ţ":{"ha":807,"x_min":124,"x_max":901,"o":"m 454 900 l 124 900 l 142 986 l 901 986 l 883 900 l 551 900 l 360 0 l 346 0 l 289 -71 q 315 -64 301 -65 q 340 -62 329 -62 q 403 -80 381 -62 q 425 -131 425 -97 q 384 -214 425 -183 q 265 -244 343 -244 q 196 -237 228 -244 q 140 -218 164 -229 l 174 -175 q 219 -192 189 -185 q 283 -200 249 -200 q 372 -140 372 -200 q 356 -110 372 -118 q 315 -101 340 -101 q 256 -108 288 -101 q 204 -121 224 -114 l 292 0 l 264 0 l 454 900 z "},"ţ":{"ha":446,"x_min":17,"x_max":449,"o":"m 50 -175 q 95 -192 65 -185 q 160 -200 125 -200 q 249 -140 249 -200 q 233 -110 249 -118 q 192 -101 217 -101 q 132 -108 164 -101 q 81 -121 100 -114 l 163 -7 q 93 24 119 -1 q 67 96 67 50 q 71 131 67 111 l 181 649 l 85 649 l 101 724 l 196 724 l 249 968 l 343 968 l 290 724 l 449 724 l 432 649 l 275 649 l 175 178 q 170 154 172 163 q 168 139 168 146 q 188 93 168 107 q 235 79 207 79 q 304 92 272 79 q 346 111 336 106 l 354 35 q 301 10 339 24 q 217 -7 264 -3 l 165 -71 q 192 -64 178 -65 q 217 -62 206 -62 q 279 -80 257 -62 q 301 -131 301 -97 q 260 -214 301 -183 q 142 -244 219 -244 q 72 -237 104 -244 q 17 -218 40 -229 l 50 -175 z "},"Ș":{"ha":813,"x_min":-12,"x_max":815,"o":"m 238 -276 l 282 -174 l 254 -174 l 278 -68 l 363 -68 l 340 -174 l 285 -276 l 238 -276 m 335 -8 q -12 135 114 -8 l 53 214 q 169 117 90 157 q 356 78 247 78 q 556 130 482 78 q 629 281 629 182 q 613 342 629 317 q 566 388 597 368 q 490 423 535 408 q 388 453 446 438 q 281 485 328 468 q 203 526 235 503 q 154 583 171 550 q 138 660 138 615 q 169 799 138 738 q 254 904 200 861 q 381 970 308 947 q 539 993 454 993 q 701 963 632 993 q 815 879 769 933 l 753 801 q 664 878 725 849 q 519 907 603 907 q 395 890 447 907 q 309 844 343 874 q 259 776 275 815 q 243 690 243 736 q 257 633 243 657 q 299 592 271 610 q 368 562 326 575 q 465 535 410 549 q 576 502 526 519 q 662 459 626 485 q 717 397 697 433 q 736 310 736 361 q 705 171 736 231 q 619 72 674 111 q 492 12 565 32 q 335 -8 419 -8 z "},"ș":{"ha":650,"x_min":-28,"x_max":626,"o":"m 146 -276 l 190 -174 l 163 -174 l 186 -68 l 271 -68 l 249 -174 l 193 -276 l 146 -276 m 239 -14 q 88 14 158 -14 q -28 94 17 42 l 28 158 q 253 58 121 58 q 403 101 344 58 q 463 214 463 143 q 451 256 463 239 q 418 285 440 272 q 363 310 396 299 q 286 332 329 321 q 199 359 236 346 q 138 389 163 372 q 101 428 114 406 q 89 483 89 451 q 115 590 89 543 q 183 670 140 638 q 281 719 225 703 q 399 736 338 736 q 536 709 478 736 q 626 638 594 682 l 568 582 q 488 644 539 624 q 379 665 438 665 q 304 656 340 665 q 241 626 268 646 q 198 578 214 607 q 182 508 182 549 q 217 445 182 464 q 328 407 253 426 q 499 344 440 379 q 558 236 558 308 q 535 136 558 182 q 469 57 511 90 q 367 5 426 24 q 239 -14 308 -14 z "},"Ț":{"ha":808,"x_min":125,"x_max":903,"o":"m 217 -276 l 261 -174 l 233 -174 l 257 -68 l 342 -68 l 319 -174 l 264 -276 l 217 -276 m 456 900 l 125 900 l 143 986 l 903 986 l 885 900 l 553 900 l 361 0 l 265 0 l 456 900 z "},"ț":{"ha":446,"x_min":67,"x_max":449,"o":"m 89 -276 l 133 -174 l 106 -174 l 129 -68 l 214 -68 l 192 -174 l 136 -276 l 89 -276 m 188 -8 q 101 17 135 -8 q 67 96 67 43 q 71 131 67 111 l 181 649 l 85 649 l 101 724 l 196 724 l 249 968 l 343 968 l 290 724 l 449 724 l 432 649 l 275 649 l 175 178 q 170 154 172 163 q 168 139 168 146 q 188 93 168 107 q 235 79 207 79 q 304 92 272 79 q 346 111 336 106 l 354 35 q 290 7 336 22 q 188 -8 243 -8 z "},"μ":{"ha":800,"x_min":-50,"x_max":758,"o":"m 167 724 l 261 724 l 174 315 q 163 257 167 283 q 160 207 160 231 q 281 69 160 69 q 360 83 319 69 q 438 124 400 97 q 508 186 475 150 q 567 268 542 222 l 664 724 l 758 724 l 631 122 q 628 107 628 111 q 656 83 628 83 l 636 0 q 566 12 594 0 q 538 56 538 24 q 542 94 538 63 q 557 164 547 126 q 497 94 532 126 q 423 38 463 63 q 341 0 383 14 q 258 -14 299 -14 q 163 19 196 -14 q 124 104 131 51 l 44 -294 l -50 -294 l 167 724 z "},"∕":{"ha":789,"x_min":-86,"x_max":908,"o":"m -86 42 l 861 992 l 908 944 l -37 -6 l -86 42 z "},"∙":{"ha":258,"x_min":72,"x_max":185,"o":"m 72 342 l 104 497 l 185 497 l 153 342 l 72 342 z "},"ų":{"ha":790,"x_min":51,"x_max":749,"o":"m 221 -14 q 51 172 51 -14 q 55 231 51 200 q 67 299 58 263 l 158 724 l 251 724 l 165 315 q 151 207 151 254 q 271 69 151 69 q 350 83 310 69 q 428 124 390 97 q 499 186 465 150 q 557 268 532 222 l 654 724 l 749 724 l 622 133 q 618 107 618 117 q 644 83 618 83 l 626 0 q 519 -76 550 -44 q 489 -140 489 -108 q 547 -190 489 -182 l 511 -243 q 449 -211 469 -233 q 428 -158 428 -189 q 460 -81 428 -118 q 563 1 492 -43 q 528 51 528 11 q 528 63 528 56 q 531 82 529 69 q 537 114 533 94 q 547 164 540 133 q 397 33 483 79 q 221 -14 311 -14 z "},"ů":{"ha":790,"x_min":51,"x_max":749,"o":"m 379 906 q 415 984 379 954 q 500 1014 451 1014 q 559 994 538 1014 q 581 940 581 974 q 546 863 581 893 q 460 832 511 832 q 401 852 422 832 q 379 906 379 872 m 492 976 q 446 958 467 976 q 425 913 425 940 q 437 882 425 894 q 468 869 449 869 q 514 888 492 869 q 536 933 536 906 q 524 965 536 953 q 492 976 511 976 m 221 -14 q 51 172 51 -14 q 55 231 51 200 q 67 299 58 263 l 158 724 l 251 724 l 165 315 q 151 207 151 254 q 271 69 151 69 q 350 83 310 69 q 428 124 390 97 q 499 186 465 150 q 557 268 532 222 l 654 724 l 749 724 l 622 133 q 618 107 618 117 q 644 83 618 83 l 626 0 q 608 -2 615 -1 q 593 -3 600 -3 q 544 12 561 -3 q 528 51 528 26 q 528 63 528 56 q 531 82 529 69 q 537 114 533 94 q 547 164 540 133 q 397 33 483 79 q 221 -14 311 -14 z "},"ũ":{"ha":790,"x_min":51,"x_max":749,"o":"m 221 -14 q 51 172 51 -14 q 55 231 51 200 q 67 299 58 263 l 158 724 l 251 724 l 165 315 q 151 207 151 254 q 271 69 151 69 q 350 83 310 69 q 428 124 390 97 q 499 186 465 150 q 557 268 532 222 l 654 724 l 749 724 l 622 133 q 618 107 618 117 q 644 83 618 83 l 626 0 q 608 -2 615 -1 q 593 -3 600 -3 q 544 12 561 -3 q 528 51 528 26 q 528 63 528 56 q 531 82 529 69 q 537 114 533 94 q 547 164 540 133 q 397 33 483 79 q 221 -14 311 -14 m 553 886 q 503 894 524 886 q 467 913 483 903 q 433 933 450 924 q 396 942 417 942 q 360 932 375 942 q 335 910 344 922 q 322 888 326 899 q 317 875 317 878 l 258 875 q 269 903 260 882 q 297 947 279 925 q 343 987 315 969 q 408 1004 371 1004 q 455 995 436 1004 q 490 975 474 986 q 524 955 507 964 q 565 946 540 946 q 608 956 590 946 q 635 978 625 965 q 649 1001 644 990 q 654 1014 654 1011 l 713 1014 q 701 986 711 1007 q 672 943 692 965 q 624 903 653 921 q 553 886 594 886 z "},"v":{"ha":682,"x_min":81,"x_max":692,"o":"m 81 724 l 179 724 l 268 88 q 474 406 389 243 q 600 724 558 568 l 692 724 q 297 0 588 358 l 196 0 l 81 724 z "},"w":{"ha":1049,"x_min":74,"x_max":1060,"o":"m 74 724 l 171 724 l 288 88 q 390 223 343 154 q 478 363 438 292 l 394 724 l 492 724 l 544 483 q 598 606 575 546 q 638 724 621 665 l 728 724 q 663 544 701 633 q 572 364 624 454 l 632 88 q 840 406 754 243 q 968 724 925 568 l 1060 724 q 661 0 953 358 l 560 0 l 504 256 q 417 126 464 190 q 317 0 371 63 l 215 0 l 74 724 z "},"ẃ":{"ha":1049,"x_min":74,"x_max":1060,"o":"m 588 861 l 529 885 l 635 1014 l 733 1014 l 588 861 m 74 724 l 171 724 l 288 88 q 390 223 343 154 q 478 363 438 292 l 394 724 l 492 724 l 544 483 q 598 606 575 546 q 638 724 621 665 l 728 724 q 663 544 701 633 q 572 364 624 454 l 632 88 q 840 406 754 243 q 968 724 925 568 l 1060 724 q 661 0 953 358 l 560 0 l 504 256 q 417 126 464 190 q 317 0 371 63 l 215 0 l 74 724 z "},"ŵ":{"ha":1049,"x_min":74,"x_max":1060,"o":"m 440 896 l 597 1014 l 667 1014 l 771 896 l 713 867 l 618 954 l 488 867 l 440 896 m 74 724 l 171 724 l 288 88 q 390 223 343 154 q 478 363 438 292 l 394 724 l 492 724 l 544 483 q 598 606 575 546 q 638 724 621 665 l 728 724 q 663 544 701 633 q 572 364 624 454 l 632 88 q 840 406 754 243 q 968 724 925 568 l 1060 724 q 661 0 953 358 l 560 0 l 504 256 q 417 126 464 190 q 317 0 371 63 l 215 0 l 74 724 z "},"ẅ":{"ha":1049,"x_min":74,"x_max":1060,"o":"m 450 879 l 479 1010 l 560 1010 l 531 879 l 450 879 m 650 879 l 678 1010 l 757 1010 l 731 879 l 650 879 m 74 724 l 171 724 l 288 88 q 390 223 343 154 q 478 363 438 292 l 394 724 l 492 724 l 544 483 q 598 606 575 546 q 638 724 621 665 l 728 724 q 663 544 701 633 q 572 364 624 454 l 632 88 q 840 406 754 243 q 968 724 925 568 l 1060 724 q 661 0 953 358 l 560 0 l 504 256 q 417 126 464 190 q 317 0 371 63 l 215 0 l 74 724 z "},"ẁ":{"ha":1049,"x_min":74,"x_max":1060,"o":"m 74 724 l 171 724 l 288 88 q 390 223 343 154 q 478 363 438 292 l 394 724 l 492 724 l 544 483 q 598 606 575 546 q 638 724 621 665 l 728 724 q 663 544 701 633 q 572 364 624 454 l 632 88 q 840 406 754 243 q 968 724 925 568 l 1060 724 q 661 0 953 358 l 560 0 l 504 256 q 417 126 464 190 q 317 0 371 63 l 215 0 l 74 724 m 518 1014 l 615 1014 l 668 885 l 600 861 l 518 1014 z "},"x":{"ha":668,"x_min":-69,"x_max":714,"o":"m 269 360 l 85 724 l 186 724 l 328 440 l 333 419 l 349 439 l 613 724 l 714 724 l 375 360 l 560 0 l 458 0 l 317 282 l 308 301 l 294 283 l 33 0 l -69 0 l 269 360 z "},"y":{"ha":679,"x_min":-50,"x_max":696,"o":"m -50 -235 q 24 -218 -7 -228 q 80 -190 56 -208 q 126 -146 104 -172 q 174 -79 147 -119 l 219 -11 l 71 724 l 169 724 l 286 88 l 343 181 q 444 351 403 278 q 516 487 486 425 q 566 605 546 549 q 603 724 586 661 l 696 724 q 656 599 676 657 q 603 477 635 542 q 526 333 572 413 q 410 143 479 253 l 297 -36 q 209 -164 249 -112 q 131 -247 169 -215 q 53 -294 93 -279 q -37 -311 13 -308 l -50 -235 z "},"ý":{"ha":679,"x_min":-50,"x_max":696,"o":"m -50 -235 q 24 -218 -7 -228 q 80 -190 56 -208 q 126 -146 104 -172 q 174 -79 147 -119 l 219 -11 l 71 724 l 169 724 l 286 88 l 343 181 q 444 351 403 278 q 516 487 486 425 q 566 605 546 549 q 603 724 586 661 l 696 724 q 656 599 676 657 q 603 477 635 542 q 526 333 572 413 q 410 143 479 253 l 297 -36 q 209 -164 249 -112 q 131 -247 169 -215 q 53 -294 93 -279 q -37 -311 13 -308 l -50 -235 m 403 861 l 344 885 l 450 1014 l 549 1014 l 403 861 z "},"ŷ":{"ha":679,"x_min":-50,"x_max":696,"o":"m -50 -235 q 24 -218 -7 -228 q 80 -190 56 -208 q 126 -146 104 -172 q 174 -79 147 -119 l 219 -11 l 71 724 l 169 724 l 286 88 l 343 181 q 444 351 403 278 q 516 487 486 425 q 566 605 546 549 q 603 724 586 661 l 696 724 q 656 599 676 657 q 603 477 635 542 q 526 333 572 413 q 410 143 479 253 l 297 -36 q 209 -164 249 -112 q 131 -247 169 -215 q 53 -294 93 -279 q -37 -311 13 -308 l -50 -235 m 253 896 l 410 1014 l 479 1014 l 583 896 l 525 867 l 431 954 l 300 867 l 253 896 z "},"ÿ":{"ha":679,"x_min":-50,"x_max":696,"o":"m -50 -235 q 24 -218 -7 -228 q 80 -190 56 -208 q 126 -146 104 -172 q 174 -79 147 -119 l 219 -11 l 71 724 l 169 724 l 286 88 l 343 181 q 444 351 403 278 q 516 487 486 425 q 566 605 546 549 q 603 724 586 661 l 696 724 q 656 599 676 657 q 603 477 635 542 q 526 333 572 413 q 410 143 479 253 l 297 -36 q 209 -164 249 -112 q 131 -247 169 -215 q 53 -294 93 -279 q -37 -311 13 -308 l -50 -235 m 267 879 l 296 1010 l 376 1010 l 347 879 l 267 879 m 467 879 l 494 1010 l 574 1010 l 547 879 l 467 879 z "},"¥":{"ha":903,"x_min":157,"x_max":975,"o":"m 592 508 l 703 508 l 689 442 l 540 442 l 481 367 l 472 329 l 665 329 l 651 263 l 458 263 l 403 0 l 306 0 l 361 263 l 171 263 l 186 329 l 376 329 l 385 369 l 358 442 l 210 442 l 224 508 l 338 508 l 157 986 l 263 986 l 451 456 l 868 986 l 975 986 l 592 508 z "},"ỳ":{"ha":679,"x_min":-50,"x_max":696,"o":"m -50 -235 q 24 -218 -7 -228 q 80 -190 56 -208 q 126 -146 104 -172 q 174 -79 147 -119 l 219 -11 l 71 724 l 169 724 l 286 88 l 343 181 q 444 351 403 278 q 516 487 486 425 q 566 605 546 549 q 603 724 586 661 l 696 724 q 656 599 676 657 q 603 477 635 542 q 526 333 572 413 q 410 143 479 253 l 297 -36 q 209 -164 249 -112 q 131 -247 169 -215 q 53 -294 93 -279 q -37 -311 13 -308 l -50 -235 m 319 1014 l 417 1014 l 469 885 l 401 861 l 319 1014 z "},"ỹ":{"ha":679,"x_min":-50,"x_max":696,"o":"m -50 -235 q 24 -218 -7 -228 q 80 -190 56 -208 q 126 -146 104 -172 q 174 -79 147 -119 l 219 -11 l 71 724 l 169 724 l 286 88 l 343 181 q 444 351 403 278 q 516 487 486 425 q 566 605 546 549 q 603 724 586 661 l 696 724 q 656 599 676 657 q 603 477 635 542 q 526 333 572 413 q 410 143 479 253 l 297 -36 q 209 -164 249 -112 q 131 -247 169 -215 q 53 -294 93 -279 q -37 -311 13 -308 l -50 -235 m 489 886 q 440 894 460 886 q 403 913 419 903 q 369 933 386 924 q 332 942 353 942 q 296 932 311 942 q 272 910 281 922 q 258 888 263 899 q 253 875 253 878 l 194 875 q 206 903 196 882 q 233 947 215 925 q 279 987 251 969 q 344 1004 307 1004 q 391 995 372 1004 q 426 975 410 986 q 460 955 443 964 q 501 946 476 946 q 544 956 526 946 q 571 978 561 965 q 585 1001 581 990 q 590 1014 590 1011 l 649 1014 q 638 986 647 1007 q 608 943 628 965 q 560 903 589 921 q 489 886 531 886 z "},"z":{"ha":647,"x_min":-49,"x_max":667,"o":"m -36 64 l 546 653 l 100 653 l 115 724 l 667 724 l 654 660 l 75 71 l 529 71 l 513 0 l -49 0 l -36 64 z "},"ź":{"ha":647,"x_min":-49,"x_max":667,"o":"m 385 861 l 326 885 l 432 1014 l 531 1014 l 385 861 m -36 64 l 546 653 l 100 653 l 115 724 l 667 724 l 654 660 l 75 71 l 529 71 l 513 0 l -49 0 l -36 64 z "},"ž":{"ha":647,"x_min":-49,"x_max":667,"o":"m 258 986 l 318 1014 l 411 926 l 542 1014 l 589 986 l 433 867 l 364 867 l 258 986 m -36 64 l 546 653 l 100 653 l 115 724 l 667 724 l 654 660 l 75 71 l 529 71 l 513 0 l -49 0 l -36 64 z "},"ż":{"ha":647,"x_min":-49,"x_max":667,"o":"m -36 64 l 546 653 l 100 653 l 115 724 l 667 724 l 654 660 l 75 71 l 529 71 l 513 0 l -49 0 l -36 64 m 361 879 l 390 1014 l 476 1014 l 447 879 l 361 879 z "}}}
